<svg width="672" height="472" viewBox="0 0 672 472" fill="none" xmlns="http://www.w3.org/2000/svg">
<path d="M285.101 91.2915C262.783 10.3323 162.213 -15.7471 104.579 44.7578C103.752 45.6261 102.925 46.5103 102.098 47.4077C19.4688 137.228 58.5029 358.576 230.948 414.677C403.394 470.777 582.759 368.332 592.836 276.751C602.913 185.171 523.355 156.395 399.891 182.002C330.134 196.47 298.993 141.69 285.101 91.2915Z" fill="#CFDAEF"/>
<path d="M428.551 105.139C405.479 108.896 399.084 129.337 416.899 143.838C422.787 148.631 431.197 152.614 443.176 154.6C488.81 162.171 513.025 141.981 494.733 115.803C483.445 99.6463 451.417 101.416 428.551 105.139Z" fill="#CFDAEF"/>
<path d="M71.4766 270.59C60.1466 250.143 38.747 251.03 31.1168 272.696C28.5946 279.857 27.6871 289.116 29.8637 301.063C38.1532 346.572 65.3375 362.544 83.7968 336.485C95.1906 320.401 82.7049 290.854 71.4766 270.59Z" fill="#CFDAEF"/>
<path d="M609.099 287.394C606.973 298.521 616.161 306.402 626.572 302.115C630.013 300.697 633.483 297.965 636.572 293.162C648.334 274.863 642.377 259.167 626 260.779C615.89 261.774 611.204 276.368 609.099 287.394Z" fill="#CFDAEF"/>
<path d="M550.77 169.978C561.859 172.293 569.896 163.241 565.785 152.759C564.426 149.294 561.754 145.778 557.005 142.608C538.91 130.536 523.115 136.225 524.447 152.627C525.269 162.752 539.781 167.686 550.77 169.978Z" fill="#CFDAEF"/>
<path d="M281.249 50.9114C290.029 58.0697 301.33 53.7312 302.504 42.5333C302.894 38.8322 302.139 34.4791 299.38 29.4798C288.87 10.434 272.229 8.21675 265.863 23.3916C261.934 32.7599 272.548 43.8183 281.249 50.9114Z" fill="#CFDAEF"/>
<path d="M632.373 450.493C636.181 451.129 640.154 450.063 642.807 447.258C644.536 445.43 645.711 443.172 645.709 441.009C645.709 440.978 645.709 440.946 645.709 440.916C645.658 425.395 664.728 426.428 670.849 407.451C676.971 388.475 652.779 386.877 638.96 398.593C629.026 407.017 617.102 395.249 602.66 405.074C590.122 413.602 597.105 434.599 576.539 428.035C569.971 425.937 564.091 427.959 559.128 431.684C553.414 435.972 549.694 441.981 548.145 448.508L549.783 449.665C590.349 474.528 608.628 446.528 632.373 450.493Z" fill="#20355D"/>
<path d="M592.178 449.664L645.956 415.144C646.676 414.682 646.884 413.723 646.422 413.004C645.96 412.284 645.001 412.076 644.282 412.538L586.444 449.664H592.178Z" fill="#23427D"/>
<path d="M589.282 346.964C587.012 313.128 586.637 277.647 589.157 254.122C592.447 223.387 599.888 201.992 611.276 190.533C612.031 189.773 613.258 189.769 614.019 190.524C614.779 191.279 614.783 192.508 614.028 193.267C594.12 213.3 586.961 267.092 593.285 348.936L589.282 346.964Z" fill="#436FC3"/>
<path d="M594.372 226.969C594.372 226.969 578.162 226.943 579.321 198.445C579.321 198.445 604.122 205.52 594.372 226.969Z" fill="#23427D"/>
<path d="M593.015 241.63C593.015 241.63 592.138 225.443 620.658 225.015C620.658 225.015 614.972 250.172 593.015 241.63Z" fill="#23427D"/>
<path d="M605.41 201.655C605.41 201.655 599.187 186.686 625.932 176.774C625.932 176.774 628.96 202.388 605.41 201.655Z" fill="#23427D"/>
<path d="M589.374 271.043C589.374 271.043 574.111 276.503 565.562 249.291C565.562 249.291 591.295 247.56 589.374 271.043Z" fill="#23427D"/>
<path d="M590.253 286.189C590.253 286.189 586.591 270.397 614.605 265.044C614.605 265.044 613.355 290.805 590.253 286.189Z" fill="#23427D"/>
<path d="M589.395 307.046C589.395 307.046 574.237 312.793 565.174 285.749C565.174 285.749 590.87 283.532 589.395 307.046Z" fill="#23427D"/>
<path d="M118.982 422.374L114.565 422.199L112.223 422.105L105.587 421.839C105.587 421.839 44.2573 317.724 82.6772 283.77C94.5052 273.317 115.183 281.984 110.612 330.025C106.375 374.559 118.982 422.374 118.982 422.374Z" fill="#23427D"/>
<path d="M114.564 422.199L112.222 422.105C101.515 396.878 96.1109 369.779 93.4276 350.758C90.2419 328.172 90.0938 311.772 90.0938 311.609C90.088 311.024 90.5599 310.545 91.145 310.543C91.7302 310.538 92.2094 311.01 92.2123 311.593C92.2137 311.757 92.3589 328.043 95.5315 350.497C98.2308 369.611 103.693 396.932 114.564 422.199Z" fill="#436FC3"/>
<path d="M131.165 443.233L125.167 445.46L121.984 446.641L112.969 449.983C112.969 449.983 -26.9966 345.033 5.42508 278.257C15.4061 257.699 47.8656 257.758 68.5261 324.499C87.6794 386.366 131.165 443.233 131.165 443.233Z" fill="#20355D"/>
<path d="M125.167 445.46L121.984 446.641C93.621 418.899 71.2994 385.699 57.1162 361.777C40.2745 333.372 30.9381 311.541 30.8495 311.323C30.5156 310.544 30.88 309.642 31.6597 309.314C32.4395 308.98 33.3412 309.344 33.6708 310.121C33.7637 310.34 43.0333 332.02 59.7821 360.256C74.0393 384.292 96.5612 417.756 125.167 445.46Z" fill="#23427D"/>
<path d="M609.591 449.172C609.522 446.753 609.238 444.309 608.708 441.884C603.675 418.85 617.365 414.504 635.414 407.229C653.459 399.953 655.606 378.343 642.827 360.386C630.045 342.425 653.01 327.991 644.555 300.962C636.098 273.933 606.73 291.911 600.305 316.829C595.689 334.745 572.209 330.869 563.514 354.103C555.961 374.273 581.275 392.902 552.039 402.149C542.701 405.098 537.54 412.265 534.836 420.653C531.724 430.31 532.336 440.332 535.889 449.17L609.591 449.172Z" fill="#23427D"/>
<path d="M573.832 449.172L621.988 330.292C622.444 329.167 621.9 327.883 620.773 327.427C619.647 326.971 618.364 327.516 617.908 328.643L569.084 449.172H573.832Z" fill="#436FC3"/>
<path d="M172.594 89.7683C172.594 89.7683 173.606 68.3659 160.589 64.2553C140.319 57.8534 134.676 68.3659 131.549 75.3122C127.54 84.2145 129.249 101.676 141.343 103.362C159.397 105.88 171.479 95.7491 172.594 89.7683Z" fill="#23427D"/>
<path d="M185.661 161.339C196.195 161.339 205.295 153.957 207.452 143.645C209.006 136.218 210.523 129.643 210.523 125.949V125.853C210.618 124.686 210.67 123.519 210.679 122.369C210.817 105.48 200.406 74.6356 163.783 79.5376C163.783 79.5376 133.396 83.0049 129.937 112.7C129.937 112.7 128.497 126.399 127.54 136.319C127.523 136.495 127.505 136.669 127.488 136.842C126.152 149.954 136.463 161.336 149.641 161.336H185.661V161.339Z" fill="#23427D"/>
<path d="M229.138 196.636C229.138 196.636 235.614 247.936 243.01 274.273C243.01 274.273 253.52 269.378 267.274 262.732C282.189 255.527 303.631 242.381 303.631 242.381L309.05 255.434C309.05 255.434 253.663 307.708 235.317 310.668C216.971 313.628 205.727 247.936 205.727 247.936L229.138 196.636Z" fill="#23427D"/>
<path d="M302.496 243.911C302.496 243.911 300.974 236.622 304.235 231.69C307.496 226.757 312.462 217.523 318.292 215.594C323.171 213.981 315.973 222.215 315.758 227.44C315.758 227.44 323.014 226.529 328.247 224.829C332.85 223.333 341.958 221.468 346.182 220.637C347.339 220.409 348.083 221.868 347.191 222.641C345.751 223.89 342.741 225.459 336.516 226.959C336.516 226.959 351.688 224.087 353.262 226.41C354.836 228.733 335.802 231.977 335.802 231.977C335.802 231.977 350.57 231.103 350.955 233.421C351.189 234.83 335.889 238.061 335.889 238.061C335.889 238.061 349.851 238.436 346.474 240.64C345.491 241.282 318.46 244.324 309.05 255.434C309.05 255.434 302.719 248.892 302.496 243.911Z" fill="#FFA681"/>
<path d="M135.744 186.531C135.744 186.531 104.758 195.67 78.0731 201.69C78.0731 201.69 77.3805 190.118 76.6821 174.857C75.9242 158.31 77.2876 133.196 77.2876 133.196L63.2279 134.639C63.2279 134.639 43.5954 208.225 49.7185 225.77C55.843 243.316 133.609 218.738 133.609 218.738L135.744 186.531Z" fill="#23427D"/>
<path d="M76.4817 134.924C76.4817 134.924 83.6168 132.795 86.4032 127.58C89.1911 122.364 96.891 111.862 92.1386 107.974C90.4035 106.553 89.1533 112.748 84.6594 115.422C84.6594 115.422 82.0095 108.608 81.0149 103.195C80.1393 98.4339 77.4488 89.536 76.171 85.4254C75.8211 84.3001 74.1832 84.3393 73.9291 85.4907C73.5167 87.3522 73.5676 90.747 75.2098 96.9354C75.2098 96.9354 70.5198 82.2237 67.7262 81.945C64.934 81.6662 71.1355 99.9512 71.1355 99.9512C71.1355 99.9512 64.8788 86.5449 62.6587 87.3101C61.3069 87.7747 65.7427 102.77 65.7427 102.77C65.7427 102.77 58.7717 90.6657 58.4392 94.6848C58.3419 95.8551 68.5248 121.078 63.2279 134.641C63.2279 134.641 71.995 137.096 76.4817 134.924Z" fill="#FFA681"/>
<path d="M227.979 395.4L228.226 396.496C204.098 412.833 113.845 401.678 113.845 401.678C114 399.785 114.2 397.804 114.465 395.757C114.746 393.473 115.096 391.109 115.497 388.665C116.588 382.095 118.05 374.992 119.692 367.681C120.22 365.38 120.748 363.045 121.304 360.698C122.933 353.722 124.666 346.646 126.307 339.755C126.875 337.385 127.433 335.049 127.971 332.726C128.723 329.501 129.435 326.328 130.117 323.253C131.006 319.161 131.799 315.231 132.464 311.529C132.911 309.039 133.302 306.652 133.599 304.386C133.943 301.987 134.179 299.72 134.322 297.621C132.888 292.319 131.55 287.126 130.306 282.089C129.686 279.524 129.078 277.017 128.481 274.537C126.627 266.602 124.998 259.05 123.575 251.976C123.069 249.406 122.57 246.904 122.117 244.464C120.538 236.121 119.265 228.571 118.238 221.983C117.842 219.355 117.469 216.905 117.142 214.592C116.781 212.062 116.471 209.721 116.201 207.598C114.99 198.256 114.572 192.961 114.572 192.961C114.784 192.789 115.008 192.634 115.237 192.467C117.974 190.521 122.255 188.692 127.011 187.067C132.032 185.345 137.586 183.848 142.481 182.666C143.222 182.489 143.95 182.316 144.662 182.149C151.094 180.646 155.903 179.773 155.903 179.773C177.788 184.359 184.032 181.408 184.032 181.408L195.158 184.69L196.466 185.149L204.574 187.995L204.901 188.115L219.441 193.233L229.138 196.636L225.374 213.993L223.734 221.572L218.776 244.421L217.147 251.973L212.212 274.742L210.589 282.218L206.503 301.084L207.317 304.688L208.913 311.682L211.444 322.803L213.745 332.861L215.329 339.832L220.092 360.804L221.682 367.736L226.404 388.468L227.979 395.4Z" fill="#20355D"/>
<path d="M196.465 185.149C194.136 198.828 187.503 212.59 173.715 214.076C157.058 215.877 148.421 194.983 144.664 182.147C151.096 180.645 157.762 179.175 157.762 179.175C179.647 183.759 183.869 180.967 183.869 180.967L195.157 184.69L196.465 185.149Z" fill="#FFA681"/>
<path d="M172.022 202.584C154.564 202.584 150.39 181.024 150.349 180.801C150.264 180.334 150.573 179.885 151.039 179.8C151.508 179.715 151.955 180.022 152.042 180.489C152.202 181.355 156.162 201.7 173.037 200.838C187.805 200.091 188.673 183.701 188.704 183.003C188.724 182.528 189.119 182.156 189.6 182.179C190.074 182.2 190.443 182.6 190.423 183.074C190.416 183.26 189.468 201.729 173.124 202.555C172.751 202.576 172.383 202.584 172.022 202.584Z" fill="white"/>
<path d="M140.705 196.64C140.705 198.994 138.797 200.901 136.444 200.901C134.09 200.901 132.182 198.994 132.182 196.64C132.182 194.286 134.09 192.378 136.444 192.378C138.797 192.378 140.705 194.286 140.705 196.64Z" fill="#23427D"/>
<path d="M132.17 217.431C132.17 219.785 130.262 221.693 127.909 221.693C125.555 221.693 123.647 219.785 123.647 217.431C123.647 215.077 125.555 213.169 127.909 213.169C130.261 213.171 132.17 215.079 132.17 217.431Z" fill="#23427D"/>
<path d="M159.378 227.261C159.378 229.615 157.47 231.523 155.117 231.523C152.763 231.523 150.855 229.615 150.855 227.261C150.855 224.907 152.763 223 155.117 223C157.472 223 159.378 224.909 159.378 227.261Z" fill="#23427D"/>
<path d="M140.4 238.886C141.273 241.071 140.21 243.551 138.024 244.424C135.838 245.296 133.358 244.232 132.486 242.047C131.613 239.862 132.677 237.382 134.863 236.509C137.048 235.636 139.528 236.701 140.4 238.886Z" fill="#23427D"/>
<path d="M177.341 246.756C177.341 249.109 175.433 251.017 173.079 251.017C170.725 251.017 168.817 249.109 168.817 246.756C168.817 244.402 170.725 242.494 173.079 242.494C175.433 242.494 177.341 244.402 177.341 246.756Z" fill="#23427D"/>
<path d="M204.519 255.537C204.519 257.891 202.611 259.799 200.258 259.799C197.904 259.799 195.996 257.891 195.996 255.537C195.996 253.184 197.904 251.276 200.258 251.276C202.611 251.276 204.519 253.184 204.519 255.537Z" fill="#23427D"/>
<path d="M209.988 200.9C209.988 203.254 208.08 205.162 205.726 205.162C203.372 205.162 201.464 203.254 201.464 200.9C201.464 198.546 203.372 196.638 205.726 196.638C208.08 196.64 209.988 198.546 209.988 200.9Z" fill="#23427D"/>
<path d="M179.064 273.968C179.064 276.321 177.156 278.229 174.803 278.229C172.449 278.229 170.541 276.321 170.541 273.968C170.541 271.614 172.449 269.706 174.803 269.706C177.156 269.707 179.064 271.615 179.064 273.968Z" fill="#23427D"/>
<path d="M152.812 287.181C152.812 289.534 150.904 291.442 148.55 291.442C146.196 291.442 144.289 289.534 144.289 287.181C144.289 284.827 146.196 282.919 148.55 282.919C150.904 282.921 152.812 284.829 152.812 287.181Z" fill="#23427D"/>
<path d="M149.754 263.118C149.754 265.472 147.846 267.38 145.493 267.38C143.139 267.38 141.231 265.472 141.231 263.118C141.231 260.765 143.139 258.857 145.493 258.857C147.846 258.857 149.754 260.765 149.754 263.118Z" fill="#23427D"/>
<path d="M191.736 228.376C191.736 230.73 189.828 232.638 187.474 232.638C185.12 232.638 183.212 230.73 183.212 228.376C183.212 226.023 185.12 224.115 187.474 224.115C189.828 224.115 191.736 226.023 191.736 228.376Z" fill="#23427D"/>
<path d="M215.296 222.999C215.296 225.353 213.388 227.261 211.035 227.261C208.681 227.261 206.773 225.353 206.773 222.999C206.773 220.646 208.681 218.738 211.035 218.738C213.388 218.738 215.296 220.647 215.296 222.999Z" fill="#23427D"/>
<path d="M200.258 281.019C200.258 283.372 198.35 285.28 195.996 285.28C193.642 285.28 191.734 283.372 191.734 281.019C191.734 278.665 193.642 276.757 195.996 276.757C198.35 276.757 200.258 278.665 200.258 281.019Z" fill="#23427D"/>
<path d="M201.4 314.734C201.4 317.088 199.492 318.996 197.139 318.996C194.785 318.996 192.877 317.088 192.877 314.734C192.877 312.38 194.785 310.472 197.139 310.472C199.494 310.472 201.4 312.38 201.4 314.734Z" fill="#23427D"/>
<path d="M179.711 300.667C180.583 302.852 179.52 305.332 177.334 306.205C175.148 307.078 172.668 306.013 171.796 303.828C170.923 301.643 171.987 299.163 174.173 298.29C176.359 297.417 178.838 298.482 179.711 300.667Z" fill="#23427D"/>
<path d="M150.701 313.154C151.573 315.339 150.509 317.819 148.324 318.692C146.139 319.565 143.659 318.5 142.786 316.315C141.913 314.13 142.978 311.65 145.163 310.777C147.348 309.905 149.828 310.967 150.701 313.154Z" fill="#23427D"/>
<path d="M237.008 449.141L236.125 443.831L232.687 423.236L231.508 416.181L228.225 396.496L222.257 396.765L143.136 400.353L113.846 401.675L111.963 416.985L111.082 424.118L108.481 445.267L108.003 449.141H237.008Z" fill="#20355D"/>
<path d="M237.003 449.141L236.196 444.342L236.129 443.839L235.559 440.448L234.988 437.091L232.672 423.227L232.001 419.133L231.497 416.179L231.431 415.742L228.442 397.783L228.241 396.506L227.972 395.398L227.737 394.424L226.394 388.482L223.742 376.868L222.97 373.544L221.66 367.736L220.082 360.787L219.007 356.02L218.235 352.696L215.315 339.839L214.24 335.139L213.737 332.856L213.501 331.815L211.454 322.785C179.295 332.286 145.222 326.646 130.116 323.256C129.445 326.311 128.706 329.499 127.967 332.723C127.798 333.428 127.631 334.133 127.463 334.837C127.194 335.945 126.926 337.053 126.657 338.161C126.557 338.698 126.422 339.202 126.288 339.739C125.047 345.01 123.737 350.381 122.461 355.718C122.192 356.826 121.957 357.934 121.688 359.008C121.553 359.579 121.42 360.116 121.286 360.687C120.749 363.036 120.212 365.387 119.675 367.67C119.004 370.725 118.365 373.711 117.761 376.666C117.526 377.774 117.29 378.848 117.09 379.923C116.486 382.911 115.949 385.831 115.478 388.651C115.075 391.102 114.739 393.451 114.471 395.767C114.37 396.471 114.302 397.177 114.202 397.848C114.102 398.989 113.967 400.097 113.867 401.205C113.867 401.373 113.833 401.507 113.833 401.675L111.953 416.982L111.651 419.365L111.249 422.689L111.08 424.099L108.999 440.849L108.596 444.206L108.462 445.28L107.998 449.138H237.003V449.141Z" fill="#23427D"/>
<path d="M198.087 127.898C198.087 127.898 203.319 121.271 207.209 126.751C211.099 132.231 205.598 148.418 196.076 144.467L198.087 127.898Z" fill="#F97853"/>
<path d="M198.154 139.465C198.505 139.465 198.829 139.244 198.928 138.905C200.403 133.909 205.852 131.882 205.908 131.863C206.321 131.712 206.53 131.271 206.374 130.877C206.217 130.482 205.752 130.284 205.337 130.433C205.083 130.525 199.077 132.739 197.378 138.493C197.258 138.9 197.508 139.321 197.936 139.435C198.009 139.456 198.083 139.465 198.154 139.465Z" fill="#EA5143"/>
<path d="M203.654 136.947C203.804 136.947 203.955 136.908 204.09 136.825C204.463 136.595 204.57 136.123 204.331 135.768C204.291 135.708 203.327 134.311 201.311 133.453C200.907 133.28 200.429 133.453 200.248 133.839C200.066 134.224 200.248 134.677 200.654 134.85C202.214 135.514 202.972 136.585 202.979 136.595C203.131 136.823 203.39 136.947 203.654 136.947Z" fill="#EA5143"/>
<path d="M195.732 144.362C194.832 145.364 194.278 146.684 194.278 148.131C194.278 151.258 196.822 153.802 199.948 153.802C203.075 153.802 205.619 151.258 205.619 148.131C205.619 146.33 204.775 144.725 203.461 143.688C202.802 143.167 202.026 142.79 201.178 142.601C201.036 142.217 201.106 141.859 201.382 141.528C202.466 141.764 203.452 142.26 204.275 142.948C205.764 144.185 206.71 146.052 206.71 148.134C206.71 151.865 203.679 154.896 199.948 154.896C196.221 154.896 193.187 151.865 193.187 148.134C193.187 146.527 193.757 145.058 194.698 143.899C195.042 144.051 195.386 144.207 195.732 144.362Z" fill="white"/>
<path d="M157.762 161.757V181.613C157.762 181.613 166.991 188.734 174.191 189.352C181.384 189.98 183.87 181.491 183.87 181.491V163.012L157.762 161.757Z" fill="#FFA681"/>
<path d="M157.762 163.703V171.623C162.593 176.984 171.169 178.885 183.867 177.01L183.87 164.957L157.762 163.703Z" fill="#F97853"/>
<path d="M201.231 135.447C201.001 137.363 200.73 139.315 200.385 141.258C198.104 154.17 189.937 168.117 179.623 170.457C157.354 175.512 148.106 158.021 144.546 145.117C144.152 143.684 144.89 142.042 144.579 140.344C143.842 136.324 142.217 131.756 141.848 127.25C141.594 124.128 141.414 121.049 141.282 118.267C140.92 110.42 145.465 103.208 152.57 100.393C162.806 96.3212 178.351 93.0963 193.076 101.733C198.515 104.923 201.928 110.827 202.051 117.291C202.141 122.229 202.018 128.685 201.231 135.447Z" fill="#FFA681"/>
<path d="M172.989 145.438C172.574 145.438 172.208 145.139 172.137 144.716C172.058 144.244 172.375 143.799 172.847 143.72L175.817 143.221L171.724 132.321C171.556 131.873 171.782 131.375 172.229 131.207C172.677 131.041 173.176 131.265 173.343 131.712L178.174 144.578L173.133 145.425C173.085 145.434 173.037 145.438 172.989 145.438Z" fill="#F97853"/>
<path d="M183.645 131.015C183.645 132.92 184.627 134.465 185.839 134.465C187.05 134.465 188.033 132.92 188.033 131.015C188.033 129.11 187.051 127.565 185.839 127.565C184.627 127.565 183.645 129.11 183.645 131.015Z" fill="#23427D"/>
<path d="M159.398 131.015C159.398 132.92 160.38 134.465 161.592 134.465C162.805 134.465 163.786 132.92 163.786 131.015C163.786 129.11 162.805 127.565 161.592 127.565C160.38 127.565 159.398 129.11 159.398 131.015Z" fill="#23427D"/>
<path d="M192.288 121.966C190.524 121.622 186.957 121.055 183.159 121.19C182.16 121.224 181.359 121.978 181.496 122.774L181.499 122.794C181.61 123.429 182.291 123.857 183.089 123.796C185.678 123.601 192.45 123.644 195.603 124.582C195.69 124.126 195.385 123.641 194.941 123.217C194.265 122.572 193.319 122.167 192.288 121.966Z" fill="#23427D"/>
<path d="M157.021 122.382C158.78 122.014 162.338 121.397 166.138 121.479C167.139 121.5 167.949 122.242 167.823 123.039L167.82 123.06C167.718 123.697 167.044 124.133 166.244 124.083C163.652 123.924 156.883 124.059 153.744 125.04C153.65 124.584 153.949 124.097 154.389 123.665C155.051 123.015 155.993 122.597 157.021 122.382Z" fill="#23427D"/>
<path d="M183.645 150.587C183.005 153.62 180.873 159.199 173.695 159.199C166.498 159.199 164.48 154.101 163.786 150.587H183.645Z" fill="white"/>
<path d="M173.796 164.411C175.868 164.411 177.696 163.296 177.775 163.248C178.172 163.001 178.296 162.48 178.05 162.081C177.805 161.683 177.284 161.56 176.884 161.804C176.87 161.812 175.377 162.715 173.798 162.715C172.087 162.715 170.555 161.809 170.541 161.801C170.138 161.56 169.619 161.689 169.378 162.09C169.137 162.49 169.264 163.01 169.664 163.253C169.741 163.301 171.601 164.411 173.796 164.411Z" fill="#F97853"/>
<path d="M202.131 133.42C201.923 133.594 201.723 133.533 201.535 133.193C198.594 128.008 201.358 117.663 192.653 113.696C186.024 110.671 183.644 104.467 183.644 104.467C182.128 107.062 178.178 109.442 178.178 109.442C178.178 109.442 168.165 115.374 157.76 119.383C154.668 120.575 152.465 121.785 150.923 122.823C151.043 122.857 151.107 122.875 151.107 122.875C151.107 122.875 148.227 127.555 150.333 134.831C152.442 142.103 149.729 154.102 145.05 156.871C145.132 156.668 148.643 148.37 146.66 141.6C145.517 137.719 145.527 131.545 144.444 127.844C143.245 127.018 140.471 125.626 139.532 125.066C139.265 121.884 139.072 118.746 138.937 115.91C138.556 107.911 143.345 100.561 150.836 97.6876C161.626 93.5392 178.013 90.2548 193.535 99.0568C199.267 102.308 202.865 108.326 202.997 114.916C203.093 119.945 202.961 126.526 202.131 133.42Z" fill="#23427D"/>
<path d="M144.446 127.844C144.446 127.844 138.363 120.464 134.774 125.785C131.184 131.107 136.484 147.421 145.272 143.585L144.446 127.844Z" fill="#FFA681"/>
<path d="M144.691 143.848C145.32 145.039 145.538 146.453 145.186 147.857C144.428 150.89 141.343 152.74 138.309 151.982C135.276 151.223 133.426 148.139 134.184 145.106C134.621 143.357 135.829 142.006 137.357 141.319C138.122 140.973 138.966 140.795 139.834 140.816C139.985 140.493 140.062 140.141 139.897 139.726C138.787 139.692 137.71 139.933 136.746 140.401C135.002 141.24 133.63 142.822 133.126 144.841C132.221 148.46 134.425 152.138 138.045 153.042C141.661 153.947 145.342 151.743 146.246 148.123C146.637 146.563 146.439 145 145.808 143.646C145.434 143.715 145.063 143.783 144.691 143.848Z" fill="white"/>
<path d="M143.127 138.13C142.802 138.13 142.504 137.915 142.413 137.587C141.051 132.734 136.024 130.767 135.973 130.748C135.591 130.602 135.398 130.173 135.543 129.79C135.689 129.407 136.117 129.213 136.5 129.359C136.736 129.447 142.276 131.598 143.845 137.186C143.955 137.581 143.725 137.991 143.331 138.103C143.262 138.121 143.194 138.13 143.127 138.13Z" fill="#F97853"/>
<path d="M138.053 135.686C137.915 135.686 137.775 135.649 137.652 135.569C137.306 135.347 137.208 134.888 137.43 134.542C137.467 134.486 138.356 133.128 140.218 132.296C140.589 132.128 141.031 132.296 141.199 132.671C141.366 133.045 141.199 133.484 140.824 133.652C139.386 134.295 138.686 135.338 138.68 135.347C138.536 135.566 138.297 135.686 138.053 135.686Z" fill="#F97853"/>
<path d="M466.62 288.098C452.466 298.26 430.321 305.229 430.321 305.229L425.787 288.92L422.25 276.196L419.754 267.229L394.373 267.211C395.748 271.968 397.168 276.827 398.595 281.612C400.426 287.785 402.253 293.829 403.989 299.402C406.439 307.244 408.698 314.142 410.519 319.07C410.944 320.22 411.439 321.471 411.993 322.807C415.384 331.971 418.124 341.91 431.072 335.675C442.47 330.185 457.928 322.575 465.653 317.522L466.62 288.098Z" fill="#FFA681"/>
<path d="M398.592 281.612C400.423 287.783 402.248 293.83 403.986 299.401C414.346 298.303 421.519 293.169 425.786 288.92L422.249 276.198L398.592 281.612Z" fill="#F97853"/>
<path d="M393.203 192.6C393.203 192.6 419.681 255.746 431.069 276.205C431.069 276.205 415.11 289.774 399.565 290.144C399.565 290.144 390.606 220.816 393.203 192.6Z" fill="#20355D"/>
<path d="M331.21 449.186C331.476 444.766 331.727 440.561 331.957 436.661C332.893 420.721 333.497 409.841 333.497 409.841L327.255 409.561L323.735 409.403L281.295 407.518C281.295 407.518 280.523 419.686 279.612 437.554C279.426 441.21 279.233 445.108 279.04 449.185H331.21V449.186Z" fill="#20355D"/>
<path d="M327.254 409.563L333.496 409.843C333.496 409.843 332.893 420.723 331.955 436.663C315.649 438.022 297.847 438.575 279.611 437.556C280.521 419.687 281.294 407.52 281.294 407.52L323.734 409.404L327.254 409.563Z" fill="#23427D"/>
<path d="M325.025 449.186C326.009 432.159 326.818 417.573 327.257 409.564L323.737 409.406C323.297 417.45 322.485 432.102 321.498 449.186H325.025Z" fill="#23427D"/>
<path d="M344.888 449.186H397.058C396.865 445.108 396.674 441.212 396.486 437.556C395.576 419.687 394.803 407.52 394.803 407.52L352.363 409.404L348.845 409.563L342.603 409.843C342.603 409.843 343.205 420.723 344.142 436.663C344.371 440.561 344.622 444.768 344.888 449.186Z" fill="#20355D"/>
<path d="M348.845 409.563L342.601 409.843C342.601 409.843 343.204 420.723 344.142 436.663C360.448 438.022 378.251 438.575 396.486 437.556C395.576 419.687 394.803 407.52 394.803 407.52L352.363 409.404L348.845 409.563Z" fill="#23427D"/>
<path d="M354.599 449.186C353.612 432.102 352.801 417.45 352.36 409.406L348.84 409.564C349.279 417.573 350.086 432.159 351.072 449.186H354.599Z" fill="#23427D"/>
<path d="M272.084 377.259C272.078 378.133 272.084 378.995 272.084 379.845C272.103 395.366 272.18 407.395 272.257 413.3C287.248 417.361 302.239 419.985 317.237 421.197C317.92 421.248 318.59 421.299 319.274 421.35C319.638 421.376 320.001 421.401 320.366 421.42C321.17 421.478 321.98 421.529 322.779 421.566C323.673 421.624 324.56 421.668 325.461 421.713C335.664 422.185 345.866 422 356.076 421.164C358.138 420.991 360.188 420.794 362.25 420.57C362.384 420.557 362.511 420.544 362.646 420.532C363.171 420.474 363.693 420.411 364.223 420.347C364.543 420.309 364.862 420.27 365.174 420.232C377.043 418.815 388.913 416.497 400.789 413.299C400.821 410.617 400.834 406.64 400.834 401.627C400.834 400.695 400.834 399.738 400.828 398.735V398.729C400.822 391.559 400.777 382.634 400.7 372.545C400.695 371.683 400.687 370.815 400.682 369.933C400.623 363.216 400.554 356.022 400.464 348.519C400.451 347.651 400.445 346.783 400.432 345.908C400.336 338.214 400.221 330.221 400.088 322.106C400.005 317.152 399.915 312.152 399.813 307.146C399.712 302.077 399.603 297.001 399.481 291.956C399.455 290.859 399.43 289.76 399.398 288.662C398.236 240.961 396.225 197.118 392.899 192.227C390.595 188.843 385.314 184.866 379.095 180.857C378.335 180.372 377.563 179.879 376.777 179.389C374.127 177.735 352.516 170.392 349.77 168.777L326.926 167.182C326.785 167.264 304.942 174.633 304.803 174.709C303.865 175.245 302.913 175.788 301.975 176.331C293.885 180.997 285.904 185.914 281.307 190.148C280.636 190.761 280.036 191.36 279.525 191.948C279.117 192.415 278.753 192.868 278.459 193.315C278.185 193.717 277.916 194.394 277.661 195.32C274.896 205.363 273.447 244.833 272.725 287.778C272.675 290.856 272.63 293.951 272.585 297.054C272.566 298.415 272.547 299.781 272.527 301.148C272.508 302.086 272.495 303.031 272.489 303.97C272.483 304.442 272.476 304.908 272.47 305.382C272.438 307.718 272.412 310.048 272.393 312.367C272.374 314.085 272.355 315.795 272.335 317.507C272.129 339.135 272.065 360.141 272.084 377.259Z" fill="#23427D"/>
<path d="M231.233 438.592C230.671 444.689 238.097 441.383 235.995 429.028C233.902 416.675 239.852 405.488 242.419 405.846C244.992 406.21 240.293 419.336 242.579 424.068C244.858 428.799 247.807 419.605 250.745 414.03C253.791 408.24 253.611 395.605 252.226 386.589C250.841 377.568 267.186 322.793 267.269 306.921L269.261 300.192L276.553 275.553L287.968 236.971C287.968 236.971 281.129 207.767 269.599 210.276C269.599 210.276 263.495 230.617 256.971 253.558C255.866 257.453 254.75 261.424 253.645 265.383C248.997 282.016 244.629 298.437 242.599 308.18C237.235 333.903 236.822 387.376 236.822 387.376C236.822 387.376 227.359 407.022 227.135 415.763C226.897 425.083 231.788 432.496 231.233 438.592Z" fill="#FFA681"/>
<path d="M253.643 265.38L269.261 300.191L276.553 275.552L256.971 253.557C255.865 257.451 254.748 261.422 253.643 265.38Z" fill="#F97853"/>
<path d="M252.869 255.012C259.72 266.76 266.686 278.444 273.625 290.147C275.911 282.492 278.281 275.144 280.502 268.388C280.508 268.369 280.515 268.356 280.521 268.337C281.408 265.636 282.277 263.031 283.107 260.541C283.12 260.496 283.133 260.451 283.152 260.413C283.44 259.539 283.72 258.677 284.007 257.834V257.829C287.321 247.811 289.888 239.848 290.621 235.208C292.6 222.713 287.206 198.234 279.608 193.406C279.41 193.846 278.811 192.487 278.453 193.318C277.119 196.402 271.193 204.019 268.262 211.437C267.886 212.382 267.502 213.366 267.106 214.367C262.86 225.278 257.669 239.471 252.869 255.012Z" fill="#23427D"/>
<path d="M337.335 190.025C347.227 190.025 354.201 180.999 354.493 180.614C354.91 180.067 354.832 179.262 354.32 178.818C353.809 178.374 353.057 178.456 352.64 179.002C352.55 179.12 346.057 187.471 337.335 187.471C328.716 187.471 323.458 178.021 323.407 177.925C323.075 177.317 322.343 177.11 321.775 177.465C321.206 177.819 321.012 178.599 321.343 179.209C321.582 179.65 327.325 190.025 337.335 190.025Z" fill="#20355D"/>
<path d="M379.161 276.506C379.344 276.506 379.529 276.461 379.704 276.366C380.297 276.045 380.535 275.27 380.234 274.636L375.92 265.518C375.621 264.884 374.897 264.63 374.303 264.952C373.709 265.273 373.472 266.048 373.773 266.683L378.087 275.8C378.297 276.249 378.721 276.506 379.161 276.506Z" fill="#20355D"/>
<path d="M388.152 269.038C388.308 269.141 388.486 269.208 388.682 269.227C389.344 269.289 389.93 268.767 389.988 268.058L390.833 257.879C390.892 257.172 390.403 256.545 389.739 256.483C389.077 256.42 388.492 256.943 388.434 257.651L387.589 267.83C387.547 268.331 387.779 268.788 388.152 269.038Z" fill="#20355D"/>
<path d="M364.974 253.256C365.553 253.256 366.063 252.809 366.16 252.179L367.718 242.098C367.826 241.396 367.383 240.733 366.726 240.617C366.069 240.502 365.45 240.975 365.343 241.678L363.785 251.759C363.677 252.461 364.12 253.124 364.776 253.24C364.843 253.25 364.91 253.256 364.974 253.256Z" fill="#20355D"/>
<path d="M326.217 257.008C326.426 257.008 326.637 256.95 326.83 256.828C327.402 256.467 327.592 255.677 327.252 255.064L322.385 246.272C322.047 245.661 321.308 245.458 320.736 245.821C320.164 246.184 319.973 246.972 320.313 247.585L325.18 256.378C325.404 256.783 325.806 257.008 326.217 257.008Z" fill="#20355D"/>
<path d="M373.83 217.599C374.053 217.599 374.28 217.533 374.482 217.393L382.504 211.844C383.063 211.458 383.223 210.66 382.861 210.064C382.499 209.467 381.755 209.296 381.196 209.682L373.173 215.231C372.614 215.618 372.455 216.415 372.816 217.011C373.048 217.392 373.435 217.599 373.83 217.599Z" fill="#20355D"/>
<path d="M338.093 299.514C338.276 299.514 338.461 299.469 338.636 299.375C339.229 299.054 339.467 298.278 339.166 297.644L334.852 288.527C334.552 287.892 333.829 287.638 333.235 287.959C332.642 288.28 332.404 289.055 332.705 289.69L337.019 298.807C337.229 299.256 337.653 299.514 338.093 299.514Z" fill="#20355D"/>
<path d="M357.047 224.459C357.448 224.459 357.84 224.245 358.069 223.855C358.422 223.252 358.251 222.456 357.688 222.08L349.59 216.659C349.026 216.283 348.283 216.463 347.93 217.067C347.577 217.669 347.749 218.465 348.312 218.841L356.41 224.263C356.609 224.395 356.829 224.459 357.047 224.459Z" fill="#20355D"/>
<path d="M376.308 186.549C376.291 186.797 376.339 187.041 376.446 187.244C376.631 187.622 376.995 187.889 377.425 187.921C378.087 187.971 378.66 187.436 378.708 186.727L379.09 180.86C378.332 180.375 377.561 179.882 376.774 179.392L376.308 186.549Z" fill="#20355D"/>
<path d="M387.104 242.488C387.505 242.488 387.897 242.275 388.126 241.884C388.479 241.282 388.308 240.486 387.744 240.11L379.646 234.688C379.083 234.312 378.34 234.492 377.987 235.096C377.634 235.699 377.805 236.493 378.369 236.871L386.466 242.292C386.664 242.424 386.885 242.488 387.104 242.488Z" fill="#20355D"/>
<path d="M322.523 197.999C322.75 197.999 322.98 197.931 323.184 197.787C323.738 197.395 323.892 196.598 323.526 196.004L318.909 188.509C318.545 187.915 317.797 187.749 317.242 188.141C316.687 188.533 316.533 189.331 316.899 189.926L321.517 197.421C321.748 197.794 322.131 197.999 322.523 197.999Z" fill="#20355D"/>
<path d="M318.384 327.469C318.7 327.469 319.015 327.337 319.252 327.073L325.869 319.701C326.329 319.189 326.313 318.374 325.834 317.882C325.355 317.388 324.592 317.406 324.132 317.92L317.515 325.29C317.054 325.803 317.071 326.617 317.55 327.111C317.784 327.35 318.085 327.469 318.384 327.469Z" fill="#20355D"/>
<path d="M342.697 325.936C343.014 325.936 343.329 325.804 343.565 325.54L350.182 318.168C350.644 317.655 350.626 316.841 350.147 316.349C349.667 315.855 348.906 315.872 348.446 316.385L341.829 323.757C341.369 324.269 341.384 325.084 341.864 325.577C342.097 325.817 342.398 325.936 342.697 325.936Z" fill="#20355D"/>
<path d="M360.178 375.762C360.288 375.445 360.284 375.082 360.136 374.752L356.005 365.538C355.717 364.896 354.999 364.626 354.399 364.934C353.799 365.242 353.547 366.01 353.834 366.652L357.965 375.866C358.252 376.508 358.971 376.778 359.571 376.47C359.864 376.321 360.073 376.061 360.178 375.762Z" fill="#20355D"/>
<path d="M290.403 406.163C290.515 405.847 290.509 405.484 290.361 405.154L286.23 395.94C285.943 395.298 285.224 395.028 284.624 395.336C284.025 395.644 283.772 396.412 284.06 397.054L288.191 406.268C288.478 406.91 289.197 407.18 289.796 406.872C290.09 406.723 290.299 406.464 290.403 406.163Z" fill="#20355D"/>
<path d="M320.366 421.424C321.172 421.481 321.977 421.533 322.778 421.571L323.62 415.831C323.721 415.128 323.273 414.47 322.616 414.363C321.96 414.254 321.344 414.733 321.243 415.436L320.366 421.424Z" fill="#20355D"/>
<path d="M310.756 404.077C311.016 403.884 311.203 403.582 311.255 403.22L312.734 393.125C312.837 392.422 312.388 391.764 311.73 391.654C311.072 391.543 310.458 392.024 310.355 392.727L308.877 402.822C308.774 403.525 309.223 404.183 309.88 404.293C310.2 404.349 310.511 404.261 310.756 404.077Z" fill="#20355D"/>
<path d="M368.849 319.669C369.054 319.669 369.262 319.613 369.452 319.495C370.027 319.139 370.223 318.351 369.89 317.735L365.105 308.893C364.772 308.277 364.036 308.068 363.459 308.424C362.884 308.779 362.687 309.568 363.021 310.183L367.807 319.028C368.029 319.438 368.433 319.669 368.849 319.669Z" fill="#20355D"/>
<path d="M354.795 297.564C355.231 297.564 355.652 297.31 355.867 296.867L360.246 287.786C360.551 287.155 360.319 286.378 359.728 286.051C359.138 285.723 358.412 285.973 358.106 286.606L353.725 295.687C353.42 296.318 353.652 297.095 354.243 297.42C354.421 297.518 354.609 297.564 354.795 297.564Z" fill="#20355D"/>
<path d="M392.855 296.233C392.98 296.392 393.141 296.513 393.308 296.59C393.715 296.768 394.191 296.704 394.55 296.385L399.475 291.961C399.45 290.863 399.427 289.764 399.398 288.666L392.999 294.412C392.492 294.872 392.425 295.682 392.855 296.233Z" fill="#20355D"/>
<path d="M354.858 201.222C355.295 201.222 355.714 200.968 355.929 200.525L360.31 191.445C360.615 190.813 360.383 190.036 359.792 189.709C359.202 189.383 358.476 189.631 358.17 190.264L353.79 199.345C353.486 199.977 353.718 200.753 354.309 201.08C354.483 201.177 354.672 201.222 354.858 201.222Z" fill="#20355D"/>
<path d="M326.783 234.491C326.859 234.491 326.936 234.483 327.013 234.467C327.666 234.332 328.093 233.657 327.967 232.959L326.155 222.927C326.028 222.227 325.397 221.773 324.745 221.906C324.091 222.041 323.664 222.716 323.791 223.415L325.603 233.447C325.713 234.064 326.217 234.491 326.783 234.491Z" fill="#20355D"/>
<path d="M342.414 243.3C342.49 243.3 342.567 243.293 342.644 243.277C343.297 243.142 343.724 242.466 343.598 241.768L341.785 231.736C341.659 231.036 341.027 230.583 340.376 230.715C339.722 230.85 339.295 231.526 339.422 232.224L341.234 242.257C341.344 242.873 341.848 243.3 342.414 243.3Z" fill="#20355D"/>
<path d="M331.216 210.199C331.616 210.199 332.005 209.988 332.234 209.602L337.354 200.976C337.71 200.376 337.544 199.579 336.982 199.198C336.419 198.818 335.677 198.996 335.32 199.595L330.2 208.221C329.844 208.821 330.01 209.618 330.572 209.998C330.772 210.135 330.996 210.199 331.216 210.199Z" fill="#20355D"/>
<path d="M378.183 299.158C378.512 298.782 378.611 298.216 378.39 297.722L374.275 288.501C373.989 287.859 373.27 287.587 372.671 287.894C372.068 288.2 371.816 288.968 372.103 289.61L376.218 298.832C376.504 299.473 377.223 299.745 377.822 299.439C377.963 299.369 378.084 299.273 378.183 299.158Z" fill="#20355D"/>
<path d="M347.21 272.404C347.691 272.404 348.145 272.093 348.331 271.585L351.813 262.07C352.055 261.408 351.751 260.661 351.131 260.402C350.511 260.142 349.812 260.468 349.571 261.132L346.089 270.647C345.847 271.309 346.152 272.055 346.772 272.315C346.915 272.375 347.063 272.404 347.21 272.404Z" fill="#20355D"/>
<path d="M308.955 331.175C309.138 331.175 309.323 331.13 309.499 331.036C310.091 330.715 310.329 329.939 310.029 329.305L305.715 320.188C305.416 319.553 304.691 319.299 304.097 319.62C303.505 319.941 303.267 320.716 303.567 321.351L307.881 330.468C308.092 330.917 308.516 331.175 308.955 331.175Z" fill="#20355D"/>
<path d="M372.357 396.701C372.359 396.895 372.402 397.094 372.492 397.28C372.797 397.912 373.525 398.159 374.116 397.83L382.598 393.13C383.188 392.805 383.42 392.027 383.114 391.395C382.809 390.764 382.082 390.518 381.491 390.845L373.008 395.545C372.59 395.774 372.353 396.23 372.357 396.701Z" fill="#20355D"/>
<path d="M395.386 402.545C395.386 402.743 395.428 402.942 395.518 403.126C395.823 403.758 396.55 404 397.141 403.675L400.831 401.632C400.831 400.7 400.831 399.741 400.825 398.739L396.038 401.389C395.62 401.619 395.38 402.078 395.386 402.545Z" fill="#20355D"/>
<path d="M359.742 413.908L362.643 420.535C363.169 420.479 363.695 420.415 364.225 420.35C364.541 420.312 364.858 420.273 365.174 420.235L361.92 412.815C361.64 412.17 360.924 411.889 360.32 412.195C359.719 412.499 359.456 413.264 359.742 413.908Z" fill="#20355D"/>
<path d="M293.3 307.924C293.879 307.924 294.389 307.477 294.486 306.847L296.044 296.765C296.153 296.064 295.709 295.401 295.053 295.284C294.395 295.17 293.778 295.643 293.669 296.346L292.111 306.427C292.003 307.128 292.446 307.792 293.103 307.908C293.168 307.918 293.235 307.924 293.3 307.924Z" fill="#20355D"/>
<path d="M292.306 233.538C292.515 233.538 292.725 233.48 292.917 233.358C293.489 232.997 293.679 232.207 293.34 231.594L288.473 222.802C288.134 222.191 287.395 221.987 286.825 222.35C286.252 222.713 286.062 223.502 286.402 224.115L291.269 232.906C291.494 233.313 291.895 233.538 292.306 233.538Z" fill="#20355D"/>
<path d="M307.954 269.276C308.177 269.276 308.404 269.209 308.606 269.07L316.628 263.52C317.187 263.134 317.347 262.337 316.985 261.74C316.623 261.144 315.879 260.972 315.321 261.358L307.299 266.908C306.74 267.294 306.58 268.091 306.942 268.688C307.172 269.069 307.559 269.276 307.954 269.276Z" fill="#20355D"/>
<path d="M392.894 329.215C393.077 329.215 393.262 329.17 393.437 329.075C394.03 328.754 394.268 327.979 393.967 327.345L389.653 318.227C389.353 317.593 388.63 317.339 388.036 317.661C387.442 317.982 387.205 318.757 387.506 319.391L391.82 328.508C392.032 328.958 392.454 329.215 392.894 329.215Z" fill="#20355D"/>
<path d="M294.286 283.125C294.687 283.125 295.079 282.912 295.308 282.521C295.661 281.919 295.49 281.123 294.926 280.747L286.828 275.325C286.265 274.949 285.522 275.129 285.169 275.733C284.816 276.336 284.987 277.13 285.551 277.508L293.649 282.929C293.846 283.061 294.068 283.125 294.286 283.125Z" fill="#20355D"/>
<path d="M313.699 296.022C313.994 296.312 314.418 296.44 314.833 296.32C315.475 296.132 315.854 295.425 315.68 294.74L313.172 284.879C312.997 284.194 312.337 283.787 311.694 283.975C311.052 284.162 310.673 284.869 310.848 285.555L313.355 295.415C313.418 295.656 313.54 295.864 313.699 296.022Z" fill="#20355D"/>
<path d="M279.522 191.95L281.617 195.346C281.85 195.716 282.231 195.921 282.626 195.921C282.853 195.921 283.079 195.857 283.283 195.711C283.837 195.322 283.993 194.523 283.628 193.929L281.301 190.149C280.633 190.762 280.035 191.362 279.522 191.95Z" fill="#20355D"/>
<path d="M270.364 214.367L272.592 217.981C272.824 218.357 273.206 218.562 273.601 218.562C273.827 218.562 274.055 218.492 274.263 218.352C274.818 217.955 274.967 217.158 274.603 216.564L271.445 211.437C271.093 212.381 270.735 213.364 270.364 214.367Z" fill="#20355D"/>
<path d="M374.494 361.048C374.811 361.048 375.126 360.916 375.363 360.652L381.979 353.282C382.44 352.769 382.424 351.955 381.945 351.461C381.465 350.967 380.703 350.985 380.243 351.499L373.626 358.869C373.166 359.381 373.182 360.196 373.661 360.69C373.893 360.929 374.194 361.048 374.494 361.048Z" fill="#20355D"/>
<path d="M330.469 386.817C330.785 386.817 331.1 386.685 331.337 386.421L337.954 379.049C338.414 378.536 338.398 377.722 337.919 377.228C337.44 376.734 336.677 376.752 336.217 377.266L329.6 384.636C329.14 385.149 329.156 385.963 329.635 386.457C329.869 386.698 330.169 386.817 330.469 386.817Z" fill="#20355D"/>
<path d="M318.232 376.582C318.431 376.319 318.534 375.973 318.491 375.61L317.297 365.473C317.215 364.767 316.612 364.267 315.953 364.356C315.292 364.445 314.825 365.088 314.909 365.795L316.102 375.933C316.185 376.638 316.788 377.138 317.447 377.049C317.769 377.006 318.044 376.83 318.232 376.582Z" fill="#20355D"/>
<path d="M343.308 405.156C343.625 405.156 343.94 405.024 344.177 404.759L350.794 397.389C351.254 396.877 351.238 396.062 350.759 395.57C350.28 395.076 349.517 395.093 349.057 395.607L342.44 402.979C341.978 403.492 341.996 404.306 342.475 404.799C342.709 405.037 343.009 405.156 343.308 405.156Z" fill="#20355D"/>
<path d="M272.084 377.261C272.078 378.136 272.084 378.998 272.084 379.847L279.551 380.518C280.213 380.582 280.799 380.052 280.852 379.344C280.912 378.635 280.417 378.015 279.753 377.951L272.084 377.261Z" fill="#20355D"/>
<path d="M359.549 345.548C359.866 345.548 360.181 345.415 360.417 345.152L367.034 337.78C367.494 337.268 367.478 336.453 366.999 335.959C366.519 335.466 365.758 335.483 365.298 335.997L358.681 343.367C358.221 343.88 358.237 344.696 358.716 345.188C358.949 345.429 359.249 345.548 359.549 345.548Z" fill="#20355D"/>
<path d="M327.716 342.345C327.736 342.682 327.881 343.01 328.143 343.245L335.455 349.822C335.963 350.279 336.722 350.209 337.151 349.665C337.579 349.119 337.514 348.309 337.004 347.851L329.692 341.275C329.184 340.818 328.424 340.887 327.996 341.432C327.787 341.696 327.695 342.024 327.716 342.345Z" fill="#20355D"/>
<path d="M292.875 378.517C293.079 378.517 293.287 378.462 293.476 378.345C294.051 377.989 294.248 377.2 293.914 376.585L289.128 367.741C288.796 367.125 288.06 366.916 287.483 367.272C286.908 367.627 286.711 368.416 287.045 369.032L291.831 377.876C292.054 378.288 292.459 378.517 292.875 378.517Z" fill="#20355D"/>
<path d="M284.59 352.232C285.027 352.232 285.446 351.978 285.661 351.535L290.042 342.454C290.347 341.822 290.114 341.046 289.523 340.72C288.934 340.392 288.208 340.642 287.902 341.274L283.521 350.354C283.216 350.986 283.448 351.763 284.039 352.09C284.215 352.185 284.404 352.232 284.59 352.232Z" fill="#20355D"/>
<path d="M297.655 249.128C298.09 249.128 298.511 248.874 298.726 248.431L303.105 239.351C303.41 238.719 303.178 237.942 302.587 237.615C301.997 237.289 301.271 237.537 300.965 238.17L296.586 247.251C296.281 247.882 296.513 248.659 297.104 248.986C297.28 249.082 297.469 249.128 297.655 249.128Z" fill="#20355D"/>
<path d="M292.872 211.02C292.947 211.02 293.024 211.013 293.101 210.997C293.754 210.862 294.181 210.187 294.055 209.489L292.243 199.457C292.117 198.758 291.485 198.302 290.833 198.436C290.18 198.571 289.753 199.246 289.879 199.945L291.691 209.977C291.803 210.594 292.307 211.02 292.872 211.02Z" fill="#20355D"/>
<path d="M270.871 245.641C270.947 245.641 271.024 245.633 271.101 245.617C271.754 245.482 272.181 244.807 272.055 244.109L270.242 234.077C270.116 233.378 269.485 232.922 268.833 233.056C268.179 233.191 267.752 233.866 267.879 234.565L269.691 244.597C269.802 245.214 270.306 245.641 270.871 245.641Z" fill="#20355D"/>
<path d="M308.502 219.83C308.578 219.83 308.655 219.823 308.732 219.807C309.385 219.671 309.812 218.996 309.686 218.298L307.874 208.266C307.747 207.566 307.116 207.113 306.464 207.245C305.811 207.38 305.384 208.055 305.51 208.754L307.322 218.786C307.432 219.401 307.938 219.83 308.502 219.83Z" fill="#20355D"/>
<path d="M301.33 184.882C301.562 184.938 301.79 184.919 301.998 184.844C302.374 184.703 302.679 184.365 302.775 183.925L304.799 174.712C303.862 175.248 302.912 175.791 301.969 176.334L300.434 183.331C300.279 184.026 300.678 184.716 301.33 184.882Z" fill="#20355D"/>
<path d="M273.787 261.152C274.185 261.152 274.575 260.942 274.805 260.555L279.924 251.929C280.28 251.328 280.115 250.532 279.554 250.152C278.991 249.771 278.249 249.95 277.892 250.548L272.772 259.175C272.416 259.776 272.582 260.571 273.142 260.952C273.343 261.087 273.566 261.152 273.787 261.152Z" fill="#20355D"/>
<path d="M307.978 353.828C308.308 353.452 308.405 352.885 308.186 352.392L304.073 343.17C303.787 342.528 303.068 342.257 302.468 342.563C301.866 342.869 301.613 343.639 301.9 344.279L306.014 353.501C306.3 354.143 307.019 354.416 307.618 354.108C307.758 354.037 307.878 353.941 307.978 353.828Z" fill="#20355D"/>
<path d="M392.659 371.157L400.7 372.55C400.695 371.687 400.689 370.819 400.676 369.939L393.047 368.61C392.391 368.501 391.769 368.975 391.667 369.676C391.56 370.377 392.001 371.042 392.659 371.157Z" fill="#20355D"/>
<path d="M395.106 347.597L400.461 348.523C400.449 347.655 400.443 346.787 400.43 345.913L395.493 345.058C394.837 344.943 394.221 345.422 394.114 346.123C394.008 346.825 394.449 347.482 395.106 347.597Z" fill="#20355D"/>
<path d="M277.004 327.072C277.486 327.072 277.941 326.761 278.125 326.253L281.607 316.738C281.85 316.076 281.545 315.329 280.925 315.069C280.305 314.809 279.606 315.136 279.365 315.8L275.883 325.315C275.641 325.977 275.947 326.723 276.566 326.983C276.711 327.043 276.859 327.072 277.004 327.072Z" fill="#20355D"/>
<path d="M272.582 297.053C274.842 287.712 277.682 277.33 280.498 268.386C280.504 268.367 280.511 268.354 280.517 268.335C281.385 265.571 282.253 262.947 283.103 260.54C283.116 260.495 283.129 260.451 283.148 260.412C283.409 259.652 283.678 258.918 283.939 258.203C283.977 258.075 284.003 257.953 284.003 257.833V257.827C284.003 257.399 283.734 256.997 283.307 256.837C282.751 256.639 282.139 256.92 281.941 257.476C279.055 265.341 275.645 276.668 272.721 287.778C272.672 290.853 272.627 293.95 272.582 297.053Z" fill="#20355D"/>
<path d="M307.101 116.713C307.101 116.713 298.718 107.474 301.881 96.7249C305.045 85.9771 313.701 86.0948 313.701 86.0948C313.701 86.0948 318.751 74.6632 327.351 74.2857C335.951 73.9081 344.059 58.6346 351.884 62.7829C359.71 66.9313 351.036 75.9831 351.036 75.9831C351.036 75.9831 364.444 61.8406 368.865 65.9889C373.286 70.1373 362.726 81.2625 362.726 81.2625C362.726 81.2625 373.992 73.3433 377.693 76.3591C381.394 79.3764 368.865 92.3877 368.865 92.3877C368.865 92.3877 376.972 107.002 368.813 113.555L307.101 116.713Z" fill="#23427D"/>
<path d="M365.674 119.806C365.674 119.806 371.034 112.658 375.02 118.569C379.006 124.478 373.371 141.936 363.612 137.674L365.674 119.806Z" fill="#F97853"/>
<path d="M365.743 132.28C366.103 132.28 366.434 132.042 366.537 131.677C368.05 126.288 373.633 124.102 373.69 124.082C374.115 123.919 374.329 123.443 374.168 123.019C374.007 122.594 373.53 122.379 373.106 122.54C372.845 122.639 366.693 125.027 364.95 131.233C364.827 131.672 365.084 132.126 365.522 132.25C365.595 132.27 365.669 132.28 365.743 132.28Z" fill="#EA5143"/>
<path d="M371.379 129.565C371.533 129.565 371.686 129.523 371.824 129.434C372.208 129.187 372.318 128.678 372.071 128.294C372.031 128.23 371.042 126.723 368.976 125.8C368.562 125.612 368.072 125.8 367.887 126.215C367.701 126.63 367.887 127.118 368.302 127.304C369.9 128.018 370.676 129.176 370.685 129.187C370.843 129.433 371.109 129.565 371.379 129.565Z" fill="#EA5143"/>
<path d="M310.428 119.806C310.428 119.806 305.067 112.658 301.081 118.569C297.096 124.478 302.731 141.936 312.49 137.674L310.428 119.806Z" fill="#F97853"/>
<path d="M310.36 132.28C310 132.28 309.668 132.042 309.565 131.677C308.054 126.288 302.469 124.102 302.413 124.082C301.987 123.919 301.774 123.443 301.935 123.019C302.096 122.594 302.573 122.379 302.997 122.54C303.258 122.639 309.411 125.027 311.152 131.233C311.276 131.672 311.02 132.126 310.58 132.25C310.508 132.27 310.434 132.28 310.36 132.28Z" fill="#EA5143"/>
<path d="M304.723 129.565C304.569 129.565 304.415 129.523 304.277 129.434C303.894 129.187 303.783 128.678 304.03 128.294C304.071 128.23 305.058 126.723 307.126 125.8C307.54 125.612 308.029 125.8 308.215 126.215C308.401 126.63 308.215 127.118 307.799 127.304C306.201 128.018 305.424 129.176 305.417 129.187C305.26 129.433 304.994 129.565 304.723 129.565Z" fill="#EA5143"/>
<path d="M324.855 152.482V169.842C324.855 169.842 330.033 178.683 337.033 179.284C344.027 179.894 350.243 171.673 350.243 171.673V153.701L324.855 152.482Z" fill="#FFA681"/>
<path d="M324.855 152.482V160.185C329.552 165.397 337.897 166.7 350.243 164.877V153.703L324.855 152.482Z" fill="#F97853"/>
<path d="M306.555 107.899C306.873 114.645 307.515 123.084 308.805 129.825V129.844C308.805 129.862 308.81 129.883 308.818 129.909C308.818 129.916 308.823 129.916 308.823 129.922C309.141 131.569 309.497 133.118 309.886 134.51C310.12 135.326 310.373 136.182 310.657 137.057C314.772 149.967 324.306 168.651 348.266 160.103C358.355 156.507 363.612 146.086 366.289 134.783C366.445 134.11 366.594 133.442 366.723 132.8C366.813 132.371 366.899 131.958 366.976 131.548L367.092 130.946C367.111 130.843 367.124 130.771 367.131 130.725C367.139 130.699 367.139 130.686 367.139 130.686C368.72 121.995 368.959 113.207 368.843 106.927C368.72 100.523 365.221 94.6645 359.648 91.5093C344.554 82.9483 328.617 86.1427 318.125 90.1749C310.839 92.9685 306.179 100.117 306.555 107.899Z" fill="#FFA681"/>
<path d="M308.797 129.825C308.797 129.825 308.797 129.83 308.803 129.844C308.803 129.862 308.809 129.883 308.816 129.909C308.816 129.916 308.822 129.916 308.822 129.922C308.977 130.485 309.82 133.577 310.656 137.057C314.771 149.967 324.305 168.651 348.264 160.103C358.354 156.507 363.61 146.086 366.288 134.783C366.443 134.11 366.593 133.442 366.722 132.8C366.812 132.371 366.898 131.958 366.975 131.548L367.091 130.946C367.11 130.843 367.123 130.771 367.13 130.725C367.137 130.699 367.137 130.686 367.137 130.686L363.612 129.973C362.938 133.311 361.447 136.453 359.619 139.247C356.638 132.104 341.511 136.849 341.511 136.849L341.44 136.876C340.519 137.16 339.574 137.31 338.62 137.31C337.641 137.31 336.669 137.154 335.723 136.849C335.723 136.849 320.778 131.898 317.681 138.709C314.584 133.914 312.483 129.565 312.483 129.565L308.802 129.825H308.797ZM338.584 140.084C355.687 137.777 352.998 146.986 352.998 146.986C351.098 148.717 349.362 149.98 348.196 150.635C344.463 152.715 340.788 153.505 338.125 153.376C335.5 153.266 334.781 153.804 328.144 150.214C326.971 149.585 325.784 148.651 324.624 147.543C324.624 147.543 324.624 147.543 324.618 147.543V147.538C324.332 145.736 321.436 137.135 338.584 140.084Z" fill="#23427D"/>
<path d="M323.086 120.453C323.086 122.306 324.042 123.809 325.219 123.809C326.397 123.809 327.352 122.306 327.352 120.453C327.352 118.601 326.397 117.098 325.219 117.098C324.04 117.098 323.086 118.601 323.086 120.453Z" fill="#23427D"/>
<path d="M349.752 120.453C349.752 122.306 350.708 123.809 351.885 123.809C353.064 123.809 354.018 122.306 354.018 120.453C354.018 118.601 353.063 117.098 351.885 117.098C350.708 117.098 349.752 118.601 349.752 120.453Z" fill="#23427D"/>
<path d="M317.624 109.139C317.624 109.139 326.439 105.656 333.225 108.588L332.547 112.363C332.547 112.363 322.585 111.521 317.567 113.554C317.117 112.102 317.05 110.632 317.624 109.139Z" fill="#23427D"/>
<path d="M359.537 109.157C359.537 109.157 350.657 105.647 343.821 108.601L344.505 112.404C344.505 112.404 354.539 111.554 359.595 113.604C360.048 112.141 360.114 110.661 359.537 109.157Z" fill="#23427D"/>
<path d="M337.764 135.45C336.373 135.45 334.993 134.908 334.779 134.821C334.358 134.65 334.156 134.168 334.328 133.747C334.499 133.325 334.981 133.122 335.402 133.293C336.147 133.596 337.936 134.07 338.71 133.606C338.859 133.516 339.064 133.338 339.115 132.838C339.413 129.957 338.624 120.304 338.617 120.207C338.579 119.752 338.917 119.354 339.372 119.317C339.828 119.279 340.224 119.617 340.262 120.07C340.295 120.474 341.071 129.974 340.757 133.006C340.639 134.147 340.04 134.731 339.558 135.02C339.031 135.339 338.396 135.45 337.764 135.45Z" fill="#F97853"/>
<path d="M348.279 141.733C347.653 144.883 345.571 150.678 338.56 150.678C331.533 150.678 329.562 145.383 328.886 141.733H348.279Z" fill="white"/>
<path d="M306.552 107.897C306.875 114.643 307.518 123.08 308.805 129.826L312.491 129.565C312.491 129.565 311.598 123.869 311.186 120.157C310.773 116.446 310.074 109.508 313.24 108.643C316.398 107.786 314.546 99.8713 318.941 96.4403C323.336 93.0019 333.169 92.0581 339.652 96.0497C346.134 100.033 353.439 95.7477 356.426 96.4403C359.42 97.1256 363.477 101.248 362.38 105.1C361.275 108.943 364.574 111.286 365.374 115.268C366.175 119.251 363.618 129.973 363.618 129.973L367.139 130.683C368.723 121.99 368.961 113.207 368.846 106.931C368.723 100.523 365.226 94.6674 359.651 91.5093C344.55 82.9483 328.617 86.1398 318.126 90.1734C310.842 92.97 306.181 100.12 306.552 107.897Z" fill="#23427D"/>
<path d="M458.315 293.664C456.073 314.111 442.724 359.791 433.48 368.738C421.446 380.388 381.843 404.913 361.214 417.488C357.493 419.756 374.973 434.862 374.973 434.862C374.973 434.862 429.746 411.44 450.663 392.974C456.58 387.749 468.595 371.273 482.159 339.888C486.271 330.372 496.236 311.181 495.719 298.668C495.123 284.265 472.243 286.635 458.315 293.664Z" fill="#23427D"/>
<path d="M415.575 411.118C415.575 411.118 400.678 416.775 395.398 422.998C390.119 429.221 383.142 434.501 384.838 436.952C386.535 439.403 394.266 432.237 394.266 432.237C394.266 432.237 396.386 440.114 403.882 440.964C411.381 441.813 425.568 427.145 425.568 427.145L415.575 411.118Z" fill="#FFA681"/>
<path d="M562.625 350.754C562.63 352.047 562.618 353.578 562.595 355.313C562.572 357.041 562.534 358.968 562.482 361.076C562.439 362.521 562.394 364.048 562.342 365.651C562.293 367.002 562.24 368.4 562.184 369.852C562.12 371.334 562.052 372.862 561.976 374.437C560.94 395.851 558.432 425.418 552.917 449.122H437.02C440.885 431.894 446.799 404.722 451.491 369.467C451.687 367.985 451.883 366.488 452.076 364.975C452.269 363.462 452.456 361.936 452.645 360.396C452.747 359.577 452.845 358.751 452.943 357.927C453.023 357.244 453.101 356.565 453.176 355.894C453.391 353.993 453.587 352.123 453.762 350.289C453.908 348.757 454.045 347.253 454.172 345.768C456.16 322.065 455.459 304.301 458.314 293.663C461.64 281.277 500.424 267.078 500.424 267.078L524.724 268.348C524.724 268.348 547.892 275.913 560.276 286.786C572.664 297.663 562.304 330.115 562.606 348.542C562.618 349.177 562.621 349.916 562.625 350.754Z" fill="#20355D"/>
<path d="M562.595 355.313C552.058 356.592 541.065 357.097 530.278 357.097C494.952 357.097 461.79 351.698 453.76 350.291C453.907 348.759 454.043 347.254 454.171 345.769C463.502 347.421 517.496 356.351 562.624 350.755C562.628 352.047 562.618 353.578 562.595 355.313Z" fill="#E0D5F8"/>
<path d="M562.482 361.076C562.439 362.521 562.394 364.048 562.342 365.651C551.88 366.907 540.977 367.401 530.278 367.401C492.957 367.401 458.052 361.374 452.644 360.398C452.745 359.579 452.844 358.753 452.941 357.928C453.021 357.246 453.099 356.566 453.175 355.895C458.547 356.874 515.321 366.891 562.482 361.076Z" fill="#E0D5F8"/>
<path d="M562.184 369.852C562.12 371.334 562.052 372.862 561.976 374.437C551.092 375.821 539.695 376.361 528.521 376.361C492.388 376.361 458.524 370.716 451.491 369.467C451.687 367.985 451.883 366.488 452.076 364.975C460.439 366.466 516.215 375.867 562.184 369.852Z" fill="#E0D5F8"/>
<path d="M507.433 290.39C519.515 290.39 530.661 277.547 531.144 276.983C531.451 276.626 531.409 276.088 531.051 275.781C530.696 275.475 530.157 275.515 529.849 275.873C529.733 276.008 518.059 289.458 506.392 288.647C505.926 288.614 505.515 288.97 505.483 289.439C505.45 289.908 505.804 290.316 506.274 290.348C506.661 290.377 507.048 290.39 507.433 290.39Z" fill="#23427D"/>
<path d="M517.908 434.816C518.335 434.816 518.704 434.495 518.753 434.061C518.807 433.593 518.472 433.171 518.004 433.115C486.795 429.523 473.866 375.5 473.738 374.956C473.632 374.497 473.174 374.212 472.715 374.318C472.256 374.426 471.971 374.883 472.077 375.342C472.607 377.616 485.417 431.081 517.808 434.81C517.843 434.814 517.876 434.816 517.908 434.816Z" fill="#23427D"/>
<path d="M505.48 418.469C505.766 418.469 506.045 418.325 506.206 418.064C506.453 417.663 506.33 417.138 505.929 416.891C489.33 406.656 486.861 391.571 486.838 391.42C486.767 390.955 486.337 390.63 485.868 390.705C485.403 390.775 485.082 391.209 485.152 391.674C485.249 392.323 487.729 407.674 505.034 418.343C505.172 418.429 505.328 418.469 505.48 418.469Z" fill="#23427D"/>
<path d="M515.172 245.112C534.055 245.112 549.362 229.805 549.362 210.922C549.362 192.039 534.055 176.732 515.172 176.732C496.289 176.732 480.982 192.039 480.982 210.922C480.982 229.805 496.289 245.112 515.172 245.112Z" fill="#23427D"/>
<path d="M481.541 204.791C481.541 204.791 471.859 202.118 473.135 192.721C474.222 184.723 483.617 189.908 482.791 183.658C481.965 177.407 480.13 171.724 488.216 170.161C495.289 168.795 495.408 173.642 504.696 166.61C515.669 158.303 524.098 177.539 533.891 178.117C548.336 178.969 550.158 187.138 551.58 193.673C553 200.209 547.44 204.791 547.44 204.791H481.541Z" fill="#23427D"/>
<path d="M486.726 220.489C486.726 220.489 481.31 213.268 477.284 219.239C473.257 225.209 478.951 242.845 488.81 238.54L486.726 220.489Z" fill="#F97853"/>
<path d="M486.656 233.091C486.292 233.091 485.958 232.85 485.855 232.483C484.326 227.038 478.686 224.83 478.63 224.809C478.2 224.645 477.984 224.164 478.148 223.734C478.31 223.304 478.791 223.088 479.221 223.251C479.485 223.351 485.701 225.763 487.461 232.032C487.584 232.475 487.327 232.936 486.883 233.06C486.806 233.081 486.73 233.091 486.656 233.091Z" fill="#EA5143"/>
<path d="M480.962 230.348C480.806 230.348 480.651 230.306 480.512 230.216C480.124 229.966 480.014 229.451 480.262 229.065C480.304 229.001 481.302 227.477 483.39 226.544C483.808 226.355 484.303 226.544 484.49 226.963C484.677 227.383 484.49 227.877 484.07 228.064C482.456 228.787 481.672 229.955 481.665 229.966C481.505 230.214 481.236 230.348 480.962 230.348Z" fill="#EA5143"/>
<path d="M526.006 253.5V271.039C526.006 271.039 518.795 278.768 511.722 279.376C504.657 279.992 500.357 271.598 500.357 271.598V254.733L526.006 253.5Z" fill="#FFA681"/>
<path d="M526.006 253.5V261.281C521.259 266.548 512.83 267.863 500.356 266.022V254.733L526.006 253.5Z" fill="#F97853"/>
<path d="M544.497 208.458C544.172 215.273 543.521 223.797 542.222 230.612C541.897 232.313 541.531 233.913 541.121 235.344C537.43 248.267 528.198 270.429 502.354 261.199C490.94 257.124 485.649 244.409 483.291 231.479C481.691 222.697 481.45 213.824 481.566 207.483C481.691 201.01 485.224 195.095 490.856 191.903C506.112 183.255 522.209 186.479 532.807 190.553C540.164 193.377 544.872 200.601 544.497 208.458Z" fill="#FFA681"/>
<path d="M513.489 220.845V222.229C513.489 225.015 514.575 227.63 516.553 229.593C518.5 231.53 521.074 232.591 523.811 232.591H524.148C526.522 232.541 528.68 231.585 530.572 229.75C532.468 227.899 533.556 225.253 533.556 222.481V220.846C533.556 220.393 533.47 219.96 533.315 219.558C533.133 219.07 532.852 218.638 532.49 218.276C531.831 217.617 530.926 217.21 529.92 217.21H517.128C515.68 217.21 514.432 218.055 513.848 219.282C513.632 219.73 513.505 220.228 513.495 220.75C513.489 220.779 513.489 220.816 513.489 220.845ZM514.998 220.845C514.998 219.669 515.953 218.718 517.125 218.718H529.917C531.095 218.718 532.046 219.669 532.046 220.845V222.48C532.046 224.844 531.125 227.103 529.515 228.667C527.911 230.226 526.094 231.036 524.118 231.081H523.81C521.477 231.081 519.278 230.175 517.613 228.521C515.929 226.846 514.998 224.613 514.998 222.229V220.845Z" fill="#23427D"/>
<path d="M487.876 220.845V222.229C487.876 225.015 488.968 227.63 490.94 229.593C492.887 231.53 495.461 232.591 498.198 232.591H498.539C500.909 232.541 503.071 231.585 504.959 229.75C506.855 227.899 507.947 225.253 507.947 222.481V220.846C507.947 220.822 507.947 220.801 507.941 220.777C507.935 220.284 507.825 219.811 507.635 219.383C507.071 218.1 505.794 217.21 504.31 217.21H491.513C490.392 217.21 489.386 217.723 488.717 218.523C488.394 218.915 488.149 219.374 488.017 219.87C487.921 220.181 487.876 220.508 487.876 220.845ZM489.386 220.845C489.386 219.669 490.341 218.718 491.513 218.718H504.31C505.481 218.718 506.437 219.669 506.437 220.845V222.48C506.437 224.844 505.512 227.103 503.908 228.667C502.303 230.226 500.487 231.036 498.51 231.081H498.198C495.863 231.081 493.667 230.175 492.005 228.521C490.315 226.846 489.385 224.613 489.385 222.229V220.845H489.386Z" fill="#23427D"/>
<path d="M542.672 216.599C538.327 216.412 535.224 217.665 533.997 218.276C533.655 218.442 532.74 219.037 532.701 219.062L533.419 220.342C533.43 220.337 534.43 219.74 534.822 219.558C536.026 218.996 538.697 217.87 542.672 218.103V216.599Z" fill="#23427D"/>
<path d="M514.503 220.901L514.998 219.476C514.909 219.445 512.791 218.716 510.463 218.716C507.986 218.716 506.392 219.477 506.324 219.509L506.983 220.867C506.995 220.861 508.355 220.225 510.463 220.225C512.528 220.226 514.484 220.896 514.503 220.901Z" fill="#23427D"/>
<path d="M482.592 216.962V218.475C485.717 218.734 488.604 220.129 488.646 220.146L489.309 218.793C489.139 218.707 486.041 217.213 482.592 216.962Z" fill="#23427D"/>
<path d="M499.719 222.779C499.719 224.65 498.755 226.169 497.564 226.169C496.373 226.169 495.409 224.652 495.409 222.779C495.409 220.907 496.375 219.388 497.564 219.388C498.753 219.388 499.719 220.906 499.719 222.779Z" fill="#23427D"/>
<path d="M524.955 222.779C524.955 224.65 523.989 226.169 522.8 226.169C521.609 226.169 520.645 224.652 520.645 222.779C520.645 220.907 521.611 219.388 522.8 219.388C523.99 219.388 524.955 220.906 524.955 222.779Z" fill="#23427D"/>
<path d="M490.554 212.368C490.554 212.368 499.524 208.822 506.431 211.807L505.855 215.013C505.855 215.013 498.374 213.344 491.049 216.075C490.591 214.597 489.97 213.888 490.554 212.368Z" fill="#23427D"/>
<path d="M531.605 212.368C531.605 212.368 522.634 208.822 515.726 211.807L516.302 215.013C516.302 215.013 523.783 213.344 531.108 216.075C531.565 214.597 532.188 213.888 531.605 212.368Z" fill="#23427D"/>
<path d="M511.504 236.985C512.91 236.985 514.304 236.438 514.52 236.351C514.946 236.176 515.149 235.691 514.976 235.264C514.803 234.839 514.316 234.634 513.89 234.807C513.138 235.112 511.332 235.591 510.548 235.122C510.397 235.031 510.19 234.852 510.138 234.347C509.838 231.437 510.633 221.685 510.642 221.587C510.68 221.128 510.338 220.726 509.881 220.688C509.421 220.649 509.02 220.991 508.982 221.45C508.949 221.858 508.165 231.456 508.481 234.518C508.6 235.671 509.206 236.261 509.692 236.552C510.227 236.872 510.867 236.985 511.504 236.985Z" fill="#F97853"/>
<path d="M501.176 241.215C501.857 244.64 504.119 250.943 511.745 250.943C519.389 250.943 521.532 245.183 522.268 241.215H501.176Z" fill="white"/>
<path d="M511.642 255.293C513.799 255.293 515.627 254.201 515.704 254.155C516.097 253.917 516.223 253.404 515.984 253.011C515.746 252.616 515.233 252.491 514.84 252.729C514.827 252.738 513.321 253.626 511.641 253.626C510.099 253.626 508.624 252.742 508.609 252.732C508.219 252.491 507.705 252.612 507.464 253.004C507.221 253.394 507.343 253.908 507.735 254.149C507.809 254.197 509.607 255.293 511.642 255.293Z" fill="#F97853"/>
<path d="M485.87 226.047C485.241 222.612 484.618 218.176 485.071 215.904C485.883 211.88 489.214 209.515 488.103 205.636C486.992 201.742 491.093 197.573 494.116 196.882C497.13 196.182 504.185 197.685 511.13 194.388C517.759 191.237 529.28 193.49 531.159 197.745C533.431 202.895 530.339 203.381 536.54 208.951C539.009 211.171 536.078 216.937 535.66 220.686C535.473 222.411 535.445 223.254 535.514 225.106L535.538 226.047H542.959C543.777 220.232 544.244 213.82 544.5 208.455C544.876 200.597 540.161 193.38 532.807 190.553C522.207 186.479 506.116 183.251 490.853 191.902C485.225 195.096 481.688 201.006 481.569 207.48C481.475 212.509 481.608 219.134 482.468 226.046H485.87V226.047Z" fill="#23427D"/>
<path d="M539.669 229.253C539.646 227.312 539.784 225.371 540.122 223.46C540.585 220.846 541.343 218.474 544.019 217.385C546.171 216.508 548.47 216.49 550.104 218.916C554.131 224.887 549.646 243.468 539.787 239.163L539.669 229.253Z" fill="#FFA681"/>
<path d="M541.693 233.753C542.05 233.682 542.33 233.38 542.361 232.999C542.794 227.361 547.893 224.093 547.944 224.059C548.333 223.814 548.45 223.3 548.207 222.911C547.963 222.522 547.449 222.403 547.059 222.647C546.82 222.796 541.196 226.378 540.698 232.872C540.663 233.33 541.006 233.731 541.466 233.766C541.543 233.772 541.62 233.766 541.693 233.753Z" fill="#F97853"/>
<path d="M546.74 229.947C546.893 229.917 547.036 229.844 547.155 229.73C547.487 229.41 547.494 228.882 547.174 228.552C547.121 228.497 545.844 227.199 543.614 226.692C543.168 226.589 542.72 226.871 542.618 227.319C542.515 227.768 542.797 228.214 543.245 228.317C544.97 228.709 545.968 229.702 545.978 229.711C546.183 229.923 546.472 230.001 546.74 229.947Z" fill="#F97853"/>
<path d="M555.348 282.983C543.172 301.439 496.568 365.249 486.053 372.661C472.365 382.311 435.05 396.033 413.626 410.338C406.347 415.199 423.544 428.954 423.544 428.954C423.544 428.954 475.767 414.273 499.286 399.259C505.939 395.012 533.612 367.292 551.255 342.705C557.3 334.282 567.131 322.583 568.554 310.141C570.19 295.82 565.692 288.158 555.348 282.983Z" fill="#23427D"/>
<path d="M462.982 449.122H317.805C315.95 449.122 314.445 447.618 314.445 445.762V434.194C314.445 432.339 315.95 430.834 317.805 430.834H462.982C464.838 430.834 466.342 432.339 466.342 434.194V445.762C466.34 447.618 464.838 449.122 462.982 449.122Z" fill="#20355D"/>
<path d="M314.477 449.122L285.927 342.198C284.324 336.193 288.85 330.299 295.066 330.299H357.891C362.129 330.299 365.851 333.119 366.998 337.201L398.436 449.122H314.477Z" fill="#23427D"/>
<path d="M367 337.202L398.178 448.202H405.357L374.179 337.202C373.025 333.119 369.309 330.296 365.069 330.296H357.891C362.13 330.295 365.846 333.119 367 337.202Z" fill="#20355D"/>
<path d="M350.848 394.498C352.48 401.55 348.087 407.268 341.034 407.268C333.982 407.268 326.941 401.552 325.309 394.498C323.677 387.446 328.071 381.728 335.123 381.728C342.176 381.728 349.216 387.446 350.848 394.498Z" fill="#436FC3"/>
<path d="M545.529 55.3051C540.242 55.3051 535.941 51.0043 535.941 45.7176C535.941 40.4308 540.242 36.13 545.529 36.13C550.816 36.13 555.117 40.4308 555.117 45.7176C555.117 51.0043 550.816 55.3051 545.529 55.3051ZM545.529 39.1357C541.9 39.1357 538.948 42.0876 538.948 45.7161C538.948 49.3447 541.9 52.2966 545.529 52.2966C549.158 52.2966 552.109 49.3447 552.109 45.7161C552.108 42.0876 549.156 39.1357 545.529 39.1357Z" fill="#23427D"/>
<path d="M580.044 88.9421C574.757 88.9421 570.457 84.6413 570.457 79.3546C570.457 74.0678 574.757 69.767 580.044 69.767C585.331 69.767 589.632 74.0678 589.632 79.3546C589.632 84.6413 585.331 88.9421 580.044 88.9421ZM580.044 72.7741C576.416 72.7741 573.464 75.726 573.464 79.3546C573.464 82.9831 576.416 85.935 580.044 85.935C583.673 85.935 586.625 82.9831 586.625 79.3546C586.625 75.726 583.673 72.7741 580.044 72.7741Z" fill="#20355D"/>
<path d="M591.891 120.099C591.06 120.099 590.387 119.425 590.387 118.595V111.962C590.387 111.132 591.06 110.458 591.891 110.458C592.722 110.458 593.395 111.132 593.395 111.962V118.595C593.394 119.425 592.722 120.099 591.891 120.099Z" fill="#23427D"/>
<path d="M591.891 131.705C591.06 131.705 590.387 131.031 590.387 130.201V123.568C590.387 122.737 591.06 122.064 591.891 122.064C592.722 122.064 593.395 122.737 593.395 123.568V130.201C593.394 131.033 592.722 131.705 591.891 131.705Z" fill="#23427D"/>
<path d="M601.2 122.586H595.243C594.412 122.586 593.738 121.913 593.738 121.082C593.738 120.252 594.412 119.578 595.243 119.578H601.2C602.031 119.578 602.704 120.252 602.704 121.082C602.704 121.913 602.031 122.586 601.2 122.586Z" fill="#23427D"/>
<path d="M588.538 122.586H582.581C581.75 122.586 581.077 121.913 581.077 121.082C581.077 120.252 581.75 119.578 582.581 119.578H588.538C589.369 119.578 590.043 120.252 590.043 121.082C590.043 121.913 589.369 122.586 588.538 122.586Z" fill="#23427D"/>
<path d="M538.948 82.9338C538.118 82.9338 537.444 82.26 537.444 81.4295V74.7968C537.444 73.9662 538.118 73.2925 538.948 73.2925C539.779 73.2925 540.452 73.9662 540.452 74.7968V81.4295C540.452 82.26 539.779 82.9338 538.948 82.9338Z" fill="#436FC3"/>
<path d="M538.948 94.5411C538.118 94.5411 537.444 93.8673 537.444 93.0368V86.404C537.444 85.5735 538.118 84.8998 538.948 84.8998C539.779 84.8998 540.452 85.5735 540.452 86.404V93.0368C540.452 93.8673 539.779 94.5411 538.948 94.5411Z" fill="#436FC3"/>
<path d="M548.259 85.4211H542.301C541.471 85.4211 540.797 84.7473 540.797 83.9168C540.797 83.0862 541.471 82.4125 542.301 82.4125H548.259C549.089 82.4125 549.763 83.0862 549.763 83.9168C549.762 84.7473 549.089 85.4211 548.259 85.4211Z" fill="#436FC3"/>
<path d="M535.597 85.4211H529.639C528.809 85.4211 528.135 84.7473 528.135 83.9168C528.135 83.0862 528.809 82.4125 529.639 82.4125H535.597C536.428 82.4125 537.101 83.0862 537.101 83.9168C537.1 84.7473 536.428 85.4211 535.597 85.4211Z" fill="#436FC3"/>
<path d="M100.562 11.2834C100.562 5.99665 104.862 1.69583 110.149 1.69583C115.436 1.69583 119.737 5.99665 119.737 11.2834C119.737 16.5701 115.436 20.8709 110.149 20.8709C104.862 20.8724 100.562 16.5701 100.562 11.2834ZM103.57 11.2834C103.57 14.9119 106.522 17.8638 110.151 17.8638C113.779 17.8638 116.731 14.9119 116.731 11.2834C116.731 7.65484 113.779 4.70292 110.151 4.70292C106.522 4.70292 103.57 7.65484 103.57 11.2834Z" fill="#23427D"/>
<path d="M62.0576 47.8302C62.0576 42.5435 66.3584 38.2412 71.6452 38.2412C76.9319 38.2412 81.2327 42.542 81.2327 47.8302C81.2327 53.1184 76.9319 57.4178 71.6452 57.4178C66.3584 57.4178 62.0576 53.117 62.0576 47.8302ZM65.0647 47.8302C65.0647 51.4588 68.0166 54.4107 71.6452 54.4107C75.2737 54.4107 78.2256 51.4588 78.2256 47.8302C78.2256 44.2017 75.2737 41.2498 71.6452 41.2498C68.0166 41.2498 65.0647 44.2017 65.0647 47.8302Z" fill="#20355D"/>
<path d="M42.1229 61.2845C42.9535 61.2845 43.6272 60.6107 43.6272 59.7802V53.1475C43.6272 52.3169 42.9535 51.6432 42.1229 51.6432C41.2924 51.6432 40.6187 52.3169 40.6187 53.1475V59.7802C40.6187 60.6107 41.2924 61.2845 42.1229 61.2845Z" fill="#23427D"/>
<path d="M42.1229 72.8917C42.9535 72.8917 43.6272 72.218 43.6272 71.3875V64.7547C43.6272 63.9242 42.9535 63.2505 42.1229 63.2505C41.2924 63.2505 40.6187 63.9242 40.6187 64.7547V71.3875C40.6187 72.218 41.2924 72.8917 42.1229 72.8917Z" fill="#23427D"/>
<path d="M32.8143 63.7717H38.7719C39.6024 63.7717 40.2762 63.098 40.2762 62.2675C40.2762 61.4369 39.6024 60.7632 38.7719 60.7632H32.8143C31.9838 60.7632 31.3101 61.4369 31.3101 62.2675C31.3101 63.098 31.9838 63.7717 32.8143 63.7717Z" fill="#23427D"/>
<path d="M45.476 63.7717H51.4335C52.2641 63.7717 52.9378 63.098 52.9378 62.2675C52.9378 61.4369 52.2641 60.7632 51.4335 60.7632H45.476C44.6454 60.7632 43.9717 61.4369 43.9717 62.2675C43.9717 63.098 44.6454 63.7717 45.476 63.7717Z" fill="#23427D"/>
<path d="M76.7777 10.3004C77.6083 10.3004 78.282 9.62665 78.282 8.7961V2.16336C78.282 1.33282 77.6083 0.659088 76.7777 0.659088C75.9472 0.659088 75.2734 1.33282 75.2734 2.16336V8.7961C75.2749 9.62665 75.9486 10.3004 76.7777 10.3004Z" fill="#436FC3"/>
<path d="M76.7777 21.9077C77.6083 21.9077 78.282 21.2339 78.282 20.4034V13.7707C78.282 12.9401 77.6083 12.2664 76.7777 12.2664C75.9472 12.2664 75.2734 12.9401 75.2734 13.7707V20.4034C75.2749 21.2339 75.9486 21.9077 76.7777 21.9077Z" fill="#436FC3"/>
<path d="M67.4691 12.7876H73.4267C74.2572 12.7876 74.9309 12.1139 74.9309 11.2834C74.9309 10.4528 74.2572 9.77908 73.4267 9.77908H67.4691C66.6386 9.77908 65.9648 10.4528 65.9648 11.2834C65.9648 12.1139 66.6386 12.7876 67.4691 12.7876Z" fill="#436FC3"/>
<path d="M80.1307 12.7876H86.0883C86.9188 12.7876 87.5926 12.1139 87.5926 11.2834C87.5926 10.4528 86.9188 9.77908 86.0883 9.77908H80.1307C79.3002 9.77908 78.6265 10.4528 78.6265 11.2834C78.6265 12.1139 79.3002 12.7876 80.1307 12.7876Z" fill="#436FC3"/>
<path d="M470.435 21.4633V50.6587C470.435 54.5181 467.305 57.6486 463.445 57.6486H410.434L394.43 63.3898C392.787 63.9808 391.214 62.3647 391.844 60.7385L397.898 45.1048V21.4619C397.898 17.6025 401.028 14.472 404.891 14.472H463.444C467.303 14.472 470.435 17.6039 470.435 21.4633Z" fill="#20355D"/>
<g opacity="0.5">
<path d="M459.259 29.7223H410.627C409.562 29.7223 408.698 28.8584 408.698 27.7926C408.698 26.7268 409.562 25.8643 410.627 25.8643H459.259C460.325 25.8643 461.189 26.7283 461.189 27.7926C461.189 28.8598 460.325 29.7223 459.259 29.7223Z" fill="#E0D5F8"/>
<path d="M459.259 37.492H410.627C409.562 37.492 408.698 36.628 408.698 35.5623C408.698 34.4965 409.562 33.634 410.627 33.634H459.259C460.325 33.634 461.189 34.4979 461.189 35.5623C461.189 36.628 460.325 37.492 459.259 37.492Z" fill="#E0D5F8"/>
<path d="M459.259 45.2602H410.627C409.562 45.2602 408.698 44.3962 408.698 43.3319C408.698 42.2661 409.562 41.4022 410.627 41.4022H459.259C460.325 41.4022 461.189 42.2661 461.189 43.3319C461.189 44.3962 460.325 45.2602 459.259 45.2602Z" fill="#E0D5F8"/>
</g>
<path d="M626.803 460.041V461.085C626.803 467.104 621.923 471.984 615.9 471.984H50.4417C44.4202 471.984 39.543 467.104 39.543 461.085V460.041C39.543 454.023 44.4202 449.143 50.4417 449.143H615.9C621.923 449.143 626.803 454.023 626.803 460.041Z" fill="#436FC3"/>
<path d="M626.803 460.041V460.563H39.543V460.041C39.543 454.023 44.4202 449.143 50.4417 449.143H615.9C621.923 449.143 626.803 454.023 626.803 460.041Z" fill="#23427D"/>
</svg>
