<svg width="639" height="399" viewBox="0 0 639 399" fill="none" xmlns="http://www.w3.org/2000/svg">
<g clip-path="url(#clip0_2107_2)">
<path d="M63.049 395.185C63.049 395.185 62.666 364.666 35.333 334.666C8.00001 304.666 -13.334 268.479 9.33301 233.239C32 198 77.402 192.202 86.368 154.768C95.334 117.334 98.096 71.802 142.048 47.568C186 23.334 234.478 49.39 280.906 38.695C327.334 28 391.979 -18.667 447.323 7.333C502.667 33.333 497.043 101.76 540.855 129.546C584.667 157.333 635.333 212.164 630 271.415C624.667 330.666 590.667 379.036 571.667 395.185H63.049Z" fill="#CFDAEF"/>
<path d="M525.558 124.206C546.517 124.206 563.507 107.216 563.507 86.257C563.507 65.2983 546.517 48.308 525.558 48.308C504.599 48.308 487.609 65.2983 487.609 86.257C487.609 107.216 504.599 124.206 525.558 124.206Z" fill="#436FC3"/>
<path d="M525.558 117.206C542.651 117.206 556.507 103.35 556.507 86.257C556.507 69.1643 542.651 55.308 525.558 55.308C508.465 55.308 494.609 69.1643 494.609 86.257C494.609 103.35 508.465 117.206 525.558 117.206Z" fill="#F5F5F7"/>
<path d="M537.891 64.206L525.558 86.257L543.224 80.315" stroke="#23427D" stroke-width="2" stroke-miterlimit="10"/>
<path d="M525.558 58.357V63.691" stroke="#23427D" stroke-miterlimit="10"/>
<path d="M525.558 108.823V114.156" stroke="#23427D" stroke-miterlimit="10"/>
<path d="M553.456 86.257H548.124" stroke="#23427D" stroke-miterlimit="10"/>
<path d="M502.992 86.257H497.658" stroke="#23427D" stroke-miterlimit="10"/>
<path d="M96.7636 328.472C96.7636 328.472 82.8976 271.67 93.3586 266.913C103.82 262.155 105.596 298.472 102.438 327.485L96.7636 328.472Z" fill="#57A773"/>
<path d="M108.557 327.486C108.557 327.486 112.133 271.235 123.668 271.038C135.203 270.841 122.484 305.578 114.83 327.486H108.557Z" fill="#57A773"/>
<path d="M91.3848 326.696C91.3848 326.696 83.4898 282.33 73.8188 283.098C64.1478 283.866 85.7928 327.485 85.7928 327.485L91.3848 326.696Z" fill="#57A773"/>
<path d="M117.636 327.486C117.636 327.486 131.913 288.209 141.255 290.38C150.597 292.551 130.899 320.082 124.563 327.04L117.636 327.486Z" fill="#57A773"/>
<path d="M82.5028 328.472C82.5028 328.472 59.3477 306.169 67.7677 298.274C76.1867 290.379 85.8578 319.59 86.4508 327.288L82.5028 328.472Z" fill="#2EA156"/>
<path d="M89.6088 326.696C89.6088 326.696 75.7929 288.998 85.2669 283.669C94.7409 278.34 97.7009 311.696 96.5169 326.696H89.6088Z" fill="#2EA156"/>
<path d="M102.438 327.486C102.438 327.486 96.3186 277.354 108.556 274.788C120.793 272.222 116.056 305.578 108.556 327.486H102.438Z" fill="#2EA156"/>
<path d="M113.293 327.486C113.293 327.486 121.385 291.564 130.662 292.551C139.938 293.538 128.294 314.656 117.636 327.486H113.293Z" fill="#2EA156"/>
<path d="M123.667 326.696C123.667 326.696 132.833 304.985 139.544 306.169C146.255 307.353 133.623 323.735 128.294 328.472L123.667 326.696Z" fill="#2EA156"/>
<path d="M133.425 391.185H71.0559C70.0509 391.185 69.2059 390.429 69.0949 389.431L61.7919 324.152C61.7299 323.594 61.9079 323.035 62.2819 322.616C62.6559 322.197 63.1909 321.958 63.7529 321.958H141.122C141.686 321.958 142.223 322.199 142.597 322.62C142.971 323.042 143.148 323.603 143.082 324.163L135.385 389.442C135.268 390.437 134.426 391.185 133.425 391.185Z" fill="#436FC3"/>
<path d="M67.7681 377.572L69.0951 389.431C69.2071 390.429 70.0511 391.185 71.0561 391.185H133.425C134.426 391.185 135.268 390.436 135.385 389.443L141.254 339.668L67.7681 377.572Z" fill="#20355D"/>
<path d="M179.578 143.063C179.578 143.063 188.103 109.001 188.269 105.255C188.436 101.509 183.51 94.113 180.638 85.561C177.766 77.009 175.951 68.283 173.817 67.881C171.684 67.479 171.872 74.495 171.872 74.495C171.872 74.495 169.412 73.635 168.164 76.332C166.916 79.029 168.45 95.245 167.199 98.001C165.948 100.757 161.153 138.246 163.376 140.265C165.599 142.283 168.648 146.875 168.648 146.875L170.312 171.315L190.164 169.463L179.578 143.063Z" fill="#B46A79"/>
<path d="M150.029 157.817C149.443 159.178 147.865 159.806 146.505 159.22L65.2089 124.216C63.8479 123.63 63.2199 122.052 63.8059 120.692L108.09 17.842C108.676 16.481 110.254 15.853 111.614 16.439L192.91 51.443C194.271 52.029 194.899 53.607 194.313 54.967L150.029 157.817Z" fill="#436FC3"/>
<path d="M114.802 25.2478L76.5776 114.018L146.111 143.959L184.335 55.1884L114.802 25.2478Z" fill="#F5F5F7"/>
<path d="M173.878 37.408L157.058 30.166C158.689 29.852 160.141 28.763 160.848 27.122C161.981 24.49 160.766 21.438 158.134 20.304C155.502 19.171 152.45 20.386 151.316 23.018C150.61 24.659 150.816 26.462 151.709 27.863L134.889 20.621C133.528 20.035 132.025 20.49 131.531 21.637L127.631 30.694C127.137 31.841 127.84 33.245 129.201 33.831L168.19 50.619C169.55 51.205 171.054 50.75 171.547 49.603L175.447 40.546C175.942 39.399 175.239 37.994 173.878 37.408ZM156.779 23.452C157.673 23.837 158.085 24.873 157.7 25.766C157.315 26.66 156.279 27.072 155.386 26.687C154.493 26.302 154.08 25.266 154.465 24.373C154.85 23.48 155.886 23.068 156.779 23.452Z" fill="#283263"/>
<path d="M121.305 47.757C120.437 49.773 118.099 50.704 116.082 49.836C114.066 48.968 113.135 46.629 114.003 44.613C114.871 42.597 117.21 41.666 119.226 42.534C121.243 43.403 122.174 45.741 121.305 47.757Z" fill="#AFB8D5"/>
<path d="M125.392 47.5645L123.978 50.8491L170.101 70.7095L171.516 67.4249L125.392 47.5645Z" fill="#436FC3"/>
<path d="M114.612 63.303C113.744 65.319 111.405 66.25 109.389 65.382C107.373 64.514 106.442 62.175 107.31 60.159C108.178 58.143 110.517 57.212 112.533 58.08C114.549 58.948 115.48 61.286 114.612 63.303Z" fill="#AFB8D5"/>
<path d="M118.7 63.1099L117.286 66.3945L163.409 86.2549L164.823 82.9704L118.7 63.1099Z" fill="#436FC3"/>
<path d="M107.919 78.848C107.051 80.864 104.713 81.795 102.696 80.927C100.68 80.059 99.7489 77.72 100.617 75.704C101.485 73.688 103.824 72.757 105.84 73.625C107.856 74.493 108.787 76.831 107.919 78.848Z" fill="#AFB8D5"/>
<path d="M112.006 78.6562L110.592 81.9408L156.715 101.801L158.129 98.5167L112.006 78.6562Z" fill="#436FC3"/>
<path d="M101.225 94.393C100.357 96.409 98.0181 97.34 96.0021 96.472C93.9861 95.604 93.0551 93.265 93.9231 91.249C94.7911 89.233 97.1301 88.302 99.1461 89.17C101.163 90.038 102.093 92.377 101.225 94.393Z" fill="#AFB8D5"/>
<path d="M105.313 94.2013L103.898 97.4859L150.022 117.346L151.436 114.062L105.313 94.2013Z" fill="#436FC3"/>
<path d="M186.766 150.233C186.085 148.806 177.937 143.317 172.529 144.009C167.121 144.701 163.285 152.19 162.712 155.167C162.139 158.145 167.523 230.706 172.685 237.192C177.847 243.678 268.868 278.764 276.309 280.347C283.75 281.93 295.093 241.144 291.583 235.482C288.074 229.82 222.035 212.363 216.003 207.34C209.971 202.317 188.597 154.068 186.766 150.233Z" fill="#2EA156"/>
<path d="M193.686 165.339C193.686 165.339 178.512 158.111 163.417 169.957" stroke="#2EA156" stroke-miterlimit="10" stroke-linecap="round" stroke-linejoin="round"/>
<path d="M172.529 144.008C172.529 144.008 173.516 152.372 175.952 163.878" stroke="#2EA156" stroke-miterlimit="10" stroke-linecap="round" stroke-linejoin="round"/>
<path d="M178.714 145.098C178.714 145.098 182.003 153.916 184.264 163.205" stroke="#2EA156" stroke-miterlimit="10" stroke-linecap="round" stroke-linejoin="round"/>
<path d="M184.92 148.492C184.92 148.492 188.659 158.302 190.384 164.522" stroke="#2EA156" stroke-miterlimit="10" stroke-linecap="round" stroke-linejoin="round"/>
<path d="M165.731 148.84C165.731 148.84 165.405 157.863 166.754 166.895" stroke="#2EA156" stroke-miterlimit="10" stroke-linecap="round" stroke-linejoin="round"/>
<path d="M288.45 259.313C288.45 259.313 196.9 232.434 187.245 222.987C177.59 213.54 172.713 164.81 172.713 164.81" stroke="#2EA156" stroke-miterlimit="10" stroke-linecap="round" stroke-linejoin="round" stroke-dasharray="4 3"/>
<path d="M176.023 132.987C176.023 132.987 175.571 116.124 171.819 112.742C168.067 109.36 163.26 104.9 162.1 102.86C160.94 100.82 158.428 95.411 156.702 94.837C154.976 94.263 151.29 98.353 153.476 105.457C155.662 112.561 159.491 116.486 159.291 120.981C159.091 125.477 158.057 137.442 160.477 139.302C162.896 141.161 175.384 141.717 176.023 132.987Z" fill="#B46A79"/>
<path d="M411.227 114.562C411.227 114.562 396.53 82.673 395.671 79.023C394.812 75.373 398.28 67.192 399.515 58.255C400.75 49.319 400.915 40.407 402.936 39.616C404.958 38.825 406.075 45.754 406.075 45.754C406.075 45.754 408.333 44.452 410.06 46.871C411.787 49.29 413.289 65.508 415.03 67.985C416.771 70.461 428.439 106.41 426.629 108.805C424.819 111.201 422.676 116.278 422.676 116.278L425.576 140.602L405.725 142.466L411.227 114.562Z" fill="#B46A79"/>
<path d="M461.402 69.566C462.551 70.76 462.515 72.659 461.322 73.808L435.21 98.953C434.017 100.102 432.117 100.066 430.968 98.873L385.584 51.744C384.435 50.551 384.471 48.651 385.664 47.502L411.776 22.357C412.969 21.208 414.869 21.244 416.018 22.437L461.402 69.566Z" fill="#131230"/>
<path d="M451.39 64.035C452.539 65.229 452.503 67.128 451.31 68.277L430.06 88.739C428.867 89.888 426.967 89.852 425.818 88.659L390.27 51.743C389.121 50.55 389.157 48.65 390.35 47.501L411.6 27.039C412.793 25.89 414.693 25.926 415.842 27.119L451.39 64.035Z" fill="#436FC3"/>
<path d="M448.992 78.304C449.611 78.947 449.591 79.969 448.949 80.588L442.452 86.844C441.81 87.463 440.787 87.444 440.168 86.801C439.549 86.158 439.569 85.136 440.211 84.517L446.708 78.261C447.351 77.642 448.374 77.661 448.992 78.304Z" fill="#283263"/>
<path d="M410.261 55.52C410.2 56.205 410.134 59.489 410.691 60.44C411.248 61.391 414.475 63.944 420.979 63.827C427.482 63.71 430.341 61.778 431.146 60.644C431.951 59.509 431.56 56.706 431.52 56.078C431.48 55.45 430.633 55.104 429.868 55.268C429.102 55.432 426.896 56.069 426.345 56.19C425.794 56.31 425.234 56.901 425.199 57.396C425.164 57.892 425.327 58.914 425.166 59.12C425.005 59.326 422.433 59.957 420.839 59.953C419.245 59.949 416.726 59.144 416.548 58.905C416.37 58.666 416.459 57.588 416.445 57.2C416.431 56.812 416.281 56.444 415.294 56.111C414.307 55.779 412.139 55.071 411.534 54.923C410.929 54.775 410.308 54.996 410.261 55.52Z" fill="white"/>
<path d="M417.565 52.877C417.565 52.877 420.315 49.619 424.288 52.65" stroke="#F5F5F7" stroke-miterlimit="10" stroke-linecap="round" stroke-linejoin="round"/>
<path d="M415.265 50.488C415.265 50.488 419.467 45.84 426.449 50.569" stroke="#F5F5F7" stroke-miterlimit="10" stroke-linecap="round" stroke-linejoin="round"/>
<path d="M405.494 122.941C405.899 121.412 412.886 114.507 418.329 114.183C423.771 113.859 428.931 120.506 430.046 123.326C431.161 126.146 439.336 198.446 435.467 205.777C431.598 213.109 348.669 264.476 341.651 267.411C334.633 270.347 315.919 232.375 318.317 226.16C320.715 219.945 382.367 190.537 387.362 184.482C392.357 178.426 404.406 127.049 405.494 122.941Z" fill="#2EA156"/>
<path d="M401.497 139.068C401.497 139.068 415.067 129.15 432.097 137.989" stroke="#2EA156" stroke-miterlimit="10" stroke-linecap="round" stroke-linejoin="round"/>
<path d="M418.329 114.182C418.329 114.182 418.911 122.584 418.653 134.342" stroke="#2EA156" stroke-miterlimit="10" stroke-linecap="round" stroke-linejoin="round"/>
<path d="M412.454 116.401C412.454 116.401 410.858 125.676 410.36 135.223" stroke="#2EA156" stroke-miterlimit="10" stroke-linecap="round" stroke-linejoin="round"/>
<path d="M406.985 120.887C406.985 120.887 405.131 131.221 404.59 137.652" stroke="#2EA156" stroke-miterlimit="10" stroke-linecap="round" stroke-linejoin="round"/>
<path d="M425.905 117.669C425.905 117.669 427.9 126.475 428.25 135.6" stroke="#2EA156" stroke-miterlimit="10" stroke-linecap="round" stroke-linejoin="round"/>
<path d="M325.817 248.995C325.817 248.995 410.789 205.595 418.523 194.52C426.257 183.446 422.007 134.657 422.007 134.657" stroke="#2EA156" stroke-miterlimit="10" stroke-linecap="round" stroke-linejoin="round" stroke-dasharray="4 3"/>
<path d="M412.85 104.001C412.85 104.001 410.165 87.347 413.224 83.327C416.284 79.307 420.179 74.033 420.94 71.813C421.702 69.593 423.166 63.812 424.756 62.927C426.346 62.042 430.726 65.377 429.897 72.764C429.067 80.151 426.033 84.717 427.064 89.098C428.095 93.478 431.331 105.044 429.299 107.321C427.266 109.597 415.098 112.461 412.85 104.001Z" fill="#B46A79"/>
<path d="M480.373 238.937C480.373 238.937 482.68 203.9 483.668 200.283C484.655 196.665 491.608 191.132 496.959 183.869C502.31 176.606 506.709 168.854 508.863 169.124C511.017 169.394 508.691 176.015 508.691 176.015C508.691 176.015 511.296 175.949 511.66 178.898C512.023 181.848 505.601 196.817 505.948 199.823C506.296 202.83 499.389 239.988 496.655 241.229C493.921 242.47 489.614 245.909 489.614 245.909L480.552 268.667L462.219 260.83L480.373 238.937Z" fill="#B46A79"/>
<path d="M566.753 222.577C567.369 224.115 566.621 225.861 565.083 226.477L511.239 248.036C509.701 248.652 507.955 247.904 507.339 246.366L479.983 178.045C479.367 176.507 480.115 174.761 481.653 174.145L535.497 152.586C537.035 151.97 538.781 152.718 539.397 154.256L566.753 222.577Z" fill="#436FC3"/>
<path d="M534.676 169.439L501.025 182.914L508.977 202.772L542.628 189.298L534.676 169.439Z" fill="#F5F5F7"/>
<path d="M488.393 171.447L481.653 174.146C480.115 174.762 479.367 176.508 479.983 178.046L507.339 246.367C507.955 247.905 509.701 248.653 511.239 248.037L517.979 245.338L488.393 171.447Z" fill="#283263"/>
<path d="M486.841 230.432C486.841 230.432 492.431 214.516 497.038 212.444C501.645 210.372 507.586 207.596 509.315 206.01C511.044 204.423 515.09 200.042 516.909 200.023C518.728 200.004 520.985 205.026 516.73 211.121C512.475 217.216 507.629 219.78 506.444 224.121C505.259 228.462 502.582 240.17 499.709 241.2C496.837 242.231 484.778 238.939 486.841 230.432Z" fill="#B46A79"/>
<path d="M471.336 243.563C472.421 242.413 481.858 239.68 486.795 241.994C491.732 244.308 493.093 252.611 492.727 255.621C492.361 258.631 465.032 326.065 458.133 330.66C451.233 335.255 353.843 340.807 346.274 340.037C338.706 339.267 340.387 296.967 345.461 292.651C350.535 288.335 418.747 291.923 426.027 288.986C433.307 286.049 468.419 246.654 471.336 243.563Z" fill="#2EA156"/>
<path d="M460.126 255.827C460.126 255.827 476.784 253.589 487.53 269.486" stroke="#2EA156" stroke-miterlimit="10" stroke-linecap="round" stroke-linejoin="round"/>
<path d="M486.795 241.994C486.795 241.994 483.296 249.655 477.456 259.863" stroke="#2EA156" stroke-miterlimit="10" stroke-linecap="round" stroke-linejoin="round"/>
<path d="M480.574 241.139C480.574 241.139 474.744 248.528 469.749 256.679" stroke="#2EA156" stroke-miterlimit="10" stroke-linecap="round" stroke-linejoin="round"/>
<path d="M473.627 242.471C473.627 242.471 467.065 250.667 463.52 256.06" stroke="#2EA156" stroke-miterlimit="10" stroke-linecap="round" stroke-linejoin="round"/>
<path d="M491.788 248.674C491.788 248.674 489.337 257.364 485.289 265.55" stroke="#2EA156" stroke-miterlimit="10" stroke-linecap="round" stroke-linejoin="round"/>
<path d="M341.126 318.122C341.126 318.122 420.837 320.048 438.541 314.515C456.245 308.982 479.661 261.302 479.661 261.302" stroke="#2EA156" stroke-miterlimit="10" stroke-linecap="round" stroke-linejoin="round" stroke-dasharray="4 3"/>
<path d="M454.045 384.529C454.045 384.529 479.24 363.263 483.471 362.97C487.702 362.677 510.589 361.395 514.628 361.459C518.667 361.523 523.86 369.317 528.091 373.113C532.322 376.909 525.399 376.818 521.937 374.748C518.475 372.678 514.436 369.28 511.744 368.96C509.051 368.639 491.725 370.947 489.714 372.294C487.704 373.64 486.165 375.564 493.281 374.794C500.397 374.025 507.513 374.058 511.167 376.445C514.821 378.833 508.667 381.296 503.859 382.949C499.051 384.602 493.474 382.726 490.589 384.53C487.704 386.333 481.742 392.68 474.626 391.142C471.575 390.482 462.416 391.22 458.593 389.939C453.496 388.231 454.045 384.529 454.045 384.529Z" fill="#B46A79"/>
<path d="M268.75 216C268.75 216 232 235 220.333 252.333C208.666 269.666 219.666 344 226.333 361.333C233 378.666 234.333 389.333 249 392C263.667 394.667 464 392 464 392C464 392 472.667 384 467 371.667C467 371.667 425.333 355 410 350.334C394.667 345.667 392.667 346.167 391.333 346.167C390 346.167 391.5 342.667 389.666 341.834C387.833 341.001 384.833 340.834 384.166 340.001C383.499 339.168 385.666 335.501 385.166 334.334C384.666 333.167 381.666 331.167 380.666 329.001C379.666 326.835 362.166 263.834 355.333 252.501C348.5 241.168 325.583 227.062 307.125 221.031C288.667 215 268.75 216 268.75 216Z" fill="#57A773"/>
<path d="M433.25 377.438C430.5 375.116 414.5 362.75 411.5 361.75C409.066 360.939 382.794 368.685 372.97 371.637C373.783 377.361 372.373 387.856 368.219 392.628C368.551 392.827 368.902 393.017 369.29 393.186C369.29 393.186 439.504 392.124 442.25 392.179C444.011 392.214 436 379.759 433.25 377.438Z" fill="#B46A79"/>
<path d="M407.75 370.296C407.75 370.296 426 381.25 428.5 383C431 384.75 435.25 392.242 435.25 392.242" stroke="#915064" stroke-miterlimit="10" stroke-linecap="round" stroke-linejoin="round"/>
<path d="M404.625 378.428C404.625 378.428 421.5 386.625 423.125 387.25C424.75 387.875 427.624 392.34 427.624 392.34" stroke="#915064" stroke-miterlimit="10" stroke-linecap="round" stroke-linejoin="round"/>
<path d="M401.375 387.25C401.375 387.25 412.695 390.62 415.598 391.185C418.5 391.75 420.125 392.625 420.125 392.625" stroke="#915064" stroke-miterlimit="10" stroke-linecap="round" stroke-linejoin="round"/>
<path d="M218.701 255.481C218.701 255.481 235.75 245 253.25 262.5C270.75 280 277.5 321 282.25 339.75C282.25 339.75 285.75 340.75 286.5 341.5C287.25 342.25 286.5 346.5 286.5 346.5C286.5 346.5 302.857 349 318.303 354.5C333.75 360 368 366.549 371.25 367.799C374.5 369.049 373.853 386.736 367.927 392.961" stroke="#2EA156" stroke-miterlimit="10" stroke-linecap="round" stroke-linejoin="round"/>
<path d="M286.5 346.5C265.396 344.75 247.833 362.75 244.292 372.75" stroke="#2EA156" stroke-miterlimit="10" stroke-linecap="round" stroke-linejoin="round"/>
<path d="M276.75 339.5C276.75 339.5 256 343.75 246.5 361.75" stroke="#2EA156" stroke-miterlimit="10" stroke-linecap="round" stroke-linejoin="round"/>
<path d="M357.224 363.897C357.224 363.897 349.5 372.25 348.25 379.75C347 387.25 348.25 392.96 348.25 392.96" stroke="#2EA156" stroke-miterlimit="10" stroke-linecap="round" stroke-linejoin="round"/>
<path d="M354.036 367.842C354.036 367.842 366.134 370.25 373.192 372.75" stroke="#2EA156" stroke-miterlimit="10" stroke-linecap="round" stroke-linejoin="round"/>
<path d="M350.044 374.406C350.044 374.406 361.075 377.107 373.037 378.429" stroke="#2EA156" stroke-miterlimit="10" stroke-linecap="round" stroke-linejoin="round"/>
<path d="M347.694 383C347.694 383 361.257 384.614 371.753 385.432" stroke="#2EA156" stroke-miterlimit="10" stroke-linecap="round" stroke-linejoin="round"/>
<path d="M347.694 389.75C347.694 389.75 359.079 391.185 369.289 391.185" stroke="#2EA156" stroke-miterlimit="10" stroke-linecap="round" stroke-linejoin="round"/>
<path d="M223.333 253.167C223.333 253.167 223.284 253.865 223.209 255.159" stroke="#2EA156" stroke-linecap="round" stroke-linejoin="round"/>
<path d="M223.052 258.153C222.502 269.527 221.614 298.53 225 325.931C229.333 361 235.333 368.592 237.333 369.176C239.333 369.759 241 365.352 242.333 366.722C243.666 368.092 239.666 380.219 242 380.336C244.294 380.451 277.242 392.643 344.195 387.959" stroke="#2EA156" stroke-linecap="round" stroke-linejoin="round" stroke-dasharray="4 3"/>
<path d="M345.7 387.851C346.362 387.803 347.026 387.753 347.694 387.701" stroke="#2EA156" stroke-linecap="round" stroke-linejoin="round"/>
<path d="M346 264.667C346 264.667 361.895 286.334 363.614 299.667C365.333 313 358.492 332 358.492 332L363.804 365.973" stroke="#2EA156" stroke-miterlimit="10" stroke-linecap="round" stroke-linejoin="round"/>
<path d="M454.045 366.552C454.045 366.552 447.33 375.69 449.665 392.178" stroke="#2EA156" stroke-miterlimit="10" stroke-linecap="round" stroke-linejoin="round"/>
<path d="M452.05 370.296L468.048 374.406" stroke="#2EA156" stroke-miterlimit="10" stroke-linecap="round" stroke-linejoin="round"/>
<path d="M449.916 377.382C449.916 377.382 460.658 380.005 468.912 380.336" stroke="#2EA156" stroke-miterlimit="10" stroke-linecap="round" stroke-linejoin="round"/>
<path d="M449.172 385.432C449.172 385.432 459.52 386.198 468.01 385.432" stroke="#2EA156" stroke-miterlimit="10" stroke-linecap="round" stroke-linejoin="round"/>
<path d="M449.453 390.468C449.453 390.468 456.332 391.102 465.333 390.468" stroke="#2EA156" stroke-miterlimit="10" stroke-linecap="round" stroke-linejoin="round"/>
<path d="M385.667 346.381C385.667 346.381 373.334 348.298 365.167 359.565" stroke="#2EA156" stroke-miterlimit="10" stroke-linecap="round" stroke-linejoin="round"/>
<path d="M380.5 334.667C380.5 334.667 370.419 342.782 366.167 354.167" stroke="#2EA156" stroke-miterlimit="10" stroke-linecap="round" stroke-linejoin="round"/>
<path d="M307.628 339.5C307.628 339.5 324.223 329.333 345.778 325" stroke="#2EA156" stroke-miterlimit="10" stroke-linecap="round" stroke-linejoin="round"/>
<path d="M323.352 334.764C323.352 334.764 337.662 332.476 351.974 332.25" stroke="#2EA156" stroke-miterlimit="10" stroke-linecap="round" stroke-linejoin="round"/>
<path d="M298 98.5C298 98.5 306 85 321.75 84.75C337.5 84.5 376 106.75 384.5 115.25C393 123.75 393.5 133.619 391 137.435C388.5 141.25 381.75 144.934 383.25 150.842C384.75 156.75 394.75 169.216 389.5 181.608C384.25 194 371.159 192.25 368.704 198C366.25 203.75 370.427 224 358.464 231.75C346.5 239.5 337.89 222.5 329.695 222.75C321.5 223 317.75 236.25 298 231C278.25 225.75 281.765 209.458 271.758 206.479C261.75 203.5 250.75 207 245.5 194.5C240.25 182 253.252 175.602 262.501 163.676C271.75 151.75 275.749 133.25 278 118.75C280.251 104.25 286 97.25 298 98.5Z" fill="#131230"/>
<path d="M368.372 199.033C369.088 188.392 377.75 184.465 377.5 174.358C377.25 164.25 368.377 150.62 372.939 137.435C377.5 124.25 377.506 109.679 377.506 109.679" stroke="#283263" stroke-miterlimit="10" stroke-linecap="round" stroke-linejoin="round"/>
<path d="M374.574 161.133C374.574 161.133 377.25 175.75 365.5 184.25C353.75 192.75 369.25 208.893 365.5 222.072" stroke="#283263" stroke-miterlimit="10" stroke-linecap="round" stroke-linejoin="round"/>
<path d="M384.25 140.299C384.25 140.299 384 147.882 389.75 156.441C395.5 165 400 182.705 389.75 191.602C379.5 200.5 366.25 197.5 363.25 217.25" stroke="#131230" stroke-miterlimit="10" stroke-linecap="round" stroke-linejoin="round"/>
<path d="M319.5 275.75C319.5 275.75 327.973 250.871 324.661 228.49C318.789 225.459 312.75 222.869 307.125 221.031C288.667 215 268.75 216 268.75 216C268.75 216 259.336 220.87 248.527 227.923C248.54 227.938 279.259 263.003 319.5 275.75Z" fill="#F5F5F7"/>
<path d="M300.738 230.309C300.738 230.309 310.5 250 319.5 275.75" stroke="#2EA156" stroke-miterlimit="10"/>
<path d="M281.19 179.887C281.19 179.887 277.75 201.375 268.75 216C268.75 216 278.195 234.032 290.5 233C302.805 231.968 306.125 225.75 306.125 225.75C306.125 225.75 307.861 215.184 312.493 205.53L281.19 179.887Z" fill="#B46A79"/>
<path d="M312.493 205.529L281.19 179.887C281.19 179.887 280.437 184.591 278.713 191.095C282.349 201.562 289.738 218.178 300.374 219.625C303.253 220.017 305.676 219.615 307.72 218.705C308.738 214.933 310.286 210.129 312.493 205.529Z" fill="#915064"/>
<path d="M340 109.667C376.667 126 371 155.667 362 176.667C353 197.667 327.667 215.667 301.667 201.334C275.667 187.001 273.667 162.667 283.334 137.334C291.73 115.327 314.16 98.156 340 109.667Z" fill="#B46A79"/>
<path d="M341.983 140.299C341.983 140.299 333.518 149.497 330.595 166.037C330.595 166.037 340.024 164.726 340.319 169.278C340.614 173.831 332.377 178.277 327.774 179.07" stroke="#915064" stroke-miterlimit="10" stroke-linecap="round" stroke-linejoin="round"/>
<path d="M322.977 151.715C322.334 153.828 320.528 155.151 318.943 154.668C317.358 154.186 316.594 152.081 317.237 149.968C317.88 147.854 319.686 146.532 321.271 147.015C322.857 147.497 323.62 149.602 322.977 151.715Z" fill="#110654"/>
<path d="M320.495 149.566C320.495 149.566 324.814 151.403 329.694 148.533" stroke="#110654" stroke-miterlimit="10" stroke-linecap="round" stroke-linejoin="round"/>
<path d="M351.746 160.623C351.103 162.736 349.297 164.059 347.712 163.576C346.127 163.094 345.363 160.989 346.006 158.876C346.649 156.763 348.455 155.44 350.041 155.923C351.626 156.406 352.39 158.51 351.746 160.623Z" fill="#110654"/>
<path d="M349.265 158.281C349.265 158.281 353.584 160.118 358.464 157.248" stroke="#110654" stroke-miterlimit="10" stroke-linecap="round" stroke-linejoin="round"/>
<path d="M310.667 174.358C310.667 174.358 314 188.191 328.167 188.858" stroke="#915064" stroke-miterlimit="10" stroke-linecap="round" stroke-linejoin="round"/>
<path d="M316.477 163.923C314.646 170.77 306.494 174.538 298.268 172.338C290.043 170.139 284.859 162.805 286.69 155.958C288.521 149.111 296.673 145.343 304.899 147.543C313.124 149.742 318.308 157.076 316.477 163.923Z" fill="#9E4961"/>
<path d="M362 176.667C363.384 173.437 364.689 170.001 365.774 166.44C364.785 165.97 363.737 165.574 362.628 165.277C354.403 163.078 346.25 166.845 344.42 173.693C342.733 180.001 347.009 186.713 354.123 189.451C357.393 185.517 360.073 181.163 362 176.667Z" fill="#9E4961"/>
<path d="M321.75 84.75C306 85 298 98.5 298 98.5C286 97.25 280.25 104.25 278 118.75C277.031 124.995 275.733 131.982 273.836 138.866C296.862 157.355 325.096 127.499 325.096 127.499C318.941 141.748 338.14 145.683 351.975 131.403C361.539 121.532 365.297 109.351 366.708 102.767C351.744 93.89 331.965 84.588 321.75 84.75Z" fill="#283263"/>
<path d="M330.802 86.2C330.802 86.2 313.159 136.87 284.454 144.185C284.454 144.185 314.75 126.25 326.207 85.151" stroke="#131230" stroke-miterlimit="10" stroke-linecap="round" stroke-linejoin="round"/>
<path d="M314.665 133.126C316.191 129.537 320.73 127.332 324.409 127.019C328.249 126.692 332.556 127.787 334.914 131.076C335.271 131.574 334.428 131.25 334.265 131.192C333.176 130.808 332.089 130.508 330.971 130.22C328.984 129.83 326.932 129.739 324.921 129.974C322.736 130.23 320.631 130.709 318.581 131.519C317.635 131.893 316.698 132.323 315.803 132.808C315.589 132.924 314.574 133.735 314.665 133.126Z" fill="#131230"/>
<path d="M350.534 140.153C355.26 137.127 362.402 143.609 359.426 148.541C359.257 148.82 359.137 148.494 359.077 148.346C358.828 147.728 358.562 147.127 358.255 146.535C357.592 145.256 356.601 144.198 355.533 143.25C354.463 142.301 353.228 141.582 351.927 141.001C351.702 140.902 350.039 140.497 350.534 140.153Z" fill="#131230"/>
<path d="M278 164.649L281.19 143.579C281.19 143.579 280.25 125.153 269 127.75C257.75 130.347 261.249 163.299 278 164.649Z" fill="#B46A79"/>
<path d="M262.501 141.972C262.847 152.048 268.113 163.853 278 164.65L281.015 144.741C278.303 140.482 271.354 132.283 262.501 141.972Z" fill="#915064"/>
<path d="M274.339 204.568C274.339 204.568 281.334 218.834 301.167 224C301.167 224 306.865 220.833 308.514 215.938L309.417 213.137C309.417 213.137 310.334 213.068 310.667 214.284C311 215.5 315.801 224.313 315.801 224.313C315.801 224.313 316.134 249 315.801 249.167C315.468 249.334 302.167 233.043 302.167 233.043L299.5 253.167C299.5 253.167 269.388 242.171 263.694 218.752C263.694 218.752 265.742 216.688 268.75 212.334C271.758 207.979 273.734 203.498 274.339 204.568Z" fill="#2EA156"/>
<path d="M343 390.053C343 391.71 344.343 393.053 346 393.053H582.433C584.09 393.053 585.433 391.71 585.433 390.053V389.084C585.433 387.427 584.09 386.084 582.433 386.084H346C344.343 386.084 343 387.427 343 389.084V390.053Z" fill="#23427D"/>
<path d="M422.683 390.053V389.084C422.683 387.427 421.34 386.084 419.683 386.084H346C344.343 386.084 343 387.427 343 389.084V390.053C343 391.71 344.343 393.053 346 393.053H419.683C421.34 393.053 422.683 391.71 422.683 390.053Z" fill="#20355D"/>
<path d="M582.767 386.084H426.25C425.661 386.084 425.103 385.817 424.733 385.359C424.363 384.901 424.22 384.3 424.344 383.724L449.943 264.541C450.135 263.642 450.93 263 451.849 263H608.366C608.956 263 609.513 263.267 609.883 263.725C610.253 264.183 610.396 264.784 610.273 265.36L584.674 384.543C584.481 385.442 583.686 386.084 582.767 386.084Z" fill="#23427D"/>
<path d="M581.683 306.618C563.933 317.368 551.933 336.368 532.433 344.368C509.433 353.618 491.933 336.118 469.683 334.618C456.683 333.618 446.183 335.618 434.683 341.868C434.301 342.059 433.783 342.312 433.174 342.612L424.344 383.724C424.22 384.3 424.363 384.901 424.733 385.359C425.103 385.817 425.661 386.084 426.25 386.084H582.767C583.686 386.084 584.481 385.442 584.674 384.543L603.424 297.246C595.676 298.998 588.319 302.446 581.683 306.618Z" fill="#20355D"/>
<path d="M525.491 341.665C532.835 341.665 538.788 335.712 538.788 328.368C538.788 321.024 532.835 315.071 525.491 315.071C518.147 315.071 512.194 321.024 512.194 328.368C512.194 335.712 518.147 341.665 525.491 341.665Z" fill="#F5F5F7"/>
<path d="M639 396.185C639 397.842 637.657 399.185 636 399.185H22C20.343 399.185 19 397.842 19 396.185V394.185C19 392.528 20.343 391.185 22 391.185H636C637.657 391.185 639 392.528 639 394.185V396.185Z" fill="#21346F"/>
</g>
<defs>
<clipPath id="clip0_2107_2">
<rect width="639" height="399" fill="white"/>
</clipPath>
</defs>
</svg>
