<svg width="718" height="456" viewBox="0 0 718 456" fill="none" xmlns="http://www.w3.org/2000/svg">
<g clip-path="url(#clip0_2104_2)">
<g clip-path="url(#clip1_2104_2)">
<g clip-path="url(#clip2_2104_2)">
<path d="M302.463 80.7458C280.146 -0.213316 179.576 -26.2927 121.942 34.2121C121.114 35.0804 120.288 35.9647 119.461 36.862C36.8316 126.683 75.8657 348.03 248.311 404.131C420.756 460.232 600.122 357.786 610.199 266.205C620.276 174.625 540.718 145.849 417.254 171.457C347.497 185.924 316.356 131.145 302.463 80.7458Z" fill="#CFDAEF"/>
<path d="M445.914 94.5936C422.841 98.3499 416.447 118.791 434.261 133.292C440.149 138.085 448.559 142.068 460.538 144.055C506.173 151.625 530.388 131.435 512.096 105.257C500.808 89.1007 468.78 90.8706 445.914 94.5936Z" fill="#CFDAEF"/>
<path d="M88.8394 260.045C77.5094 239.598 56.1098 240.485 48.4796 262.15C45.9574 269.311 45.0499 278.571 47.2265 290.518C55.516 336.026 82.7003 351.998 101.16 325.939C112.553 309.855 100.068 280.309 88.8394 260.045Z" fill="#CFDAEF"/>
<path d="M626.461 276.849C624.336 287.975 633.524 295.857 643.935 291.569C647.376 290.152 650.846 287.419 653.935 282.616C665.697 264.318 659.74 248.622 643.363 250.233C633.252 251.228 628.567 265.822 626.461 276.849Z" fill="#CFDAEF"/>
<path d="M568.133 159.433C579.222 161.747 587.259 152.695 583.148 142.213C581.789 138.749 579.117 135.232 574.368 132.062C556.273 119.991 540.478 125.679 541.809 142.081C542.631 152.206 557.144 157.14 568.133 159.433Z" fill="#CFDAEF"/>
<path d="M301.181 310.58L187.427 311.984L187.712 505.033L314.659 506.132L301.181 310.58Z" fill="#20355D"/>
<path d="M200.689 504.271C200.689 504.271 200.435 504.676 199.897 505.453C199.341 506.246 198.535 507.396 197.471 508.914C195.294 511.986 192.076 516.525 187.851 522.486L187.714 522.217C219.276 522.247 285.218 522.311 367.261 522.39L366.834 522.817C366.831 516.846 366.828 510.36 366.825 503.787L367.261 504.223C345.395 504.29 322.174 504.362 298.277 504.437C263.858 504.528 230.844 504.615 200.689 504.694L200.266 504.695V504.271C200.332 448.125 200.389 400.061 200.427 366.009C200.48 349.008 200.52 335.51 200.548 326.234C200.578 321.625 200.601 318.071 200.617 315.64C200.632 314.454 200.644 313.547 200.653 312.91C200.665 312.298 200.689 311.986 200.689 311.986C200.689 311.986 200.713 312.298 200.725 312.91C200.734 313.547 200.744 314.454 200.761 315.64C200.776 318.071 200.799 321.625 200.828 326.234C200.856 335.51 200.898 349.008 200.949 366.009C200.989 400.061 201.044 448.126 201.11 504.271L200.687 503.848C230.842 503.753 263.858 503.648 298.276 503.539C322.172 503.473 345.393 503.41 367.259 503.351L367.696 503.349V503.787C367.693 510.36 367.69 516.846 367.687 522.817V523.248L367.259 523.246C285.215 522.932 219.273 522.68 187.712 522.559L187.38 522.557L187.575 522.29C191.858 516.371 195.121 511.863 197.327 508.814C198.423 507.319 199.252 506.185 199.824 505.403C200.387 504.641 200.689 504.271 200.689 504.271Z" fill="#20355D"/>
<path d="M43.6425 372.201C43.6425 372.875 43.6425 409.453 43.6425 409.453H37.8025V413.495H43.6425V438.429H152.805V415.742H144.719V410.8H152.805V403.389H156.398V400.02H152.131V372.201H43.6425Z" fill="#23427D"/>
<path d="M123.817 372.309V438.014H152.806V415.327H144.719V410.8L152.806 410.954V403.541L156.47 403.547L156.399 399.716L152.132 399.604V372.201L123.817 372.309Z" fill="#20355D"/>
<path d="M125.883 412.961C125.883 413.189 106.129 413.373 81.768 413.373C57.3979 413.373 37.6487 413.188 37.6487 412.961C37.6487 412.732 57.3979 412.548 81.768 412.548C106.129 412.548 125.883 412.734 125.883 412.961Z" fill="#20355D"/>
<path d="M125.883 409.176C125.883 409.405 106.129 409.59 81.768 409.59C57.3979 409.59 37.6487 409.405 37.6487 409.176C37.6487 408.949 57.3979 408.764 81.768 408.764C106.129 408.764 125.883 408.949 125.883 409.176Z" fill="#20355D"/>
<path d="M131.55 398.993C131.55 399.222 111.796 399.406 87.4347 399.406C63.0646 399.406 43.3154 399.22 43.3154 398.993C43.3154 398.766 63.0646 398.581 87.4347 398.581C111.796 398.581 131.55 398.765 131.55 398.993Z" fill="#20355D"/>
<path d="M132.093 426.744C132.093 426.973 112.34 427.157 87.9784 427.157C63.6083 427.157 43.8591 426.971 43.8591 426.744C43.8591 426.517 63.6083 426.332 87.9784 426.332C112.341 426.332 132.093 426.517 132.093 426.744Z" fill="#20355D"/>
<path d="M449.55 363.551H352.414V371.087H449.55V363.551Z" fill="#20355D"/>
<path d="M449.551 363.551H422.878V371.087H449.551V363.551Z" fill="#20355D"/>
<path d="M340.081 371.087C340.081 371.701 340.081 405.029 340.081 405.029H334.759V408.713H340.081V431.429H439.544V410.76H432.177V406.257H439.544V399.503H442.819V396.433H438.93V371.087H340.081Z" fill="#23427D"/>
<path d="M413.131 371.185V431.05H439.544V410.381H432.177V406.256H439.544V399.503H442.819V396.055H438.93V371.087L413.131 371.185Z" fill="#20355D"/>
<path d="M415.014 408.225C415.014 408.432 397.016 408.601 374.819 408.601C352.615 408.601 334.62 408.432 334.62 408.225C334.62 408.017 352.614 407.848 374.819 407.848C397.016 407.848 415.014 408.017 415.014 408.225Z" fill="#20355D"/>
<path d="M415.014 404.777C415.014 404.984 397.016 405.153 374.819 405.153C352.615 405.153 334.62 404.984 334.62 404.777C334.62 404.569 352.614 404.4 374.819 404.4C397.016 404.4 415.014 404.569 415.014 404.777Z" fill="#20355D"/>
<path d="M420.176 395.497C420.176 395.705 402.177 395.874 379.981 395.874C357.777 395.874 339.782 395.705 339.782 395.497C339.782 395.29 357.776 395.121 379.981 395.121C402.179 395.121 420.176 395.29 420.176 395.497Z" fill="#20355D"/>
<path d="M420.673 420.783C420.673 420.991 402.675 421.16 380.478 421.16C358.275 421.16 340.279 420.991 340.279 420.783C340.279 420.576 358.273 420.407 380.478 420.407C402.675 420.407 420.673 420.576 420.673 420.783Z" fill="#20355D"/>
<path d="M349.92 303.208C349.92 303.822 349.92 337.151 349.92 337.151H344.6V340.835H349.92V363.553H449.383V342.88H442.016V338.377H449.383V331.624H452.658V328.554H448.769V303.208H349.92Z" fill="#23427D"/>
<path d="M422.971 303.307V363.172H449.383V342.502H442.016V338.377L449.383 338.518V331.763L452.721 331.769L452.658 328.278L448.769 328.176V303.208L422.971 303.307Z" fill="#20355D"/>
<path d="M424.852 340.346C424.852 340.554 406.853 340.723 384.657 340.723C362.453 340.723 344.458 340.554 344.458 340.346C344.458 340.139 362.452 339.97 384.657 339.97C406.855 339.97 424.852 340.139 424.852 340.346Z" fill="#20355D"/>
<path d="M424.852 336.898C424.852 337.106 406.853 337.275 384.657 337.275C362.453 337.275 344.458 337.106 344.458 336.898C344.458 336.69 362.452 336.522 384.657 336.522C406.855 336.523 424.852 336.69 424.852 336.898Z" fill="#20355D"/>
<path d="M430.015 327.619C430.015 327.827 412.017 327.995 389.82 327.995C367.617 327.995 349.621 327.827 349.621 327.619C349.621 327.411 367.615 327.242 389.82 327.242C412.017 327.244 430.015 327.411 430.015 327.619Z" fill="#20355D"/>
<path d="M430.513 352.905C430.513 353.113 412.514 353.281 390.318 353.281C368.114 353.281 350.119 353.113 350.119 352.905C350.119 352.697 368.113 352.528 390.318 352.528C412.514 352.528 430.513 352.697 430.513 352.905Z" fill="#20355D"/>
<path d="M443.04 431.084H345.903V438.62H443.04V431.084Z" fill="#20355D"/>
<path d="M443.04 431.084H416.367V438.62H443.04V431.084Z" fill="#20355D"/>
<path d="M470.957 438.429H34.7966V457.01H470.957V438.429Z" fill="#436FC3"/>
<path d="M127.192 438.704C127.199 438.71 127.153 438.777 127.054 438.905C126.952 439.031 126.809 439.225 126.598 439.463C126.161 439.918 125.473 440.577 124.405 441.173C123.341 441.765 121.913 442.294 120.192 442.551C118.476 442.836 116.489 442.875 114.315 442.802C112.131 442.732 109.76 442.407 107.239 442.01C104.719 441.625 102.031 441.155 99.182 441.075C93.466 440.876 87.2554 442.331 81.0493 444.499C74.8253 446.665 69.0122 449.13 63.4485 450.63C60.6727 451.386 57.979 451.924 55.4228 452.181C52.8665 452.438 50.4612 452.398 48.2904 452.168C43.9324 451.706 40.5903 450.342 38.5107 449.12C36.4191 447.886 35.4868 446.916 35.4868 446.916C35.4928 446.909 35.5645 446.954 35.6975 447.048C35.8543 447.161 36.0456 447.3 36.2801 447.471C36.7881 447.843 37.5605 448.37 38.6153 448.944C40.7069 450.102 44.0235 451.391 48.3322 451.8C50.4791 452.005 52.8546 452.021 55.3764 451.749C57.8998 451.478 60.5651 450.929 63.3141 450.167C68.8269 448.652 74.6177 446.183 80.8701 444.006C87.103 441.829 93.3913 440.364 99.1985 440.594C102.094 440.691 104.795 441.181 107.311 441.583C109.827 441.998 112.172 442.34 114.33 442.434C116.49 442.53 118.453 442.517 120.146 442.264C121.843 442.038 123.247 441.55 124.304 440.997C126.419 439.845 127.129 438.632 127.192 438.704Z" fill="#23427D"/>
<path d="M79.4808 438.986C79.5047 439.015 79.0341 439.403 78.1616 440.083C77.2801 440.749 75.94 441.644 74.1831 442.579C72.4097 443.48 70.2255 444.445 67.6737 445.159C65.1249 445.866 62.2325 446.361 59.1713 446.455C53.0265 446.665 47.5465 445.137 43.9669 443.398C42.1696 442.509 40.9177 441.402 40.2991 440.477C39.9749 440.023 39.8046 439.626 39.7 439.357C39.6089 439.08 39.5716 438.935 39.588 438.929C39.6448 438.905 39.7986 439.508 40.4695 440.358C41.1208 441.215 42.3594 442.237 44.1387 443.066C47.7004 444.69 53.1087 446.139 59.1549 445.93C62.1683 445.838 65.0189 445.366 67.5392 444.695C70.0626 444.016 72.2319 443.099 74.0068 442.251C75.7667 441.368 77.1247 440.529 78.0391 439.917C78.9444 439.292 79.4584 438.958 79.4808 438.986Z" fill="#23427D"/>
<path d="M181.824 450.762C181.83 450.748 182.06 450.835 182.501 450.999C182.949 451.147 183.615 451.365 184.515 451.521C186.275 451.818 189.127 451.915 192.148 450.357L192.125 450.593C189.832 448.857 186.58 447.347 182.661 447.001C178.788 446.644 174.215 447.442 170.35 450.118C169.889 450.442 169.442 450.841 169.397 451.325C169.334 451.814 169.711 452.25 170.214 452.523C170.718 452.809 171.291 452.974 171.905 453.1C172.519 453.236 173.138 453.372 173.762 453.511C176.259 454.052 178.836 454.589 181.504 454.97C184.171 455.353 186.931 455.607 189.739 455.516C191.144 455.486 192.557 455.347 193.966 455.121C194.67 455.005 195.373 454.872 196.069 454.691C196.778 454.542 197.451 454.331 198.107 454.049C199.129 453.614 200.091 453.012 200.749 452.189C201.415 451.38 201.627 450.281 201.257 449.334C200.902 448.379 200.067 447.645 199.183 447.078C198.288 446.505 197.286 446.092 196.288 445.7C192.282 444.16 188.123 443.489 184.173 443.252C176.238 442.805 169.086 444.29 163.494 446.374C157.878 448.464 153.726 451.035 151.045 452.998C149.715 454.001 148.69 454.791 148.036 455.375C147.716 455.64 147.462 455.85 147.268 456.012C147.093 456.154 146.999 456.222 146.993 456.216C146.987 456.21 147.068 456.128 147.231 455.973C147.416 455.801 147.659 455.579 147.964 455.296C148.596 454.685 149.602 453.866 150.918 452.836C153.573 450.814 157.717 448.179 163.358 446.027C168.974 443.883 176.181 442.343 184.201 442.769C188.192 442.996 192.4 443.662 196.48 445.222C197.492 445.616 198.518 446.036 199.473 446.643C200.406 447.245 201.333 448.031 201.759 449.153C202.204 450.26 201.936 451.591 201.176 452.505C200.43 453.435 199.4 454.067 198.324 454.527C197.638 454.821 196.915 455.047 196.201 455.196C195.49 455.38 194.773 455.516 194.055 455.634C192.62 455.864 191.181 456.003 189.756 456.031C186.902 456.121 184.113 455.859 181.428 455.468C178.739 455.078 176.151 454.531 173.652 453.981C173.027 453.841 172.409 453.702 171.795 453.565C171.179 453.435 170.537 453.255 169.968 452.928C169.684 452.764 169.409 452.559 169.201 452.275C168.992 451.997 168.879 451.622 168.922 451.273C169.016 450.533 169.6 450.087 170.075 449.744C174.07 447.006 178.751 446.226 182.7 446.619C186.695 447.001 189.998 448.573 192.309 450.369L192.485 450.506L192.287 450.605C189.164 452.166 186.261 452.012 184.486 451.666C182.671 451.289 181.824 450.762 181.824 450.762Z" fill="#23427D"/>
<path d="M237.949 439.185C237.97 439.174 238.173 439.488 238.38 440.12C238.59 440.748 238.776 441.717 238.668 442.908C238.525 445.303 237.017 448.446 234.421 451.017C233.163 452.337 231.8 453.451 230.452 454.303C229.099 455.148 227.771 455.732 226.623 456.11C225.474 456.49 224.512 456.677 223.849 456.787C223.181 456.881 222.809 456.908 222.803 456.874C222.784 456.778 224.267 456.578 226.493 455.762C227.6 455.347 228.876 454.743 230.179 453.899C231.476 453.048 232.794 451.953 234.028 450.659C236.569 448.138 238.052 445.158 238.29 442.869C238.583 440.571 237.819 439.212 237.949 439.185Z" fill="#23427D"/>
<path d="M316.274 456.033C316.223 456.076 315.66 455.25 314.272 454.135C312.905 453.037 310.62 451.628 307.45 451.138C305.872 450.874 304.12 450.961 302.257 451.285C300.397 451.573 298.371 452.059 296.17 451.83C293.931 451.63 291.927 450.312 290.111 448.935C288.288 447.523 286.335 446.19 284.021 445.416C279.415 443.813 274.542 444.084 270.498 445.212C266.413 446.343 263.087 448.322 260.491 450.149C257.891 452.002 255.989 453.756 254.69 454.973C254.077 455.562 253.585 456.034 253.209 456.396C252.871 456.723 252.688 456.889 252.674 456.875C252.661 456.863 252.818 456.674 253.13 456.323C253.441 455.97 253.916 455.465 254.542 454.829C255.8 453.563 257.672 451.758 260.265 449.851C262.857 447.968 266.202 445.927 270.362 444.746C274.476 443.571 279.459 443.271 284.204 444.92C286.58 445.711 288.63 447.117 290.432 448.524C292.244 449.906 294.136 451.149 296.23 451.346C298.307 451.579 300.31 451.126 302.188 450.852C304.068 450.542 305.901 450.472 307.514 450.769C310.765 451.321 313.063 452.813 314.411 453.975C315.773 455.16 316.274 456.033 316.274 456.033Z" fill="#23427D"/>
<path d="M386.203 438.605C386.218 438.617 386.054 438.834 385.727 439.24C385.388 439.635 384.941 440.266 384.236 440.967C382.909 442.443 380.771 444.397 377.868 446.479C374.967 448.558 371.244 450.701 366.822 452.444C364.613 453.318 362.234 454.102 359.698 454.658C357.169 455.217 354.495 455.644 351.729 455.656C346.186 455.689 341.008 454.352 336.608 452.592C332.198 450.813 328.495 448.634 325.62 446.52C322.741 444.408 320.624 442.436 319.297 440.961C318.597 440.258 318.144 439.632 317.805 439.237C317.476 438.832 317.31 438.616 317.325 438.604C317.34 438.593 317.533 438.787 317.889 439.17C318.255 439.542 318.731 440.143 319.451 440.822C320.818 442.246 322.961 444.164 325.846 446.222C328.726 448.282 332.419 450.406 336.795 452.144C341.161 453.863 346.279 455.165 351.723 455.132C354.442 455.12 357.081 454.703 359.582 454.158C362.089 453.617 364.448 452.849 366.639 451.996C371.03 450.293 374.743 448.203 377.65 446.177C380.559 444.151 382.721 442.252 384.086 440.827C384.811 440.15 385.28 439.543 385.646 439.171C385.996 438.79 386.188 438.595 386.203 438.605Z" fill="#23427D"/>
<path d="M376.212 438.429C376.222 438.444 376.094 438.544 375.84 438.722C375.584 438.895 375.214 439.162 374.71 439.467C373.718 440.099 372.237 440.948 370.342 441.876C368.444 442.797 366.124 443.797 363.439 444.613C360.762 445.425 357.705 446.11 354.433 446.113C347.878 446.077 342.22 443.997 338.443 442.176C336.546 441.244 335.082 440.364 334.112 439.697C333.618 439.379 333.261 439.094 333.011 438.911C332.765 438.725 332.642 438.619 332.652 438.604C332.678 438.569 333.223 438.923 334.227 439.526C335.227 440.135 336.71 440.961 338.611 441.841C342.393 443.562 348.006 445.554 354.433 445.587C357.625 445.584 360.641 444.928 363.293 444.149C365.955 443.368 368.271 442.413 370.176 441.539C372.079 440.659 373.581 439.865 374.601 439.29C375.627 438.722 376.189 438.393 376.212 438.429Z" fill="#23427D"/>
<path d="M420.559 440.331C420.556 440.349 420.383 440.349 420.056 440.335C419.667 440.311 419.195 440.281 418.628 440.247C418.311 440.223 417.967 440.198 417.598 440.171C417.216 440.168 416.805 440.165 416.37 440.162C415.489 440.151 414.488 440.123 413.381 440.21C412.825 440.24 412.247 440.27 411.645 440.301C411.043 440.37 410.418 440.44 409.773 440.513C408.474 440.622 407.113 440.921 405.67 441.155C402.809 441.762 399.706 442.618 396.552 443.804C393.41 445.023 390.537 446.455 388.011 447.898C386.783 448.673 385.576 449.356 384.539 450.124C384.012 450.493 383.501 450.851 383.008 451.195C382.539 451.564 382.087 451.921 381.656 452.262C380.776 452.921 380.05 453.593 379.398 454.173C379.076 454.458 378.772 454.725 378.488 454.976C378.23 455.235 377.991 455.475 377.768 455.698C377.366 456.091 377.033 456.417 376.758 456.686C376.522 456.908 376.392 457.019 376.379 457.008C376.365 456.996 376.468 456.862 376.678 456.617C376.933 456.328 377.244 455.979 377.617 455.559C377.829 455.326 378.06 455.074 378.308 454.802C378.584 454.54 378.878 454.259 379.192 453.962C379.828 453.36 380.543 452.662 381.414 451.979C381.842 451.627 382.289 451.259 382.755 450.878C383.245 450.523 383.755 450.154 384.281 449.773C385.316 448.983 386.523 448.279 387.757 447.486C390.292 446.006 393.186 444.548 396.358 443.317C399.542 442.121 402.681 441.269 405.575 440.683C407.034 440.459 408.41 440.174 409.723 440.083C410.376 440.02 411.007 439.957 411.615 439.899C412.223 439.878 412.807 439.859 413.369 439.841C414.485 439.776 415.495 439.832 416.382 439.869C416.82 439.887 417.232 439.905 417.616 439.921C417.987 439.965 418.33 440.007 418.649 440.044C419.215 440.119 419.685 440.18 420.072 440.231C420.394 440.278 420.562 440.313 420.559 440.331Z" fill="#23427D"/>
<path d="M324.108 455.659C324.049 455.703 323.442 454.507 321.709 452.879C319.997 451.252 317.028 449.338 312.92 448.094C310.873 447.468 308.562 447.002 306.061 446.619C303.56 446.231 300.865 445.929 298.042 445.454C295.213 445.003 292.298 444.212 289.334 443.326C286.362 442.461 283.286 441.535 280.043 441.142C273.53 440.34 267.247 441.677 261.944 443.577C259.275 444.529 256.839 445.676 254.582 446.798C252.326 447.923 250.258 449.035 248.38 450.069C244.626 452.138 241.638 453.899 239.578 455.124C238.578 455.72 237.788 456.193 237.208 456.539C236.959 456.684 236.756 456.804 236.588 456.901C236.446 456.98 236.372 457.017 236.367 457.01C236.363 457.002 236.427 456.95 236.558 456.856C236.718 456.747 236.912 456.614 237.15 456.451C237.674 456.1 238.453 455.59 239.467 454.953C241.495 453.674 244.456 451.861 248.192 449.747C250.061 448.693 252.124 447.56 254.379 446.413C256.632 445.27 259.083 444.097 261.773 443.125C267.115 441.184 273.478 439.806 280.111 440.622C283.416 441.024 286.518 441.964 289.486 442.835C292.455 443.728 295.323 444.515 298.129 444.979C300.93 445.463 303.624 445.782 306.132 446.19C308.642 446.594 310.97 447.084 313.036 447.741C317.179 449.045 320.167 451.038 321.855 452.732C323.567 454.431 324.108 455.659 324.108 455.659Z" fill="#23427D"/>
<path d="M225.869 438.704C225.897 438.705 225.909 439.131 225.804 439.89C225.712 440.652 225.452 441.741 224.951 443.026C223.947 445.558 221.878 448.997 218.248 451.382C214.619 453.648 210.953 454.962 208.311 455.837C206.983 456.267 205.897 456.575 205.139 456.766C204.383 456.959 203.958 457.041 203.947 457.007C203.937 456.971 204.342 456.823 205.078 456.571C205.919 456.278 206.956 455.916 208.184 455.487C210.778 454.528 214.396 453.166 217.952 450.943C221.445 448.651 223.529 445.33 224.597 442.885C225.685 440.401 225.758 438.686 225.869 438.704Z" fill="#23427D"/>
<path d="M124.616 457.01C124.592 456.983 124.97 456.63 125.678 456.016C126.379 455.395 127.439 454.548 128.783 453.541C131.466 451.524 135.376 448.989 139.905 446.559C144.438 444.132 148.672 442.191 151.745 440.816C153.283 440.129 154.533 439.588 155.403 439.224C156.272 438.859 156.759 438.674 156.776 438.707C156.792 438.74 156.333 438.988 155.492 439.409C154.556 439.865 153.351 440.45 151.91 441.151C148.88 442.612 144.68 444.601 140.165 447.018C135.655 449.438 131.738 451.908 129.01 453.84C127.644 454.803 126.551 455.604 125.811 456.175C125.066 456.736 124.64 457.037 124.616 457.01Z" fill="#23427D"/>
<path d="M145.164 439.464C145.16 439.524 144.156 439.339 142.351 439.472C140.554 439.612 137.959 440.187 135.076 441.626C132.159 443.011 129.083 445.307 125.623 447.805C123.882 449.042 122.016 450.314 119.931 451.398C117.845 452.487 115.538 453.324 113.124 453.952C108.269 455.169 103.491 455.45 99.1911 455.583C94.8794 455.706 91.004 455.622 87.759 455.752C84.5126 455.864 81.9011 456.172 80.1127 456.479C79.2208 456.641 78.5276 456.772 78.063 456.88C77.5954 456.98 77.3473 457.023 77.3414 457.007C77.3369 456.989 77.5744 456.911 78.0361 456.778C78.4947 456.638 79.182 456.472 80.0739 456.279C81.8577 455.907 84.4827 455.541 87.7426 455.381C91.001 455.204 94.8824 455.25 99.1747 455.1C103.461 454.942 108.203 454.646 112.988 453.445C115.37 452.827 117.636 452.008 119.684 450.946C121.737 449.886 123.59 448.637 125.332 447.415C128.793 444.949 131.929 442.655 134.907 441.294C137.851 439.878 140.511 439.346 142.336 439.269C143.252 439.233 143.965 439.278 144.441 439.336C144.919 439.403 145.167 439.446 145.164 439.464Z" fill="#23427D"/>
<path d="M417.187 438.354C417.187 438.499 398.959 438.616 376.479 438.616C353.991 438.616 335.766 438.499 335.766 438.354C335.766 438.209 353.99 438.093 376.479 438.093C398.959 438.093 417.187 438.211 417.187 438.354Z" fill="#23427D"/>
<path d="M51.1769 680.756H44.9798L41.4495 455.576H54.7057L51.1769 680.756Z" fill="#436FC3"/>
<path d="M470.956 438.426H415.655V457.01H470.956V438.426Z" fill="#436FC3"/>
<path d="M89.6263 334.742C89.3888 333.13 88.077 331.892 86.4546 331.745C84.1762 331.541 82.3087 333.526 82.6538 335.788L98.1078 430.107H105.164L89.6263 334.742Z" fill="#23427D"/>
<path d="M84.1164 335.9L147.819 265.918L148.282 266.686L151.37 271.799L89.3425 340.633C87.8111 342.333 85.092 342.145 83.8072 340.252C82.8914 338.905 83.0198 337.106 84.1164 335.9Z" fill="#23427D"/>
<path d="M88.7957 337.714C88.8391 337.715 88.9033 337.564 88.8779 337.273C88.8525 336.989 88.7076 336.55 88.2893 336.188C87.8874 335.827 87.1703 335.594 86.4487 335.839C85.733 336.06 85.0966 336.817 85.1056 337.714C85.0966 338.609 85.7345 339.368 86.4487 339.589C87.1718 339.834 87.8874 339.601 88.2893 339.239C88.7061 338.878 88.8525 338.438 88.8764 338.155C88.9033 337.863 88.8391 337.712 88.7957 337.714C88.6822 337.69 88.6807 338.367 87.9845 338.837C87.6528 339.06 87.1449 339.162 86.6743 338.969C86.2066 338.79 85.8152 338.289 85.8212 337.714C85.8167 337.137 86.2066 336.638 86.6743 336.459C87.1449 336.266 87.6528 336.369 87.9845 336.59C88.6807 337.06 88.6822 337.738 88.7957 337.714Z" fill="#436FC3"/>
<path d="M87.823 331.831C87.7497 331.765 87.0222 332.44 85.9046 333.587C85.3549 334.172 84.6676 334.818 83.9953 335.692C83.3469 336.55 82.7194 337.784 82.9914 339.171C83.3021 340.569 84.4973 341.429 85.5834 341.715C86.7069 342.04 87.802 341.734 88.5102 341.307C89.9414 340.411 90.4419 339.496 90.3956 339.462C90.3075 339.36 89.6382 340.158 88.2756 340.859C87.5959 341.189 86.6965 341.383 85.7657 341.081C84.8559 340.809 83.9132 340.068 83.6905 339.021C83.4739 337.959 83.9505 336.889 84.5287 336.076C85.1173 335.25 85.7822 334.545 86.2811 333.924C87.3015 332.693 87.8962 331.898 87.823 331.831Z" fill="#436FC3"/>
<path d="M133.126 438.429H75.1287C75.1287 438.429 82.5314 429.199 101.84 429.199C119.828 429.199 130.54 434.489 133.126 438.429Z" fill="#23427D"/>
<path d="M147.453 254.822L144.504 250.4L148.146 247.605L151.276 252.055L147.453 254.822Z" fill="#23427D"/>
<path d="M142.46 257.491L155.155 248.286L167.344 262.944C188.48 266.353 197.002 279.647 197.002 279.647L159.163 308.623C146.21 294.306 152.346 273.853 152.346 273.853L142.46 257.491Z" fill="#57A773"/>
<path d="M152.343 273.856C152.46 274.016 155.911 271.703 160.052 268.691C164.195 265.678 167.458 263.108 167.341 262.948C167.226 262.788 163.774 265.101 159.632 268.114C155.491 271.125 152.227 273.697 152.343 273.856Z" fill="#23427D"/>
<path d="M360.028 359.387L326.775 432.95C325.399 435.997 321.217 438.471 317.875 438.514L164.427 438.306C164.81 435.085 167.506 432.638 170.749 432.568L228.973 431.289L258.777 359.761C259.727 357.481 261.947 355.987 264.418 355.969L357.345 355.265C359.476 355.249 360.905 357.445 360.028 359.387Z" fill="#23427D"/>
<path d="M231.825 439.145C231.855 439.158 232.009 438.88 232.272 438.342C232.572 437.7 232.937 436.916 233.379 435.967C234.359 433.751 235.675 430.774 237.274 427.154C240.517 419.693 244.92 409.353 249.661 397.882C254.404 386.406 258.58 375.969 261.481 368.366C262.926 364.563 264.081 361.479 264.823 359.328C265.159 358.337 265.437 357.518 265.666 356.846C265.848 356.275 265.93 355.971 265.899 355.959C265.868 355.947 265.727 356.231 265.485 356.779C265.212 357.433 264.879 358.231 264.475 359.196C263.565 361.439 262.34 364.455 260.854 368.12C257.713 375.768 253.469 386.099 248.779 397.517C244.07 408.925 239.808 419.249 236.652 426.892C235.167 430.56 233.945 433.576 233.035 435.822C232.659 436.799 232.348 437.606 232.093 438.268C231.888 438.829 231.794 439.131 231.825 439.145Z" fill="#436FC3"/>
<path d="M291.996 395.051C291.996 397.677 294.125 399.806 296.751 399.806C299.378 399.806 301.507 397.677 301.507 395.051C301.507 392.424 299.378 390.295 296.751 390.295C294.125 390.295 291.996 392.424 291.996 395.051Z" fill="white"/>
<path d="M427.021 172.884C428.76 168.896 426.762 163.862 423.552 160.926C420.341 157.992 415.363 157.246 411.361 158.948C409.638 159.68 408.052 160.872 407.178 162.526C405.757 165.214 406.525 168.687 408.461 171.031C410.397 173.375 413.294 174.736 416.231 175.521C418.323 176.079 420.544 176.38 422.651 175.884C424.759 175.386 426.74 173.976 427.478 171.94" fill="#20355D"/>
<path d="M509.331 226.333C506.354 227.318 503.133 224.7 502.429 221.682C501.725 218.663 502.838 215.536 504.146 212.72C505.453 209.904 507.002 207.087 507.229 203.998C507.616 198.73 504.143 194.028 502.629 188.962C499.484 178.43 504.788 166.095 499.269 156.559C496.591 151.929 492.876 148.42 487.885 146.379C481.961 143.957 475.225 144.632 471.257 146.92C464.308 142.485 455.441 141.097 447.442 143.191C439.444 145.284 432.44 150.826 428.633 158.075C426.072 162.952 424.908 168.511 421.871 173.114C419.549 176.632 416.076 179.78 415.731 183.965C415.293 189.268 420.101 193.719 420.586 199.018C421.16 205.277 415.626 211.505 417.927 217.366C419.515 221.412 424.487 223.84 424.995 228.15C425.138 229.37 424.908 230.694 425.521 231.765C426.635 233.712 429.857 235.075 432.12 234.937C458.562 233.331 480.966 237.277 504.567 231.219C505.813 230.899 507.089 230.518 508.079 229.707C509.07 228.895 509.715 227.545 509.331 226.333Z" fill="#20355D"/>
<path d="M436.769 166.736L436.487 161.187L469.631 153.811C479.879 152.406 491.314 162.363 492.285 172.66C493.362 184.099 494.227 198.11 493.135 206.705C490.937 223.988 477.824 226.586 477.824 226.586L478.281 247.605L440.305 246.248L436.769 166.736Z" fill="#FFBE9D"/>
<path d="M487.716 185.426C487.794 186.59 486.872 187.615 485.659 187.716C484.447 187.819 483.402 186.962 483.324 185.798C483.246 184.634 484.168 183.609 485.378 183.506C486.591 183.405 487.639 184.264 487.716 185.426Z" fill="#20355D"/>
<path d="M488.874 180.079C488.609 180.375 486.9 179.19 484.526 179.271C482.155 179.317 480.451 180.591 480.185 180.309C480.055 180.185 480.316 179.656 481.057 179.081C481.786 178.509 483.043 177.933 484.522 177.895C486.001 177.857 487.26 178.362 487.992 178.897C488.741 179.433 489.005 179.946 488.874 180.079Z" fill="#20355D"/>
<path d="M465.611 186.446C465.689 187.61 464.767 188.635 463.554 188.738C462.342 188.841 461.296 187.984 461.219 186.82C461.141 185.656 462.063 184.63 463.274 184.528C464.486 184.423 465.533 185.282 465.611 186.446Z" fill="#20355D"/>
<path d="M465.559 181.246C465.294 181.542 463.582 180.358 461.211 180.437C458.84 180.484 457.135 181.758 456.868 181.476C456.738 181.352 456.998 180.824 457.742 180.248C458.471 179.674 459.728 179.1 461.207 179.061C462.686 179.024 463.945 179.529 464.679 180.064C465.424 180.6 465.689 181.113 465.559 181.246Z" fill="#20355D"/>
<path d="M474.718 198.579C474.703 198.445 476.171 198.144 478.552 197.763C479.156 197.681 479.726 197.544 479.814 197.127C479.943 196.685 479.669 196.039 479.354 195.343C478.739 193.894 478.095 192.376 477.418 190.785C474.726 184.292 472.757 178.945 473.018 178.839C473.281 178.733 475.676 183.91 478.37 190.402C479.02 192.004 479.64 193.531 480.23 194.992C480.481 195.673 480.899 196.443 480.618 197.361C480.469 197.819 480.034 198.162 479.649 198.279C479.263 198.409 478.924 198.427 478.624 198.454C476.223 198.657 474.73 198.715 474.718 198.579Z" fill="#20355D"/>
<path d="M477.817 226.63C477.817 226.63 465.683 227.718 454.006 221.185C454.006 221.185 460.188 233.046 477.938 230.92L477.817 226.63Z" fill="#EB996E"/>
<path d="M473.892 204.331C473.003 203.228 471.49 202.655 470.009 202.861C468.983 203.004 467.958 203.533 467.359 204.391C466.758 205.248 466.664 206.444 467.259 207.226C467.927 208.106 469.271 208.274 470.395 207.917C471.518 207.56 472.47 206.783 473.372 206.012C473.622 205.798 473.877 205.576 474.028 205.289C474.179 205.002 474.201 204.633 473.997 204.406" fill="#EB996E"/>
<path d="M467.785 200.439C468.17 200.405 468.255 202.98 470.517 204.74C472.775 206.506 475.513 206.131 475.545 206.491C475.585 206.651 474.948 207.011 473.791 207.078C472.655 207.153 470.983 206.839 469.6 205.762C468.22 204.682 467.595 203.204 467.474 202.15C467.34 201.076 467.607 200.429 467.785 200.439Z" fill="#20355D"/>
<path d="M465.883 174.527C465.669 175.18 463.289 174.947 460.516 175.37C457.733 175.736 455.513 176.62 455.126 176.054C454.953 175.782 455.325 175.164 456.214 174.511C457.093 173.859 458.511 173.221 460.177 172.984C461.843 172.749 463.382 172.967 464.408 173.348C465.443 173.726 465.974 174.218 465.883 174.527Z" fill="#20355D"/>
<path d="M488.55 171.941C488.15 172.492 486.497 171.984 484.53 172.019C482.562 171.984 480.91 172.494 480.509 171.941C480.333 171.672 480.578 171.124 481.291 170.592C481.991 170.062 483.178 169.607 484.53 169.607C485.882 169.609 487.068 170.06 487.769 170.59C488.48 171.125 488.726 171.672 488.55 171.941Z" fill="#20355D"/>
<path d="M465.92 151.766C456.451 153.386 447.091 155.636 437.92 158.494C436.511 158.933 435.002 159.46 434.167 160.678C433.318 161.915 433.385 163.537 433.462 165.036C433.922 174.069 433.535 183.146 432.304 192.107C431.74 196.213 431.991 200.364 432.853 204.418C434.483 212.08 433.324 235.015 439.412 234.667C462.218 229.813 446.48 212.972 444.138 205.088C443.35 202.441 444.236 199.393 446.06 197.318C447.436 195.754 449.376 194.787 450.834 193.298C453.895 190.168 454.351 184.728 451.452 181.285C450.366 179.994 449.532 178.47 449.423 176.786C449.143 172.436 453.447 171.723 456.726 170.677C463.603 168.484 472.997 157.63 471.025 150.829L465.92 151.766Z" fill="#20355D"/>
<path d="M423.951 169.875C423.994 169.702 426.776 171.076 431.604 171.188C436.396 171.346 443.086 170.027 449.63 166.682C456.181 163.333 461.317 158.96 464.846 155.683C466.621 154.043 467.988 152.64 468.948 151.685C469.893 150.714 470.435 150.194 470.475 150.23C470.516 150.266 470.05 150.855 469.171 151.892C468.278 152.913 466.964 154.379 465.227 156.081C461.774 159.478 456.641 163.969 449.982 167.375C443.326 170.78 436.472 172.043 431.584 171.738C429.135 171.609 427.19 171.146 425.896 170.711C425.247 170.493 424.756 170.299 424.433 170.139C424.106 169.99 423.94 169.9 423.951 169.875Z" fill="#20355D"/>
<path d="M468.276 147.102C468.315 147.13 467.951 147.711 467.207 148.7C466.464 149.691 465.312 151.068 463.751 152.643C460.654 155.797 455.731 159.65 449.477 162.326C443.223 165.009 437.037 165.914 432.618 165.981C430.4 166.023 428.608 165.908 427.38 165.763C426.15 165.62 425.479 165.483 425.485 165.435C425.497 165.29 428.215 165.654 432.597 165.432C436.962 165.226 443.023 164.248 449.171 161.612C455.317 158.982 460.207 155.268 463.368 152.25C466.551 149.229 468.163 147.011 468.276 147.102Z" fill="#20355D"/>
<path d="M501.201 161.489C501.198 161.543 500.756 161.559 499.957 161.543C499.157 161.538 498.002 161.441 496.583 161.255C493.75 160.875 489.853 159.928 485.885 158.05C481.919 156.164 478.697 153.814 476.501 151.998C475.404 151.082 474.544 150.311 473.979 149.746C473.41 149.187 473.112 148.86 473.148 148.82C473.23 148.729 474.578 149.861 476.841 151.564C479.108 153.257 482.33 155.497 486.218 157.345C490.108 159.187 493.897 160.197 496.673 160.711C499.452 161.225 501.21 161.358 501.201 161.489Z" fill="#20355D"/>
<path d="M419.575 205.456C419.514 205.437 419.69 204.815 419.935 203.686C420.16 202.564 420.531 200.896 420.305 198.881C420.187 197.878 419.893 196.807 419.349 195.745C418.825 194.668 418.084 193.622 417.352 192.424C415.953 190.024 414.87 186.939 415.284 183.636C415.49 182 416.171 180.451 417.087 179.226C417.982 177.98 418.959 176.928 419.747 175.825C421.348 173.629 422.52 171.456 423.447 169.607C424.369 167.753 425.058 166.221 425.552 165.169C426.044 164.116 426.337 163.54 426.386 163.561C426.435 163.582 426.238 164.195 425.83 165.285C425.421 166.374 424.808 167.945 423.942 169.845C423.069 171.739 421.935 173.973 420.326 176.245C418.743 178.518 416.357 180.611 416.053 183.741C415.665 186.791 416.659 189.747 417.97 192.064C418.653 193.219 419.407 194.327 419.929 195.464C420.476 196.594 420.764 197.76 420.851 198.824C421.014 200.966 420.543 202.644 420.226 203.76C419.889 204.882 419.615 205.469 419.575 205.456Z" fill="#20355D"/>
<path d="M523.188 319.465L501.906 333.265L499.971 354.769C499.971 354.769 506.234 357.692 515.421 349.342C524.606 340.99 536.571 324.054 536.571 324.054L523.188 319.465Z" fill="#FFBE9D"/>
<path d="M522.243 328.296L515.269 292.93L496.668 300.297L501.421 346.875L522.243 328.296Z" fill="#FFBE9D"/>
<path d="M572.659 283.528C572.383 282.775 571.731 282.222 570.944 282.07L557.571 279.488C556.392 279.28 555.181 279.585 554.239 280.325L513.858 312.092L515.512 313.925L529.79 318.278L572.892 284.163L572.659 283.528Z" fill="#20355D"/>
<path d="M561.819 285.752C562.01 286.084 562.524 286.145 562.964 285.89C563.407 285.634 563.61 285.159 563.417 284.828C563.226 284.496 562.713 284.435 562.271 284.69C561.83 284.947 561.627 285.422 561.819 285.752Z" fill="white"/>
<path d="M572.894 284.163C572.883 284.218 571.945 284.091 570.258 283.813C568.44 283.494 566.038 283.072 563.13 282.563C561.615 282.285 559.972 281.983 558.217 281.66C557.387 281.46 556.533 281.634 555.847 282.153C555.097 282.748 554.328 283.359 553.54 283.985C550.357 286.497 546.874 289.244 543.218 292.127C535.88 297.888 529.208 303.067 524.354 306.784C521.999 308.564 520.052 310.038 518.579 311.152C517.205 312.169 516.428 312.71 516.394 312.667C516.359 312.622 517.069 311.998 518.384 310.904C519.815 309.739 521.708 308.197 523.998 306.332C528.761 302.5 535.376 297.25 542.715 291.489C546.384 288.624 549.88 285.893 553.076 283.396C553.875 282.776 554.656 282.173 555.415 281.584C556.259 280.937 557.414 280.758 558.326 280.999C560.077 281.356 561.715 281.692 563.227 282C566.117 282.614 568.507 283.122 570.313 283.506C571.985 283.875 572.904 284.108 572.894 284.163Z" fill="#20355D"/>
<path d="M553.769 293.928C553.769 293.928 552.699 293.336 551.019 296.24C549.338 299.143 544.294 307.396 544.294 307.396L539.404 302.2L531.61 300.637C531.61 300.637 529.471 301.589 530.388 302.811C531.305 304.033 535.736 306.479 535.736 306.479L537.517 312.664L529.166 304.457C529.166 304.457 525.54 304.194 525.824 306.559C526.109 308.924 530.682 317.573 530.682 317.573L525.809 315.495L521.086 309.861C521.086 309.861 519.232 309.325 519.385 311.11C519.537 312.897 523.817 320.615 523.817 320.615L530.083 326.803C530.083 326.803 534.289 327.873 535.09 326.803C535.89 325.733 536.575 324.053 536.575 324.053C536.575 324.053 538.949 324.205 539.712 323.288C540.477 322.37 540.782 320.613 540.782 320.613C540.782 320.613 543.991 322.372 545.061 320.613C546.13 318.855 547.048 314.986 547.2 313.405C547.352 311.824 553.772 298.834 553.772 298.375C553.772 297.917 556.215 293.754 553.769 293.928Z" fill="#FFBE9D"/>
<path d="M535.345 326.909C535.34 327.006 534.507 327.08 533.182 326.852C531.861 326.631 530.062 326.043 528.313 324.949C526.568 323.848 525.256 322.482 524.484 321.389C523.705 320.294 523.408 319.511 523.493 319.465C523.701 319.32 525.379 322.187 528.743 324.263C532.075 326.392 535.385 326.66 535.345 326.909Z" fill="#EB996E"/>
<path d="M534.483 323.615C534.307 323.749 533.215 322.6 532.191 320.953C531.163 319.306 530.618 317.818 530.815 317.721C531.018 317.618 531.875 318.913 532.882 320.524C533.881 322.137 534.664 323.479 534.483 323.615Z" fill="#EB996E"/>
<path d="M540.626 318.483C540.455 318.617 539.365 317.49 538.454 315.804C537.537 314.122 537.183 312.595 537.39 312.523C537.607 312.444 538.284 313.796 539.168 315.417C540.045 317.04 540.81 318.344 540.626 318.483Z" fill="#EB996E"/>
<path d="M546.55 314.678C546.315 314.696 546.041 313.03 545.371 311.094C544.718 309.15 543.922 307.664 544.118 307.535C544.29 307.408 545.446 308.774 546.139 310.832C546.847 312.887 546.764 314.673 546.55 314.678Z" fill="#EB996E"/>
<path d="M488.881 243.357C488.881 243.357 501.504 249.011 505.846 256.159C510.186 263.31 521.932 304.211 521.932 304.211L505.406 307.483L488.881 243.357Z" fill="#57A773"/>
<path d="M480.407 240.822L439.925 237.708L445.145 260.003L481.402 272.088L486.212 263.949L480.407 240.822Z" fill="#FFBE9D"/>
<path d="M506.125 288.998C502.865 277.769 488.882 243.357 488.882 243.357L478.119 240.136C478.119 240.136 478.129 251.364 474.145 252.088C470.16 252.813 451.037 252.934 441.649 240.822L439.925 237.708L413.2 254.825V254.828C408.757 257.561 402.186 263.958 401.238 277.032C400.373 288.963 398.923 320.617 398.923 320.617L425.028 319.701L427.157 331.379L425.346 345.144C425.346 345.144 421.725 364.61 423.897 367.555C426.071 370.5 429.692 370.861 429.692 370.861L499.969 365.428L502.296 326.748C502.299 326.749 509.385 300.228 506.125 288.998Z" fill="#57A773"/>
<path d="M404 320.617C404 320.617 401.494 344.804 404.279 355.902C407.161 367.382 412.846 367.21 417.644 367.553C422.442 367.896 497.995 328.296 497.995 328.296L489.609 313.408L432.723 330.543L433.252 319.436L404 320.617Z" fill="#FFBE9D"/>
<path d="M489.138 313.855L502.777 296.78L515.083 293.928L530.092 295.579C530.092 295.579 530.693 297.83 528.292 299.031L533.545 299.332C533.545 299.332 534.595 302.033 531.593 303.234L535.345 303.893C535.345 303.893 533.694 307.737 529.491 306.985C525.289 306.234 518.385 306.235 518.385 306.235L511.031 310.287L521.987 309.837L529.941 311.339C529.941 311.339 530.991 313.372 529.191 313.856C527.389 314.34 520.487 313.856 520.487 313.856L509.981 316.592C509.981 316.592 507.73 323.345 506.379 324.846C505.029 326.348 497.524 328.299 497.524 328.299L489.138 313.855Z" fill="#FFBE9D"/>
<path d="M533.545 299.33C533.533 299.442 531.973 299.376 529.463 299.179C526.953 298.982 523.492 298.655 519.673 298.242C518.4 298.1 517.17 297.962 516.008 297.833L516.159 297.82C513.317 298.62 510.849 299.285 509.085 299.727C507.32 300.17 506.26 300.388 506.234 300.298C506.209 300.209 507.22 299.825 508.946 299.251C510.672 298.677 513.111 297.915 515.939 297.068L516.011 297.047L516.09 297.056C517.254 297.177 518.484 297.304 519.758 297.437C523.577 297.849 527.028 298.266 529.523 298.61C532.019 298.951 533.557 299.218 533.545 299.33Z" fill="#EB996E"/>
<path d="M534.45 303.734C534.433 303.845 533.022 303.742 530.751 303.483C528.48 303.225 525.353 302.813 521.905 302.308C520.711 302.127 519.561 301.954 518.473 301.789L518.675 301.765C513.743 303.69 510.107 304.979 510.038 304.807C509.969 304.635 513.489 303.056 518.385 301.042L518.48 301.003L518.588 301.018C519.679 301.174 520.829 301.337 522.024 301.505C525.472 302.01 528.586 302.512 530.836 302.916C533.083 303.319 534.465 303.624 534.45 303.734Z" fill="#EB996E"/>
<path d="M497.526 328.296C497.52 328.27 497.932 328.139 498.725 327.889C499.517 327.637 500.693 327.269 502.19 326.73C502.936 326.454 503.765 326.138 504.637 325.725C505.076 325.523 505.514 325.278 505.929 324.986C506.324 324.704 506.59 324.228 506.862 323.738C507.906 321.734 508.798 319.254 509.73 316.508L509.777 316.374L509.914 316.336C513.033 315.507 516.567 314.569 520.405 313.548L520.453 313.536L520.506 313.539C522.296 313.647 524.191 313.734 526.151 313.731C527.119 313.717 528.156 313.719 529.067 313.525C529.502 313.414 529.795 313.175 529.866 312.792C529.938 312.408 529.813 311.904 529.62 311.503L529.872 311.691C527.355 311.222 524.675 310.723 521.915 310.209L522 310.215C518.505 310.365 514.828 310.522 511.046 310.683L509.366 310.755L510.84 309.94C513.177 308.65 515.661 307.278 518.191 305.881L518.283 305.83H518.386C521.164 305.851 524.092 305.948 527.065 306.246C527.884 306.332 528.698 306.437 529.511 306.576C530.268 306.697 531.021 306.706 531.737 306.518C533.165 306.164 534.35 305.015 534.976 303.731L535.276 304.287C534.014 304.065 532.763 303.843 531.525 303.625L530.144 303.382L531.446 302.86C532.149 302.578 532.763 302.127 533.072 301.508C533.395 300.906 533.386 300.107 533.177 299.472L533.522 299.723C531.744 299.618 529.993 299.517 528.271 299.415L526.837 299.332L528.12 298.683C528.703 298.389 529.199 297.967 529.481 297.428C529.774 296.907 529.841 296.224 529.727 295.676L530.052 295.955C524.731 295.355 519.707 294.788 515.049 294.264L515.162 294.256C510.676 295.275 506.558 296.211 502.844 297.053L503.001 296.955C498.76 302.179 495.327 306.407 492.909 309.386C491.739 310.799 490.818 311.914 490.145 312.725C489.848 313.07 489.608 313.351 489.412 313.58C489.243 313.77 489.152 313.862 489.141 313.853C489.131 313.844 489.201 313.735 489.349 313.529C489.528 313.288 489.748 312.991 490.02 312.625C490.664 311.79 491.547 310.644 492.666 309.192C495.037 306.176 498.401 301.894 502.559 296.602L502.619 296.526L502.716 296.503C506.422 295.628 510.532 294.655 515.01 293.598L515.065 293.584L515.124 293.59C519.785 294.091 524.812 294.63 530.135 295.199L530.407 295.229L530.459 295.479C530.627 296.278 530.533 297.067 530.158 297.782C529.789 298.493 529.149 299.027 528.465 299.373L528.314 298.641C530.038 298.737 531.789 298.834 533.567 298.934L533.834 298.949L533.912 299.185C534.203 300.062 534.209 301.008 533.782 301.862C533.359 302.712 532.551 303.277 531.741 303.6L531.662 302.835C532.902 303.052 534.151 303.27 535.415 303.491L535.941 303.583L535.715 304.048C534.971 305.578 533.654 306.851 531.942 307.301C531.099 307.525 530.208 307.511 529.369 307.374C528.583 307.239 527.785 307.136 526.98 307.051C524.055 306.758 521.131 306.66 518.385 306.636L518.579 306.586C516.048 307.977 513.561 309.346 511.221 310.632L511.014 309.89C514.796 309.74 518.473 309.595 521.969 309.458L522.014 309.456L522.056 309.464C524.814 309.991 527.492 310.504 530.005 310.983L530.188 311.018L530.258 311.171C530.507 311.718 530.667 312.277 530.561 312.925C530.459 313.605 529.796 314.095 529.242 314.198C528.145 314.421 527.152 314.394 526.151 314.406C524.162 314.396 522.266 314.294 520.462 314.17L520.563 314.161C516.713 315.143 513.172 316.045 510.044 316.843L510.226 316.671C509.249 319.43 508.329 321.891 507.219 323.935C506.929 324.431 506.639 324.948 506.154 325.29C505.693 325.601 505.233 325.843 504.781 326.04C503.88 326.443 503.037 326.739 502.28 326.997C500.759 327.498 499.568 327.822 498.761 328.03C498.392 328.118 498.09 328.19 497.839 328.248C497.636 328.293 497.529 328.308 497.526 328.296Z" fill="#EB996E"/>
<path d="M398.167 320.617C398.166 320.593 398.418 320.561 398.904 320.522C399.466 320.487 400.169 320.442 401.036 320.385C402.993 320.291 405.678 320.164 408.994 320.005C415.876 319.743 425.364 319.378 436.257 318.961L435.876 319.342C435.977 315.519 435.912 311.446 435.697 307.256C435.351 300.337 434.748 293.753 434.361 287.749C434.15 284.744 434.067 281.886 433.825 279.239C433.587 276.588 433.224 274.135 432.692 271.942C431.658 267.541 429.906 264.261 428.436 262.221C426.955 260.171 425.856 259.265 425.915 259.206C425.932 259.188 426.214 259.398 426.712 259.853C427.208 260.307 427.901 261.022 428.688 262.032C430.258 264.045 432.126 267.348 433.248 271.805C433.823 274.023 434.225 276.505 434.492 279.176C434.766 281.852 434.875 284.707 435.105 287.698C435.532 293.689 436.158 300.273 436.505 307.217C436.721 311.421 436.778 315.519 436.662 319.368L436.65 319.738L436.281 319.749C425.383 320.052 415.892 320.316 409.009 320.509C405.69 320.57 403.003 320.62 401.043 320.657C400.177 320.658 399.471 320.66 398.907 320.661C398.421 320.655 398.167 320.639 398.167 320.617Z" fill="#20355D"/>
<path d="M493.296 400.109C490.372 395.098 485.78 393.428 485.78 393.428L485.363 366.557L429.695 370.861C429.695 370.861 409.789 398.021 409.789 408.878C409.789 419.733 409.789 441.43 433.799 457.071L489.537 417.228C489.537 417.228 496.218 405.12 493.296 400.109Z" fill="#20355D"/>
<path d="M537.1 469.411L488.882 420.408L472.461 367.555L499.971 365.429L503.337 394.054" fill="#20355D"/>
<path d="M453.997 369.787C454.046 369.777 454.23 370.377 454.454 371.487C454.676 372.596 454.932 374.22 455.041 376.25C455.137 378.276 455.075 380.722 454.525 383.373C453.991 386.021 452.891 388.861 451.089 391.437C449.279 394 446.914 396.007 444.414 397.127C441.918 398.26 439.406 398.558 437.361 398.409C435.305 398.245 433.71 397.671 432.703 397.139C432.199 396.867 431.821 396.637 431.587 396.447C431.346 396.27 431.228 396.165 431.243 396.141C431.307 395.959 433.388 397.662 437.392 397.835C439.357 397.906 441.746 397.559 444.099 396.447C446.452 395.349 448.69 393.427 450.426 390.968C453.952 385.978 454.525 380.202 454.467 376.268C454.381 372.266 453.85 369.809 453.997 369.787Z" fill="#20355D"/>
<path d="M493.08 389.202C493.138 389.278 492.189 390.143 490.44 391.245C488.695 392.349 486.109 393.631 483.068 394.517C480.025 395.396 477.154 395.696 475.089 395.696C473.02 395.7 471.757 395.476 471.765 395.381C471.762 395.115 476.885 395.5 482.843 393.739C488.817 392.042 492.939 388.976 493.08 389.202Z" fill="#20355D"/>
<path d="M489.995 370.01C489.951 369.932 490.957 369.66 492.161 370.571C492.727 371.011 493.299 371.841 493.268 372.88C493.251 373.873 492.696 375.023 491.563 375.533C490.407 376.014 489.167 375.591 488.48 374.832C487.734 374.051 487.777 372.917 488.126 372.278C488.459 371.596 488.994 371.232 489.382 371.112C489.776 370.988 490.004 371.049 490.005 371.096C490.054 371.209 489.089 371.332 488.654 372.502C488.447 373.054 488.484 373.798 489.025 374.32C489.531 374.841 490.48 375.121 491.241 374.789C492.013 374.453 492.478 373.603 492.521 372.85C492.584 372.086 492.212 371.424 491.781 371.002C490.882 370.134 489.971 370.143 489.995 370.01Z" fill="#20355D"/>
<path d="M498.418 404.052C498.211 404.067 498.125 401.563 499.456 398.86C500.763 396.144 502.787 394.668 502.902 394.84C503.07 395.016 501.406 396.667 500.186 399.214C498.933 401.747 498.66 404.076 498.418 404.052Z" fill="#20355D"/>
<path d="M456.977 372.387C457.031 372.4 456.947 372.86 456.748 373.686C456.566 374.516 456.173 375.687 455.577 377.085C454.993 378.491 454.118 380.09 452.994 381.764C451.838 383.415 450.414 385.129 448.715 386.726C446.997 388.302 445.182 389.596 443.449 390.625C441.695 391.622 440.035 392.375 438.59 392.854C437.152 393.344 435.955 393.651 435.114 393.77C434.276 393.908 433.811 393.957 433.801 393.902C433.771 393.754 435.613 393.415 438.39 392.318C439.783 391.782 441.377 390.991 443.068 389.984C444.737 388.943 446.491 387.667 448.165 386.133C449.821 384.578 451.222 382.924 452.385 381.337C453.512 379.727 454.421 378.195 455.059 376.848C456.357 374.158 456.832 372.345 456.977 372.387Z" fill="#20355D"/>
<path d="M433.799 457.071C434.196 457.418 512.842 525.619 512.842 525.619L487.883 618.36L535.945 632.797C535.945 632.797 566.197 527.21 567.337 509.475C568.477 491.739 556.8 487.269 551.523 480.144C546.248 473.019 487.973 417.484 487.973 417.484L433.799 457.071Z" fill="#20355D"/>
<path d="M466.704 406.796C466.704 406.796 467.669 406.686 469.473 407.006C471.267 407.337 473.859 408.159 476.941 409.744C479.999 411.329 483.721 413.515 487.195 417.032C490.734 420.434 494.757 424.303 499.203 428.579C508.075 437.178 518.625 447.406 530.338 458.762C536.162 464.481 542.272 470.484 548.608 476.707C551.758 479.84 554.967 483.019 558.158 486.322C561.372 489.604 564.231 493.539 565.701 498.099C566.518 500.348 566.937 502.695 567.24 505.025C567.457 507.368 567.472 509.708 567.3 512.017C566.904 516.647 565.849 521.053 564.76 525.374C562.513 533.967 560.345 542.257 558.281 550.155C554.076 565.919 550.291 580.12 547.107 592.057C543.892 603.948 541.288 613.581 539.477 620.28C538.566 623.58 537.855 626.154 537.362 627.943C537.118 628.79 536.93 629.45 536.792 629.93C536.659 630.376 536.573 630.601 536.573 630.601C536.573 630.601 536.609 630.363 536.716 629.91C536.836 629.425 537 628.758 537.211 627.902C537.671 626.107 538.336 623.519 539.186 620.202C540.94 613.488 543.463 603.834 546.577 591.916C549.714 579.966 553.446 565.753 557.589 549.972C559.64 542.074 561.791 533.782 564.024 525.187C565.099 520.905 566.151 516.477 566.53 511.956C566.698 509.688 566.68 507.398 566.469 505.108C566.17 502.832 565.764 500.542 564.968 498.355C563.529 493.907 560.776 490.109 557.601 486.86C554.422 483.566 551.214 480.382 548.072 477.247C541.749 471.014 535.649 465.003 529.838 459.275C518.17 447.875 507.658 437.607 498.821 428.975C494.405 424.669 490.408 420.773 486.893 417.345C483.477 413.829 479.828 411.637 476.802 410.014C473.762 408.398 471.21 407.537 469.443 407.161C468.557 406.982 467.87 406.895 467.408 406.861C466.943 406.831 466.704 406.796 466.704 406.796Z" fill="#20355D"/>
<path d="M652.796 358.898C652.695 359.024 651.856 358.519 650.922 357.772C649.988 357.023 649.312 356.317 649.413 356.19C649.513 356.064 650.353 356.569 651.287 357.316C652.22 358.066 652.896 358.773 652.796 358.898Z" fill="#20355D"/>
<path d="M678.277 320.812C678.431 317.253 678.531 313.603 677.408 310.224C676.284 306.845 673.679 303.736 670.19 303.012C666.209 302.188 662.13 304.701 659.9 308.099C657.669 311.498 656.903 315.625 656.244 319.636C651.704 347.278 650.027 375.391 651.251 403.376L667.54 405.661C674.695 376.429 676.978 350.879 678.277 320.812Z" fill="#23427D"/>
<path d="M667.93 302.887C667.939 302.891 667.913 302.98 667.857 303.147C667.783 303.346 667.695 303.589 667.588 303.885C667.322 304.574 666.96 305.513 666.503 306.698C666.276 307.312 665.974 307.975 665.731 308.734C665.487 309.496 665.223 310.32 664.94 311.201C664.655 312.087 664.35 313.033 664.028 314.034C663.762 315.056 663.481 316.133 663.186 317.264C661.957 321.779 660.938 327.266 660.04 333.384C659.159 339.509 658.58 346.295 658.126 353.424C657.293 367.697 657.163 380.653 656.795 390.02C656.62 394.705 656.46 398.495 656.281 401.111C656.194 402.381 656.127 403.387 656.076 404.123C656.05 404.439 656.027 404.696 656.009 404.906C655.991 405.082 655.976 405.172 655.966 405.172C655.955 405.172 655.951 405.081 655.949 404.903C655.952 404.691 655.955 404.434 655.96 404.117C655.984 403.379 656.015 402.372 656.056 401.101C656.165 398.484 656.263 394.692 656.384 390.008C656.646 380.641 656.711 367.685 657.545 353.389C658.001 346.247 658.597 339.448 659.51 333.308C660.439 327.175 661.504 321.675 662.789 317.158C663.098 316.027 663.393 314.949 663.673 313.928C664.013 312.928 664.332 311.984 664.633 311.098C664.933 310.218 665.212 309.398 665.471 308.639C665.731 307.884 666.049 307.224 666.292 306.614C666.793 305.443 667.19 304.517 667.482 303.837C667.612 303.549 667.718 303.314 667.804 303.121C667.878 302.962 667.919 302.882 667.93 302.887Z" fill="#20355D"/>
<path d="M669.439 302.896C669.439 302.896 670.437 303.921 671.429 306.266C672.454 308.592 673.096 312.29 672.914 316.804C672.481 325.805 671.675 338.208 670.604 351.902C669.527 365.599 668.333 377.98 667.371 386.929C666.89 391.405 666.475 395.022 666.167 397.521C666.012 398.73 665.889 399.689 665.798 400.396C665.753 400.695 665.717 400.94 665.687 401.141C665.659 401.309 665.64 401.394 665.631 401.394C665.62 401.392 665.62 401.306 665.629 401.135C665.644 400.931 665.66 400.684 665.683 400.384C665.747 399.674 665.834 398.712 665.943 397.497C666.189 394.94 666.536 391.329 666.962 386.889C667.818 377.931 668.946 365.548 670.023 351.857C671.094 338.172 671.965 325.763 672.502 316.79C672.735 312.308 672.162 308.672 671.217 306.35C670.307 304.013 669.367 302.938 669.439 302.896Z" fill="#20355D"/>
<path d="M680.732 345.055C680.678 345.206 679.295 344.849 677.644 344.257C675.993 343.664 674.699 343.062 674.753 342.911C674.807 342.76 676.189 343.117 677.841 343.709C679.492 344.301 680.787 344.904 680.732 345.055Z" fill="#20355D"/>
<path d="M682.695 328.454C682.761 328.6 681.446 329.332 679.758 330.087C678.07 330.843 676.649 331.336 676.583 331.188C676.517 331.041 677.832 330.309 679.52 329.555C681.207 328.8 682.629 328.307 682.695 328.454Z" fill="#20355D"/>
<path d="M681.678 314.905C681.667 315.065 680.579 315.121 679.25 315.029C677.919 314.938 676.85 314.733 676.861 314.572C676.871 314.412 677.959 314.355 679.29 314.448C680.618 314.539 681.688 314.743 681.678 314.905Z" fill="#20355D"/>
<path d="M664.867 306.221C664.731 306.307 664.019 305.418 663.274 304.236C662.53 303.054 662.037 302.026 662.173 301.941C662.309 301.856 663.022 302.745 663.766 303.927C664.51 305.108 665.003 306.136 664.867 306.221Z" fill="#20355D"/>
<path d="M659.312 314.415C659.31 314.576 658.273 314.684 656.998 314.657C655.724 314.63 654.693 314.477 654.698 314.316C654.701 314.155 655.736 314.047 657.012 314.074C658.286 314.101 659.317 314.253 659.312 314.415Z" fill="#20355D"/>
<path d="M655.325 330.808C655.265 330.958 654.175 330.659 652.89 330.14C651.605 329.622 650.613 329.081 650.673 328.932C650.732 328.782 651.823 329.081 653.108 329.6C654.391 330.118 655.385 330.659 655.325 330.808Z" fill="#20355D"/>
<path d="M654.898 344.595C654.931 344.752 654.003 345.08 652.826 345.327C651.648 345.573 650.667 345.647 650.634 345.49C650.601 345.333 651.529 345.004 652.706 344.758C653.883 344.511 654.865 344.438 654.898 344.595Z" fill="#20355D"/>
<path d="M653.021 367.147C653.05 367.305 652.063 367.614 650.82 367.837C649.576 368.06 648.545 368.112 648.517 367.954C648.488 367.795 649.473 367.486 650.717 367.263C651.962 367.041 652.993 366.988 653.021 367.147Z" fill="#20355D"/>
<path d="M651.775 379.595C651.85 379.737 651.028 380.319 649.941 380.895C648.851 381.47 647.909 381.822 647.834 381.68C647.759 381.539 648.58 380.957 649.669 380.381C650.756 379.804 651.701 379.453 651.775 379.595Z" fill="#20355D"/>
<path d="M661.94 393.725C661.801 393.804 661.084 392.817 660.342 391.518C659.598 390.219 659.108 389.103 659.248 389.022C659.387 388.943 660.104 389.93 660.847 391.229C661.591 392.527 662.081 393.644 661.94 393.725Z" fill="#20355D"/>
<path d="M664.873 370.244C664.985 370.359 664.189 371.323 663.092 372.397C661.996 373.472 661.016 374.249 660.904 374.134C660.792 374.019 661.588 373.056 662.684 371.98C663.781 370.907 664.761 370.129 664.873 370.244Z" fill="#20355D"/>
<path d="M664.225 357.924C664.107 358.034 663.367 357.427 662.572 356.569C661.778 355.712 661.229 354.927 661.347 354.818C661.465 354.709 662.205 355.316 663 356.173C663.794 357.031 664.343 357.815 664.225 357.924Z" fill="#20355D"/>
<path d="M666.24 342.182C666.36 342.29 665.695 343.226 664.755 344.275C663.815 345.324 662.956 346.087 662.837 345.98C662.717 345.872 663.382 344.936 664.322 343.887C665.262 342.839 666.121 342.076 666.24 342.182Z" fill="#20355D"/>
<path d="M667.376 330.759C667.264 330.874 666.336 330.145 665.305 329.131C664.273 328.116 663.529 327.202 663.641 327.088C663.753 326.973 664.68 327.702 665.713 328.717C666.744 329.73 667.489 330.644 667.376 330.759Z" fill="#20355D"/>
<path d="M669.606 315.316C669.744 315.398 669.279 316.433 668.566 317.627C667.854 318.822 667.165 319.723 667.026 319.641C666.889 319.558 667.353 318.523 668.066 317.329C668.779 316.134 669.469 315.233 669.606 315.316Z" fill="#20355D"/>
<path d="M673.801 301.004C673.943 301.081 673.531 302.117 672.881 303.319C672.231 304.521 671.59 305.433 671.45 305.357C671.308 305.28 671.72 304.243 672.37 303.042C673.019 301.84 673.661 300.928 673.801 301.004Z" fill="#20355D"/>
<path d="M678.561 307.505C678.63 307.65 677.978 308.105 677.106 308.524C676.232 308.942 675.468 309.163 675.4 309.018C675.331 308.873 675.982 308.418 676.855 307.999C677.727 307.581 678.492 307.36 678.561 307.505Z" fill="#20355D"/>
<path d="M678.676 358.9C678.645 359.051 677.167 358.848 675.49 358.128C673.809 357.415 672.641 356.489 672.727 356.362C672.818 356.221 674.091 356.903 675.718 357.593C677.341 358.29 678.715 358.739 678.676 358.9Z" fill="#20355D"/>
<path d="M676.731 369.787C676.761 369.945 675.781 370.266 674.539 370.505C673.298 370.744 672.268 370.81 672.237 370.653C672.207 370.495 673.187 370.174 674.429 369.935C675.67 369.696 676.7 369.628 676.731 369.787Z" fill="#20355D"/>
<path d="M674.339 388.451C674.245 388.572 673 387.721 671.859 386.273C670.71 384.831 670.165 383.425 670.304 383.361C670.453 383.285 671.209 384.525 672.315 385.912C673.413 387.305 674.448 388.323 674.339 388.451Z" fill="#20355D"/>
<path d="M648.155 396.988C648.051 396.865 648.712 396.129 649.633 395.342C650.553 394.554 651.385 394.015 651.49 394.137C651.594 394.26 650.933 394.997 650.012 395.784C649.09 396.571 648.26 397.111 648.155 396.988Z" fill="#20355D"/>
<path d="M640.628 356.25C639.569 352.939 637.579 349.08 634.103 349.029C632.039 348.999 630.185 350.48 629.216 352.299C628.246 354.119 627.835 356.232 627.895 358.292C628.294 371.913 630.653 387.492 635.365 401.681H648.083C647.921 385.92 645.433 371.263 640.628 356.25Z" fill="#23427D"/>
<path d="M617.627 335.41C615.849 328.3 610.545 324.459 604.386 324.102C598.764 325.088 596.584 330.622 595.916 336.29C595.248 341.958 597.008 347.599 598.747 353.036C604.327 370.49 609.909 387.945 615.489 405.401C620.763 404.826 626.038 404.249 631.312 403.674C626.303 380.288 623.427 358.612 617.627 335.41Z" fill="#23427D"/>
<path d="M634.103 349.029C634.157 349.072 633.581 349.6 633.026 350.829C632.474 352.063 632.21 354.034 632.431 356.453C632.678 358.87 632.954 361.782 633.359 364.972C633.774 368.169 634.349 371.668 635.063 375.321C636.502 382.628 638.122 389.183 639.151 393.963C639.672 396.352 640.065 398.291 640.313 399.635C640.419 400.254 640.508 400.766 640.579 401.188C640.635 401.543 640.652 401.733 640.633 401.736C640.614 401.74 640.555 401.558 640.464 401.21C640.363 400.795 640.24 400.29 640.092 399.682C639.755 398.265 639.3 396.364 638.751 394.055C637.62 389.304 635.936 382.762 634.494 375.433C633.777 371.769 633.215 368.252 632.828 365.039C632.625 363.433 632.492 361.9 632.361 360.467C632.244 359.042 632.089 357.709 632.02 356.481C631.847 354.028 632.183 351.981 632.819 350.735C633.46 349.492 634.103 349.029 634.103 349.029Z" fill="#20355D"/>
<path d="M604.614 323.651C604.668 323.698 603.772 324.453 602.702 326.22C601.635 327.967 600.503 330.816 600.294 334.5C600.052 338.181 600.872 342.551 602.251 347.238C603.64 351.947 605.166 357.113 606.766 362.539C609.921 373.384 612.776 383.2 614.865 390.377C615.861 393.901 616.674 396.773 617.255 398.832C617.513 399.789 617.72 400.557 617.876 401.138C618.012 401.667 618.074 401.948 618.056 401.954C618.036 401.96 617.936 401.69 617.764 401.171C617.581 400.598 617.34 399.84 617.038 398.894C616.414 396.849 615.541 393.994 614.47 390.492C612.34 383.327 609.426 373.529 606.208 362.704C604.623 357.273 603.113 352.099 601.735 347.384C600.379 342.671 599.584 338.223 599.883 334.473C600.149 330.723 601.366 327.838 602.509 326.101C603.658 324.342 604.614 323.651 604.614 323.651Z" fill="#20355D"/>
<path d="M627.861 401.982C627.841 401.99 627.719 401.729 627.504 401.224C627.296 400.716 626.96 399.978 626.603 398.997C625.848 397.052 624.882 394.188 623.882 390.595C622.877 387.002 621.888 382.67 620.933 377.835C620.016 372.99 619.01 367.676 617.954 362.096C616.853 356.526 615.629 351.255 614.207 346.552C612.788 341.849 611.198 337.711 609.594 334.361C607.998 331.009 606.473 328.409 605.328 326.674C604.785 325.787 604.29 325.148 603.996 324.684C603.689 324.229 603.537 323.984 603.553 323.972C603.57 323.96 603.754 324.181 604.091 324.614C604.417 325.055 604.943 325.676 605.518 326.547C606.725 328.249 608.313 330.831 609.967 334.182C611.629 337.528 613.269 341.677 614.723 346.395C616.181 351.113 617.425 356.401 618.528 361.984C619.569 367.568 620.56 372.885 621.464 377.733C622.388 382.566 623.333 386.895 624.284 390.489C625.23 394.085 626.134 396.958 626.821 398.921C627.144 399.91 627.445 400.66 627.619 401.182C627.794 401.699 627.879 401.975 627.861 401.982Z" fill="#20355D"/>
<path d="M599.03 350.425C599.067 350.581 598.206 350.924 597.107 351.191C596.007 351.458 595.085 351.548 595.047 351.391C595.009 351.236 595.87 350.892 596.969 350.625C598.069 350.357 598.991 350.268 599.03 350.425Z" fill="#20355D"/>
<path d="M597.352 339.626C597.343 339.789 596.148 339.856 594.684 339.914C593.218 339.969 592.021 339.998 592 339.835C591.979 339.678 593.166 339.39 594.661 339.332C596.157 339.272 597.361 339.468 597.352 339.626Z" fill="#20355D"/>
<path d="M599.136 329.763C599.031 329.885 598.172 329.326 597.216 328.515C596.26 327.704 595.568 326.946 595.673 326.824C595.777 326.701 596.636 327.26 597.592 328.071C598.549 328.883 599.239 329.64 599.136 329.763Z" fill="#20355D"/>
<path d="M603.961 320.633C604.121 320.668 604.078 321.438 604.054 322.369C604.024 323.299 604.024 324.069 603.861 324.096C603.707 324.124 603.441 323.347 603.473 322.352C603.498 321.356 603.809 320.595 603.961 320.633Z" fill="#20355D"/>
<path d="M613.826 324.934C613.958 325.027 613.571 325.805 612.963 326.674C612.353 327.544 611.754 328.174 611.623 328.082C611.491 327.989 611.878 327.211 612.486 326.341C613.094 325.472 613.695 324.841 613.826 324.934Z" fill="#20355D"/>
<path d="M620.226 336.054C620.288 336.203 619.467 336.678 618.396 337.114C617.325 337.551 616.408 337.785 616.346 337.636C616.285 337.486 617.105 337.013 618.177 336.575C619.248 336.139 620.165 335.906 620.226 336.054Z" fill="#20355D"/>
<path d="M624.109 347.495C624.175 347.635 623.089 348.255 621.601 348.59C620.113 348.931 618.867 348.839 618.866 348.684C618.858 348.518 620.046 348.349 621.473 348.022C622.901 347.702 624.044 347.342 624.109 347.495Z" fill="#20355D"/>
<path d="M606.281 344.245C606.128 344.197 606.24 343.407 606.529 342.479C606.819 341.552 607.179 340.839 607.333 340.888C607.487 340.936 607.375 341.726 607.085 342.654C606.794 343.58 606.434 344.293 606.281 344.245Z" fill="#20355D"/>
<path d="M608.767 358.609C608.62 358.544 608.941 357.479 609.483 356.23C610.025 354.981 610.586 354.021 610.732 354.083C610.88 354.148 610.559 355.211 610.016 356.462C609.476 357.712 608.915 358.673 608.767 358.609Z" fill="#20355D"/>
<path d="M602.624 362.541C602.561 362.692 601.559 362.418 600.346 362.04C599.133 361.659 598.153 361.313 598.188 361.153C598.221 360.998 599.279 361.095 600.521 361.485C601.761 361.872 602.685 362.394 602.624 362.541Z" fill="#20355D"/>
<path d="M606.166 374.252C606.261 374.384 605.582 375.026 604.653 375.69C603.724 376.353 602.895 376.785 602.8 376.653C602.706 376.523 603.385 375.879 604.314 375.216C605.243 374.553 606.072 374.122 606.166 374.252Z" fill="#20355D"/>
<path d="M609.006 385.929C609.045 386.085 608.206 386.424 607.134 386.684C606.062 386.945 605.162 387.029 605.125 386.874C605.088 386.718 605.926 386.379 606.997 386.119C608.068 385.858 608.969 385.773 609.006 385.929Z" fill="#20355D"/>
<path d="M624.423 357.249C624.504 357.384 623.787 357.956 622.742 358.347C621.699 358.743 620.784 358.786 620.755 358.631C620.724 358.47 621.546 358.178 622.538 357.802C623.53 357.431 624.339 357.107 624.423 357.249Z" fill="#20355D"/>
<path d="M626.625 375.415C626.557 375.56 625.702 375.303 624.717 374.839C623.731 374.376 622.989 373.882 623.058 373.737C623.126 373.592 623.979 373.849 624.965 374.314C625.95 374.775 626.694 375.27 626.625 375.415Z" fill="#20355D"/>
<path d="M630.513 388.412C630.454 388.562 629.326 388.26 627.994 387.739C626.661 387.216 625.629 386.672 625.687 386.523C625.745 386.373 626.873 386.675 628.206 387.198C629.538 387.719 630.571 388.263 630.513 388.412Z" fill="#20355D"/>
<path d="M609.629 398.597C609.55 398.451 610.589 397.753 611.787 396.807C612.991 395.866 613.914 395.023 614.037 395.134C614.155 395.236 613.396 396.287 612.147 397.264C610.901 398.246 609.7 398.736 609.629 398.597Z" fill="#20355D"/>
<path d="M619.908 391.988C619.742 392.007 619.52 391.135 619.122 390.119C618.734 389.1 618.313 388.303 618.447 388.206C618.57 388.111 619.243 388.81 619.665 389.908C620.092 391.005 620.064 391.976 619.908 391.988Z" fill="#20355D"/>
<path d="M617.183 376.353C617.089 376.483 616.426 376.168 615.701 375.646C614.977 375.126 614.464 374.597 614.558 374.467C614.652 374.338 615.316 374.653 616.04 375.174C616.765 375.696 617.277 376.223 617.183 376.353Z" fill="#20355D"/>
<path d="M641.143 351.854C641.238 351.984 640.591 352.622 639.698 353.281C638.804 353.94 638.004 354.369 637.908 354.24C637.812 354.112 638.459 353.472 639.353 352.813C640.245 352.153 641.047 351.724 641.143 351.854Z" fill="#20355D"/>
<path d="M644.753 361.725C644.768 361.88 643.755 362.094 642.503 361.957C641.25 361.824 640.306 361.399 640.354 361.25C640.401 361.092 641.372 361.252 642.565 361.377C643.757 361.51 644.74 361.561 644.753 361.725Z" fill="#20355D"/>
<path d="M629.232 363.939C629.267 364.093 628.33 364.429 627.118 364.507C625.907 364.589 624.932 364.381 624.947 364.225C624.959 364.06 625.916 364.006 627.079 363.926C628.243 363.851 629.198 363.778 629.232 363.939Z" fill="#20355D"/>
<path d="M630.565 354.606C630.553 354.76 629.606 354.785 628.569 354.306C627.529 353.832 626.932 353.097 627.041 352.987C627.153 352.863 627.865 353.348 628.812 353.776C629.754 354.216 630.586 354.442 630.565 354.606Z" fill="#20355D"/>
<path d="M646.085 372.322C645.999 372.458 645.028 372.001 643.918 371.302C642.807 370.602 641.976 369.924 642.061 369.788C642.146 369.652 643.117 370.109 644.227 370.809C645.339 371.509 646.171 372.186 646.085 372.322Z" fill="#20355D"/>
<path d="M683.958 400.024H601.15V414.701H683.958V400.024Z" fill="#57A773"/>
<path d="M607.333 411.789L617.403 455.647H666.756L677.772 411.789H607.333Z" fill="#57A773"/>
<path d="M683.911 414.719C683.911 414.88 665.233 415.01 642.197 415.01C619.154 415.01 600.479 414.88 600.479 414.719C600.479 414.557 619.154 414.427 642.197 414.427C665.233 414.427 683.911 414.557 683.911 414.719Z" fill="#20355D"/>
<path d="M637.859 364.259C637.723 364.344 637.156 363.684 636.595 362.786C636.033 361.886 635.688 361.089 635.824 361.004C635.96 360.918 636.526 361.577 637.088 362.477C637.651 363.376 637.996 364.174 637.859 364.259Z" fill="#20355D"/>
<path d="M637.89 376.068C637.738 376.017 637.932 375.019 638.323 373.838C638.715 372.658 639.157 371.742 639.309 371.793C639.462 371.844 639.268 372.842 638.876 374.022C638.483 375.203 638.042 376.118 637.89 376.068Z" fill="#20355D"/>
<path d="M641.931 388.465C641.786 388.535 641.168 387.543 640.549 386.252C639.931 384.96 639.547 383.857 639.692 383.787C639.837 383.718 640.455 384.709 641.074 386.001C641.692 387.292 642.076 388.395 641.931 388.465Z" fill="#20355D"/>
<path d="M633.185 398.439C633.064 398.333 633.558 397.565 634.29 396.724C635.02 395.881 635.712 395.285 635.833 395.389C635.954 395.494 635.461 396.263 634.729 397.105C633.998 397.946 633.308 398.543 633.185 398.439Z" fill="#20355D"/>
<path d="M631.349 380.33C631.321 380.488 630.525 380.479 629.57 380.312C628.615 380.143 627.864 379.879 627.891 379.72C627.919 379.562 628.715 379.571 629.67 379.738C630.626 379.906 631.378 380.172 631.349 380.33Z" fill="#20355D"/>
</g>
</g>
</g>
<path d="M391.454 235.444L399.93 235.42L399.643 136.076L254.953 136.493L255.239 235.836L375.188 235.49L390.435 251.786L391.454 235.444Z" fill="#20355D"/>
<path d="M266.087 225.182C265.912 225.182 265.722 208.331 265.662 187.546C265.602 166.755 265.696 149.907 265.871 149.906C266.046 149.906 266.235 166.754 266.295 187.544C266.354 208.328 266.261 225.18 266.087 225.182Z" fill="#57A773"/>
<path d="M391.622 214.453C391.622 214.628 363.403 214.852 328.602 214.952C293.788 215.052 265.574 214.992 265.574 214.817C265.574 214.642 293.787 214.419 328.601 214.319C363.402 214.218 391.622 214.279 391.622 214.453Z" fill="#EBEBEB"/>
<path d="M391.59 203.409C391.591 203.584 363.372 203.807 328.57 203.907C293.755 204.007 265.542 203.947 265.542 203.772C265.542 203.597 293.754 203.374 328.569 203.274C363.37 203.174 391.59 203.235 391.59 203.409Z" fill="#EBEBEB"/>
<path d="M391.559 192.365C391.559 192.54 363.34 192.763 328.539 192.864C293.725 192.964 265.511 192.904 265.511 192.729C265.511 192.554 293.724 192.331 328.538 192.231C363.339 192.13 391.558 192.19 391.559 192.365Z" fill="#EBEBEB"/>
<path d="M391.527 181.321C391.527 181.496 363.308 181.719 328.507 181.819C293.693 181.919 265.479 181.859 265.479 181.684C265.479 181.509 293.692 181.286 328.506 181.186C363.307 181.087 391.526 181.147 391.527 181.321Z" fill="#EBEBEB"/>
<path d="M391.495 170.277C391.495 170.452 363.276 170.675 328.475 170.776C293.661 170.876 265.448 170.816 265.448 170.641C265.448 170.466 293.66 170.243 328.474 170.142C363.275 170.042 391.495 170.102 391.495 170.277Z" fill="#EBEBEB"/>
<path d="M391.463 159.234C391.463 159.409 363.244 159.632 328.443 159.732C293.629 159.832 265.415 159.772 265.415 159.597C265.415 159.422 293.627 159.199 328.442 159.099C363.243 158.999 391.463 159.059 391.463 159.234Z" fill="#EBEBEB"/>
<path d="M391.431 148.191C391.431 148.366 363.214 148.589 328.411 148.689C293.597 148.789 265.383 148.729 265.383 148.554C265.383 148.379 293.595 148.156 328.41 148.056C363.211 147.956 391.431 148.016 391.431 148.191Z" fill="#EBEBEB"/>
<path d="M283.124 207.917L274.087 207.944L274.137 225.154L283.174 225.128L283.124 207.917Z" fill="#57A773"/>
<path d="M348.773 207.723L339.735 207.749L339.785 224.96L348.822 224.933L348.773 207.723Z" fill="#57A773"/>
<path d="M300.811 195.213L291.774 195.24L291.86 225.108L300.897 225.082L300.811 195.213Z" fill="#57A773"/>
<path d="M333.915 187.339L324.878 187.365L324.987 225.003L334.024 224.977L333.915 187.339Z" fill="#57A773"/>
<path d="M317.496 164.523L308.459 164.55L308.635 225.054L317.672 225.028L317.496 164.523Z" fill="#57A773"/>
<path d="M366.19 175.574L357.153 175.6L357.296 224.914L366.333 224.888L366.19 175.574Z" fill="#57A773"/>
<path d="M377.1 224.861C377.1 225.036 352.297 225.248 321.707 225.337C291.107 225.425 266.307 225.354 266.307 225.18C266.307 225.005 291.106 224.793 321.706 224.705C352.296 224.617 377.1 224.687 377.1 224.861Z" fill="#57A773"/>
<path d="M238.372 85.4379L66 85.7624V221.979H215.732L230.466 237.724L231.448 221.979H238.268L238.372 85.4379Z" fill="#20355D"/>
<path d="M226.686 209.188C226.686 209.188 226.486 209.204 226.094 209.212C225.685 209.218 225.108 209.226 224.355 209.236C222.81 209.247 220.56 209.262 217.67 209.28C211.848 209.298 203.452 209.323 193.082 209.355C172.306 209.373 143.632 209.398 111.961 209.425C99.6777 209.421 87.8463 209.417 76.9766 209.414H76.7522V209.19C76.7869 186.013 76.8163 166.081 76.8363 151.924C76.8644 144.865 76.8858 139.248 76.9018 135.377C76.9178 133.462 76.9298 131.982 76.9379 130.962C76.9459 130.471 76.9525 130.095 76.9566 129.822C76.9632 129.566 76.9766 129.436 76.9766 129.436C76.9766 129.436 76.9899 129.567 76.9953 129.822C76.9993 130.093 77.006 130.47 77.014 130.962C77.022 131.982 77.034 133.462 77.0501 135.377C77.0647 139.248 77.0875 144.865 77.1155 151.924C77.1369 166.081 77.1663 186.013 77.1996 209.19L76.9753 208.965C87.845 208.961 99.6764 208.958 111.959 208.954C143.63 208.981 172.305 209.005 193.08 209.024C203.45 209.056 211.847 209.081 217.669 209.099C220.56 209.117 222.808 209.132 224.354 209.143C225.106 209.153 225.684 209.162 226.093 209.167C226.486 209.172 226.686 209.188 226.686 209.188Z" fill="#57A773"/>
<path d="M104.266 189.486H89.1431V204.608H104.266V189.486Z" fill="#57A773"/>
<path d="M126.437 178.675H111.314V204.608H126.437V178.675Z" fill="#57A773"/>
<path d="M148.696 166.393H133.573V204.608H148.696V166.393Z" fill="#57A773"/>
<path d="M170.274 152.723H155.151V204.608H170.274V152.723Z" fill="#57A773"/>
<path d="M192.355 135.219H177.232V204.608H192.355V135.219Z" fill="#57A773"/>
<path d="M214.271 121.87H199.148V203.891H214.271V121.87Z" fill="#57A773"/>
<g opacity="0.5">
<path d="M126.437 178.675H111.314V204.608H126.437V178.675Z" fill="white"/>
</g>
<g opacity="0.5">
<path d="M170.274 152.723H155.151V204.608H170.274V152.723Z" fill="white"/>
</g>
<g opacity="0.5">
<path d="M214.271 121.87H199.148V203.891H214.271V121.87Z" fill="white"/>
</g>
<path d="M89.1432 173.981C89.1392 173.976 89.2047 173.925 89.3356 173.833C89.4852 173.73 89.6788 173.597 89.9246 173.427C90.4696 173.062 91.2389 172.547 92.2287 171.886C94.2696 170.54 97.2094 168.602 100.895 166.173C108.337 161.31 118.785 154.48 130.904 146.56L131.252 146.333V146.748C131.253 148.889 131.256 151.183 131.257 153.517L130.898 153.325C134.718 150.763 138.673 148.11 142.724 145.395C159.014 134.512 173.758 124.66 184.456 117.514C189.792 113.976 194.118 111.108 197.133 109.11C198.618 108.138 199.78 107.376 200.592 106.845C200.975 106.6 201.275 106.408 201.499 106.265C201.705 106.137 201.813 106.074 201.817 106.081C201.821 106.087 201.723 106.164 201.526 106.305C201.309 106.457 201.018 106.662 200.646 106.924C199.844 107.473 198.699 108.258 197.236 109.262C194.241 111.29 189.944 114.2 184.643 117.791C173.965 124.967 159.248 134.858 142.987 145.786C138.935 148.5 134.977 151.15 131.156 153.71L130.795 153.95V153.517C130.796 151.183 130.799 148.891 130.8 146.748L131.148 146.936C118.99 154.801 108.511 161.579 101.045 166.408C97.3296 168.791 94.3657 170.691 92.3075 172.011C91.3017 172.647 90.5176 173.141 89.9633 173.491C89.7096 173.647 89.5079 173.77 89.3529 173.865C89.2194 173.948 89.1472 173.987 89.1432 173.981Z" fill="#57A773"/>
<path d="M201.818 112.48C201.757 112.48 201.701 111.773 201.658 110.615C201.617 109.457 201.589 107.849 201.583 106.045L201.818 106.28C201.634 106.28 201.438 106.28 201.24 106.281C199.303 106.281 197.549 106.254 196.281 106.212C195.012 106.169 194.226 106.11 194.226 106.045C194.226 105.979 195.012 105.92 196.281 105.878C197.549 105.835 199.303 105.808 201.24 105.808C201.438 105.808 201.634 105.808 201.818 105.81H202.053V106.045C202.048 107.849 202.02 109.457 201.979 110.615C201.936 111.773 201.88 112.48 201.818 112.48Z" fill="#57A773"/>
<path d="M238.372 85.0104H66V97.702H238.372V85.0104Z" fill="#57A773"/>
<path d="M75.8865 90.8848C75.8865 92.0735 74.9222 93.0379 73.7334 93.0379C72.5447 93.0379 71.5803 92.0735 71.5803 90.8848C71.5803 89.696 72.5447 88.7317 73.7334 88.7317C74.9222 88.7317 75.8865 89.696 75.8865 90.8848Z" fill="#FAFAFA"/>
<path d="M82.8109 90.8848C82.8109 92.0735 81.8465 93.0379 80.6577 93.0379C79.469 93.0379 78.5046 92.0735 78.5046 90.8848C78.5046 89.696 79.469 88.7317 80.6577 88.7317C81.8465 88.7317 82.8109 89.696 82.8109 90.8848Z" fill="#FAFAFA"/>
<path d="M87.5818 93.0379C88.771 93.0379 89.7349 92.0739 89.7349 90.8848C89.7349 89.6956 88.771 88.7317 87.5818 88.7317C86.3927 88.7317 85.4287 89.6956 85.4287 90.8848C85.4287 92.0739 86.3927 93.0379 87.5818 93.0379Z" fill="#FAFAFA"/>
<path d="M566.874 0H305.495V120.833H499.471L500.533 137.881L516.486 120.833H566.874V0Z" fill="#20355D"/>
<path d="M323.883 83.4637V87.2784H323.489V83.8124H322.59V83.4637H323.883Z" fill="#57A773"/>
<path d="M324.798 85.3724C324.798 84.157 325.437 83.4317 326.318 83.4317C327.2 83.4317 327.843 84.157 327.843 85.3724C327.843 86.5879 327.2 87.3118 326.318 87.3118C325.437 87.3118 324.798 86.5879 324.798 85.3724ZM327.441 85.3724C327.441 84.3533 326.985 83.7923 326.318 83.7923C325.654 83.7923 325.195 84.3533 325.195 85.3724C325.195 86.3916 325.653 86.9525 326.318 86.9525C326.985 86.9525 327.441 86.3902 327.441 85.3724Z" fill="#57A773"/>
<path d="M325.431 63.2109V63.5595H322.754V63.2817L324.34 61.7283C324.77 61.3035 324.853 61.0471 324.853 60.7866C324.853 60.3445 324.542 60.072 323.959 60.072C323.512 60.072 323.168 60.2083 322.919 60.4968L322.641 60.2564C322.933 59.9077 323.409 59.7114 323.991 59.7114C324.766 59.7114 325.256 60.1041 325.256 60.7425C325.256 61.1072 325.143 61.4344 324.63 61.9366L323.333 63.2122L325.431 63.2109Z" fill="#57A773"/>
<path d="M325.906 61.6521C325.906 60.4367 326.544 59.7114 327.426 59.7114C328.308 59.7114 328.952 60.4367 328.952 61.6521C328.952 62.8676 328.308 63.5915 327.426 63.5915C326.544 63.5915 325.906 62.8676 325.906 61.6521ZM328.549 61.6521C328.549 60.633 328.092 60.0707 327.426 60.0707C326.762 60.0707 326.304 60.6317 326.304 61.6521C326.304 62.6713 326.762 63.2322 327.426 63.2322C328.092 63.2322 328.549 62.6713 328.549 61.6521Z" fill="#57A773"/>
<path d="M325.349 38.7426C325.349 39.3811 324.885 39.8713 323.966 39.8713C323.415 39.8713 322.886 39.6816 322.591 39.3811L322.784 39.0699C323.028 39.3263 323.47 39.5107 323.966 39.5107C324.597 39.5107 324.946 39.2168 324.946 38.7426C324.946 38.2858 324.624 37.9853 323.915 37.9853H323.642V37.6968L324.7 36.3731H322.749V36.0245H325.201V36.3024L324.122 37.6594C324.941 37.7021 325.349 38.1322 325.349 38.7426Z" fill="#57A773"/>
<path d="M325.905 37.9305C325.905 36.7151 326.543 35.9898 327.425 35.9898C328.308 35.9898 328.952 36.7151 328.952 37.9305C328.952 39.146 328.308 39.8699 327.425 39.8699C326.543 39.8713 325.905 39.146 325.905 37.9305ZM328.548 37.9305C328.548 36.9114 328.092 36.3504 327.425 36.3504C326.761 36.3504 326.303 36.9114 326.303 37.9305C326.303 38.9497 326.761 39.5107 327.425 39.5107C328.092 39.5107 328.548 38.9497 328.548 37.9305Z" fill="#57A773"/>
<path d="M340.724 97.889C340.724 96.6736 341.363 95.9483 342.244 95.9483C343.126 95.9483 343.77 96.6736 343.77 97.889C343.77 99.1045 343.126 99.8284 342.244 99.8284C341.363 99.8284 340.724 99.1045 340.724 97.889ZM343.368 97.889C343.368 96.8699 342.911 96.3076 342.244 96.3076C341.581 96.3076 341.121 96.8686 341.121 97.889C341.121 98.9082 341.579 99.4691 342.244 99.4691C342.911 99.4691 343.368 98.9068 343.368 97.889Z" fill="#57A773"/>
<path d="M368.962 95.9804V99.7964H368.568V96.3303H367.669V95.9817H368.962V95.9804Z" fill="#57A773"/>
<path d="M398.725 99.4478V99.7964H396.048V99.5186L397.634 97.9652C398.065 97.5404 398.146 97.284 398.146 97.0235C398.146 96.5814 397.835 96.3089 397.253 96.3089C396.805 96.3089 396.462 96.4452 396.212 96.7337L395.935 96.4946C396.227 96.146 396.703 95.9496 397.285 95.9496C398.06 95.9496 398.55 96.3423 398.55 96.9794C398.55 97.3441 398.436 97.6713 397.923 98.1735L396.626 99.4491L398.725 99.4478Z" fill="#57A773"/>
<path d="M426.858 98.6998C426.858 99.3383 426.393 99.8285 425.474 99.8285C424.923 99.8285 424.395 99.6375 424.1 99.3383L424.292 99.0271C424.537 99.2835 424.979 99.4678 425.474 99.4678C426.106 99.4678 426.455 99.174 426.455 98.6998C426.455 98.243 426.133 97.9425 425.424 97.9425H425.151V97.654L426.209 96.3303H424.258V95.9817H426.71V96.2595L425.629 97.6166C426.451 97.6593 426.858 98.0907 426.858 98.6998Z" fill="#57A773"/>
<path d="M455.793 98.7933H455.03V99.7964H454.639V98.7933H452.486V98.5102L454.508 95.9804H454.945L452.993 98.4447H454.65V97.5618H455.03V98.4447H455.793V98.7933Z" fill="#57A773"/>
<path d="M483.354 98.6731C483.354 99.3222 482.902 99.8285 481.971 99.8285C481.42 99.8285 480.897 99.6375 480.602 99.3383L480.793 99.0271C481.037 99.2835 481.474 99.4678 481.964 99.4678C482.612 99.4678 482.956 99.1513 482.956 98.6891C482.956 98.1989 482.65 97.8944 481.681 97.8944H480.867L481.065 95.9804H483.153V96.329H481.408L481.277 97.5445H481.768C482.919 97.5458 483.354 97.9973 483.354 98.6731Z" fill="#57A773"/>
<path d="M511.848 98.6571C511.848 99.3703 511.287 99.8284 510.546 99.8284C509.532 99.8284 508.981 99.1259 508.981 97.9211C508.981 96.6242 509.69 95.9483 510.725 95.9483C511.068 95.9483 511.389 96.0084 511.629 96.1553L511.47 96.4719C511.274 96.341 511.014 96.2916 510.729 96.2916C509.906 96.2916 509.377 96.8205 509.377 97.8557C509.377 97.9425 509.383 98.052 509.393 98.1669C509.583 97.7475 510.032 97.5124 510.559 97.5124C511.318 97.5124 511.848 97.9598 511.848 98.6571ZM511.46 98.6677C511.46 98.1669 511.09 97.845 510.501 97.845C509.918 97.845 509.52 98.2056 509.52 98.6784C509.52 99.0978 509.869 99.4959 510.529 99.4959C511.079 99.4959 511.46 99.1753 511.46 98.6677Z" fill="#57A773"/>
<path d="M539.888 95.9804V96.2582L538.292 99.7951H537.867L539.438 96.329H537.476V97.0436H537.089V95.9804H539.888Z" fill="#57A773"/>
<path d="M540.093 85.5568C540.093 85.7611 495.935 85.9267 441.478 85.9267C387.002 85.9267 342.854 85.7611 342.854 85.5568C342.854 85.3524 387.002 85.1868 441.478 85.1868C495.935 85.1854 540.093 85.3524 540.093 85.5568Z" fill="#57A773"/>
<path d="M540.093 61.7136C540.093 61.9179 495.935 62.0836 441.478 62.0836C387.002 62.0836 342.854 61.9179 342.854 61.7136C342.854 61.5092 387.002 61.3436 441.478 61.3436C495.935 61.3436 540.093 61.5092 540.093 61.7136Z" fill="#57A773"/>
<path d="M540.093 37.8704C540.093 38.0748 495.935 38.2404 441.478 38.2404C387.002 38.2404 342.854 38.0748 342.854 37.8704C342.854 37.6661 387.002 37.5005 441.478 37.5005C495.935 37.5005 540.093 37.6661 540.093 37.8704Z" fill="#57A773"/>
<path d="M342.853 85.2068C342.853 85.9067 342.287 86.4744 341.587 86.4744C340.887 86.4744 340.321 85.9067 340.321 85.2068C340.321 84.5069 340.887 83.9406 341.587 83.9406C342.287 83.9406 342.853 84.5083 342.853 85.2068Z" fill="#57A773"/>
<path d="M371.211 85.2068C371.211 85.9067 370.645 86.4744 369.945 86.4744C369.245 86.4744 368.679 85.9067 368.679 85.2068C368.679 84.5069 369.245 83.9406 369.945 83.9406C370.645 83.9406 371.211 84.5083 371.211 85.2068Z" fill="#57A773"/>
<path d="M399.569 85.2068C399.569 85.9067 399.001 86.4744 398.303 86.4744C397.604 86.4744 397.036 85.9067 397.036 85.2068C397.036 84.5069 397.604 83.9406 398.303 83.9406C399.001 83.9406 399.569 84.5083 399.569 85.2068Z" fill="#57A773"/>
<path d="M427.928 85.2068C427.928 85.9067 427.362 86.4744 426.662 86.4744C425.962 86.4744 425.396 85.9067 425.396 85.2068C425.396 84.5069 425.962 83.9406 426.662 83.9406C427.362 83.9406 427.928 84.5083 427.928 85.2068Z" fill="#57A773"/>
<path d="M456.286 85.2068C456.286 85.9067 455.718 86.4744 455.02 86.4744C454.32 86.4744 453.753 85.9067 453.753 85.2068C453.753 84.5069 454.32 83.9406 455.02 83.9406C455.718 83.9406 456.286 84.5083 456.286 85.2068Z" fill="#57A773"/>
<path d="M513.001 85.2068C513.001 85.9067 512.434 86.4744 511.735 86.4744C511.035 86.4744 510.469 85.9067 510.469 85.2068C510.469 84.5069 511.036 83.9406 511.735 83.9406C512.435 83.9406 513.001 84.5083 513.001 85.2068Z" fill="#57A773"/>
<path d="M484.644 85.2068C484.644 85.9067 484.076 86.4744 483.377 86.4744C482.679 86.4744 482.111 85.9067 482.111 85.2068C482.111 84.5069 482.677 83.9406 483.377 83.9406C484.077 83.9406 484.644 84.5083 484.644 85.2068Z" fill="#57A773"/>
<path d="M541.359 85.2068C541.359 85.9067 540.793 86.4744 540.093 86.4744C539.393 86.4744 538.826 85.9067 538.826 85.2068C538.826 84.5069 539.394 83.9406 540.093 83.9406C540.793 83.9406 541.359 84.5083 541.359 85.2068Z" fill="#57A773"/>
<path d="M355.776 85.5567C355.776 86.0162 355.403 86.3889 354.944 86.3889C354.484 86.3889 354.113 86.0162 354.113 85.5567C354.113 85.0973 354.486 84.7246 354.944 84.7246C355.403 84.7246 355.776 85.0973 355.776 85.5567Z" fill="#FFFAFA"/>
<path d="M384.241 85.5567C384.241 86.0162 383.868 86.3889 383.409 86.3889C382.949 86.3889 382.576 86.0162 382.576 85.5567C382.576 85.0973 382.949 84.7246 383.409 84.7246C383.868 84.7246 384.241 85.0973 384.241 85.5567Z" fill="#FFFAFA"/>
<path d="M412.705 85.5567C412.705 86.0162 412.333 86.3889 411.873 86.3889C411.414 86.3889 411.041 86.0162 411.041 85.5567C411.041 85.0973 411.414 84.7246 411.873 84.7246C412.333 84.7246 412.705 85.0973 412.705 85.5567Z" fill="#FFFAFA"/>
<path d="M441.17 85.5567C441.17 86.0162 440.797 86.3889 440.337 86.3889C439.878 86.3889 439.505 86.0162 439.505 85.5567C439.505 85.0973 439.878 84.7246 440.337 84.7246C440.798 84.7246 441.17 85.0973 441.17 85.5567Z" fill="#FFFAFA"/>
<path d="M469.636 85.5567C469.636 86.0162 469.263 86.3889 468.804 86.3889C468.344 86.3889 467.971 86.0162 467.971 85.5567C467.971 85.0973 468.344 84.7246 468.804 84.7246C469.263 84.7246 469.636 85.0973 469.636 85.5567Z" fill="#FFFAFA"/>
<path d="M498.1 85.5567C498.1 86.0162 497.728 86.3889 497.268 86.3889C496.809 86.3889 496.436 86.0162 496.436 85.5567C496.436 85.0973 496.809 84.7246 497.268 84.7246C497.728 84.7246 498.1 85.0973 498.1 85.5567Z" fill="#FFFAFA"/>
<path d="M526.565 85.5567C526.565 86.0162 526.192 86.3889 525.733 86.3889C525.273 86.3889 524.901 86.0162 524.901 85.5567C524.901 85.0973 525.273 84.7246 525.733 84.7246C526.192 84.7246 526.565 85.0973 526.565 85.5567Z" fill="#FFFAFA"/>
<path d="M373.052 75.0169C373.052 76.7333 371.661 78.1237 369.945 78.1237C368.23 78.1237 366.838 76.7333 366.838 75.0169C366.838 73.3006 368.229 71.9102 369.945 71.9102C371.66 71.9102 373.052 73.3006 373.052 75.0169Z" fill="#57A773"/>
<path d="M397.793 60.4167C397.793 62.1317 396.402 63.5234 394.686 63.5234C392.971 63.5234 391.579 62.133 391.579 60.4167C391.579 58.7003 392.97 57.3099 394.686 57.3099C396.402 57.3099 397.793 58.7003 397.793 60.4167Z" fill="#57A773"/>
<path d="M428.501 61.7136C428.501 63.4299 427.111 64.8204 425.394 64.8204C423.679 64.8204 422.288 63.4299 422.288 61.7136C422.288 59.9986 423.678 58.6068 425.394 58.6068C427.109 58.6068 428.501 59.9972 428.501 61.7136Z" fill="#57A773"/>
<path d="M458.48 35.1724C458.48 36.8887 457.09 38.2791 455.374 38.2791C453.659 38.2791 452.267 36.8887 452.267 35.1724C452.267 33.456 453.657 32.0656 455.374 32.0656C457.09 32.0669 458.48 33.4574 458.48 35.1724Z" fill="#57A773"/>
<path d="M486.483 52.0526C486.483 53.769 485.092 55.1594 483.376 55.1594C481.661 55.1594 480.269 53.769 480.269 52.0526C480.269 50.3363 481.66 48.9459 483.376 48.9459C485.092 48.9459 486.483 50.3363 486.483 52.0526Z" fill="#57A773"/>
<path d="M514.842 56.5472C514.842 58.2622 513.452 59.654 511.735 59.654C510.02 59.654 508.628 58.2636 508.628 56.5472C508.628 54.8322 510.019 53.4404 511.735 53.4404C513.45 53.4404 514.842 54.8309 514.842 56.5472Z" fill="#57A773"/>
<path d="M541.359 75.0169C541.359 75.0169 541.112 75.045 540.63 75.0156C540.15 74.9835 539.433 74.9234 538.51 74.7324C536.695 74.3584 533.895 73.5744 531.135 71.2276C529.761 70.0669 528.506 68.4561 527.511 66.514C526.509 64.6053 525.303 62.5818 523.715 60.6384C522.115 58.7524 520.05 56.8237 517.305 56.1665C515.951 55.8393 514.48 55.8967 513.064 56.3175C511.647 56.7582 510.322 57.5369 509.128 58.5454C506.713 60.5636 504.934 63.434 502.587 66.0372C501.413 67.3301 500.048 68.591 498.329 69.3497C496.617 70.0896 494.629 70.3194 492.73 69.8105C490.789 69.2909 489.312 67.6654 488.469 65.8969C487.589 64.1138 487.101 62.1731 486.63 60.235C486.152 58.3023 485.764 56.3001 484.939 54.4889C484.527 53.5954 483.953 52.7579 483.125 52.3131C482.278 51.8523 481.267 51.7508 480.259 51.7561C478.214 51.8617 476.157 52.452 474.024 52.8567C472.952 53.0477 471.863 53.2374 470.735 53.2321C469.62 53.2361 468.445 53.1025 467.391 52.5816C466.293 52.1408 465.455 51.2619 464.735 50.359C464.094 49.4067 463.54 48.3969 463.111 47.3417C462.212 45.2434 461.614 43.0422 460.799 40.9278C460.376 39.8846 459.93 38.8375 459.299 37.9239C458.667 37.0196 457.846 36.261 456.838 35.8749C456.578 35.8001 456.325 35.7053 456.063 35.6412L455.244 35.5651C454.703 35.5344 454.204 35.6385 453.727 35.8749C452.778 36.3571 452.058 37.2841 451.456 38.2458C450.282 40.2293 449.502 42.4865 448.822 44.7652C448.145 47.0519 447.576 49.3933 447.028 51.7561C446.121 55.667 445.312 59.5672 444.306 63.3845C443.8 65.2919 443.254 67.1819 442.56 69.0197C441.851 70.8403 441.042 72.6755 439.615 74.1367C438.89 74.838 437.899 75.3843 436.816 75.3776C435.781 75.3789 434.795 75.0089 433.949 74.508C432.245 73.4822 430.991 71.9729 429.921 70.4316C427.772 67.3248 426.392 63.8654 425.056 60.5569C423.697 57.2818 422.163 54.0401 419.626 51.8176C417.14 49.611 413.567 48.7896 410.51 49.5937C408.966 49.981 407.508 50.6716 406.171 51.5037C404.817 52.3118 403.565 53.2548 402.383 54.2432C400.022 56.2213 397.91 58.3851 396.06 60.6023L396.048 60.617L396.043 60.6224C393.016 63.645 389.848 66.2055 386.676 68.4053C383.501 70.5932 380.291 72.3883 377.083 73.6038C373.881 74.7885 370.66 75.4898 367.692 75.1679C364.743 74.8807 362.15 74.0753 359.869 73.2752C355.311 71.6203 351.966 69.8385 349.71 68.6297C348.585 68.0126 347.74 67.5198 347.176 67.1765C346.612 66.8346 346.338 66.6316 346.338 66.6316C346.338 66.6316 346.643 66.7825 347.22 67.0991C347.828 67.425 348.684 67.8831 349.791 68.4761C352.068 69.6342 355.432 71.3639 359.98 72.9613C362.253 73.7334 364.835 74.5067 367.725 74.7645C370.608 75.057 373.771 74.3504 376.915 73.1617C380.07 71.9449 383.235 70.1511 386.373 67.9672C389.502 65.7767 392.65 63.2042 395.62 60.2163L395.602 60.2363C397.48 57.967 399.592 55.7885 401.985 53.7677C403.182 52.7606 404.452 51.7949 405.841 50.9614C407.21 50.1039 408.716 49.38 410.352 48.9646C413.635 48.0991 417.396 48.9646 420.072 51.3087C422.764 53.6621 424.327 56.9987 425.706 60.2911C427.055 63.6156 428.416 67.0029 430.514 70.0268C431.551 71.5215 432.771 72.9613 434.318 73.887C435.086 74.3411 435.945 74.6563 436.826 74.6536C437.679 74.6523 438.464 74.2316 439.11 73.6145C440.379 72.3202 441.191 70.5411 441.875 68.762C442.552 66.9641 443.092 65.0929 443.594 63.2002C444.592 59.4096 445.4 55.5134 446.308 51.5932C446.857 49.2237 447.429 46.8716 448.114 44.5582C448.806 42.2515 449.587 39.9594 450.828 37.8651C451.473 36.846 452.24 35.8189 453.4 35.2218C453.971 34.9293 454.652 34.7971 455.275 34.8358L456.2 34.9253C456.502 34.9961 456.8 35.1043 457.098 35.1938C458.275 35.6439 459.215 36.5294 459.899 37.5138C460.583 38.5089 461.04 39.5948 461.475 40.67C462.303 42.8311 462.899 45.027 463.771 47.0652C464.631 49.0754 465.74 51.1137 467.686 51.9431C469.583 52.8607 471.826 52.5362 473.893 52.1782C475.99 51.7882 478.061 51.1898 480.233 51.0789C481.316 51.0736 482.448 51.1805 483.45 51.7268C484.466 52.2811 485.107 53.2614 485.543 54.2098C486.415 56.1465 486.787 58.158 487.262 60.0881C487.724 62.0181 488.202 63.9228 489.034 65.6191C489.841 67.3088 491.16 68.7499 492.901 69.2254C494.62 69.6956 496.504 69.4939 498.087 68.8114C499.691 68.1128 501.008 66.9201 502.162 65.6579C504.476 63.1201 506.279 60.231 508.787 58.15C510.027 57.1122 511.431 56.2974 512.917 55.846C514.409 55.4092 515.98 55.3571 517.41 55.7137C520.316 56.435 522.415 58.4519 524.03 60.3806C525.63 62.3708 526.83 64.425 527.819 66.3591C528.785 68.2865 529.986 69.8586 531.319 71.0166C533.993 73.35 536.744 74.1755 538.536 74.5922C539.445 74.8046 540.154 74.8901 540.63 74.9462C541.113 74.9942 541.359 75.0009 541.359 75.0169Z" fill="#57A773"/>
<path d="M373.351 21.5324C373.351 21.7368 362.342 21.9038 348.764 21.9038C335.182 21.9038 324.176 21.7381 324.176 21.5324C324.176 21.3281 335.183 21.1625 348.764 21.1625C362.341 21.1611 373.351 21.3267 373.351 21.5324Z" fill="#57A773"/>
<path d="M626.456 143.376H518.403V244.923H530.69V263L547.605 244.923H626.456V143.376Z" fill="#20355D"/>
<path d="M571.95 154.884C553.538 154.884 538.61 169.81 538.61 188.224C538.61 206.636 553.537 221.563 571.95 221.563C590.364 221.563 605.29 206.637 605.29 188.224C605.29 169.811 590.362 154.884 571.95 154.884ZM572.452 208.201C561.142 208.201 551.972 199.032 551.972 187.721C551.972 176.411 561.142 167.241 572.452 167.241C583.763 167.241 592.932 176.411 592.932 187.721C592.934 199.032 583.764 208.201 572.452 208.201Z" fill="#57A773"/>
<path d="M572.46 154.897C572.46 158.445 572.459 163.228 572.458 167.241C583.767 167.244 592.934 176.412 592.934 187.721C592.934 189.886 592.596 191.973 591.972 193.931L604.055 197.207C604.853 194.348 605.289 191.337 605.289 188.224C605.29 169.982 590.638 155.171 572.46 154.897Z" fill="#57A773"/>
<path d="M551.972 187.721C551.972 179.381 556.96 172.211 564.112 169.017L558.985 157.499C547.013 162.557 538.61 174.409 538.61 188.224C538.61 188.692 538.626 189.159 538.645 189.623H552.063C552.006 188.997 551.972 188.362 551.972 187.721Z" fill="#436FC3"/>
<path d="M572.452 208.201C570.966 208.201 569.516 208.038 568.119 207.738C567.605 210.71 566.631 216.466 565.867 221C567.84 221.364 569.872 221.563 571.95 221.563C587.249 221.563 600.132 211.255 604.054 197.207L591.972 193.931C589.342 202.205 581.599 208.201 572.452 208.201Z" fill="#57A773"/>
<g opacity="0.3">
<path d="M572.452 208.201C570.966 208.201 569.516 208.038 568.119 207.738C567.605 210.71 566.631 216.466 565.867 221C567.84 221.364 569.872 221.563 571.95 221.563C587.249 221.563 600.132 211.255 604.054 197.207L591.972 193.931C589.342 202.205 581.599 208.201 572.452 208.201Z" fill="#57A773"/>
</g>
<path d="M568.029 189.379H566.795V190.97H565.085V189.379H561.004V188.2L564.576 183.394H566.417L563.104 187.95H565.138V186.533H566.795V187.95H568.029V189.379Z" fill="#57A773"/>
<path d="M568.547 187.182C568.547 184.681 569.932 183.264 571.794 183.264C573.667 183.264 575.041 184.683 575.041 187.182C575.041 189.682 573.667 191.101 571.794 191.101C569.932 191.101 568.547 189.682 568.547 187.182ZM573.277 187.182C573.277 185.461 572.67 184.747 571.794 184.747C570.928 184.747 570.322 185.461 570.322 187.182C570.322 188.903 570.928 189.618 571.794 189.618C572.67 189.617 573.277 188.902 573.277 187.182Z" fill="#57A773"/>
<path d="M575.765 185.396C575.765 184.119 576.544 183.307 577.648 183.307C578.753 183.307 579.521 184.108 579.521 185.396C579.521 186.684 578.753 187.485 577.648 187.485C576.544 187.485 575.765 186.673 575.765 185.396ZM578.438 185.396C578.438 184.584 578.124 184.195 577.647 184.195C577.181 184.195 576.858 184.596 576.858 185.396C576.858 186.197 577.182 186.598 577.647 186.598C578.124 186.597 578.438 186.208 578.438 185.396ZM582.161 183.394H583.449L578.276 190.971H576.988L582.161 183.394ZM580.917 188.968C580.917 187.691 581.695 186.879 582.789 186.879C583.894 186.879 584.673 187.689 584.673 188.968C584.673 190.244 583.894 191.057 582.789 191.057C581.695 191.057 580.917 190.244 580.917 188.968ZM583.579 188.968C583.579 188.166 583.265 187.765 582.789 187.765C582.323 187.765 582 188.155 582 188.968C582 189.778 582.324 190.17 582.789 190.17C583.265 190.17 583.579 189.769 583.579 188.968Z" fill="#57A773"/>
<path d="M599.537 229.975C599.537 230.15 587.185 230.292 571.952 230.292C556.713 230.292 544.363 230.15 544.363 229.975C544.363 229.8 556.713 229.659 571.952 229.659C587.185 229.659 599.537 229.8 599.537 229.975Z" fill="#57A773"/>
<path d="M587.252 235.042C587.252 235.217 580.401 235.358 571.952 235.358C563.499 235.358 556.65 235.217 556.65 235.042C556.65 234.867 563.499 234.725 571.952 234.725C580.4 234.725 587.252 234.867 587.252 235.042Z" fill="#57A773"/>
<defs>
<clipPath id="clip0_2104_2">
<rect width="718" height="329" fill="white" transform="translate(0 127)"/>
</clipPath>
<clipPath id="clip1_2104_2">
<path d="M0 477.132C0 283.759 156.759 127 350.132 127H367.868C561.241 127 718 283.759 718 477.132C718 481.477 714.477 485 710.132 485H7.86811C3.52266 485 0 481.477 0 477.132Z" fill="white"/>
</clipPath>
<clipPath id="clip2_2104_2">
<rect width="747" height="747" fill="white" transform="translate(-29 39)"/>
</clipPath>
</defs>
</svg>
