<svg width="766" height="451" viewBox="0 0 766 451" fill="none" xmlns="http://www.w3.org/2000/svg">
<path d="M333.463 79.7458C311.146 -1.21332 210.576 -27.2927 152.942 33.2121C152.114 34.0804 151.288 34.9647 150.461 35.862C67.8316 125.683 106.866 347.03 279.311 403.131C451.756 459.232 631.122 356.786 641.199 265.205C651.276 173.625 571.718 144.849 448.254 170.457C378.497 184.924 347.356 130.145 333.463 79.7458Z" fill="#CFDAEF"/>
<path d="M476.914 93.5936C453.841 97.3499 447.447 117.791 465.261 132.292C471.149 137.085 479.559 141.068 491.538 143.055C537.173 150.625 561.388 130.435 543.096 104.257C531.808 88.1007 499.78 89.8706 476.914 93.5936Z" fill="#CFDAEF"/>
<path d="M119.839 259.045C108.509 238.598 87.1098 239.485 79.4796 261.15C76.9574 268.311 76.0499 277.571 78.2265 289.518C86.516 335.026 113.7 350.998 132.16 324.939C143.553 308.855 131.068 279.309 119.839 259.045Z" fill="#CFDAEF"/>
<path d="M657.461 275.849C655.336 286.975 664.524 294.857 674.935 290.569C678.376 289.152 681.846 286.419 684.935 281.616C696.697 263.318 690.74 247.622 674.363 249.233C664.252 250.228 659.567 264.822 657.461 275.849Z" fill="#CFDAEF"/>
<path d="M599.133 158.433C610.222 160.747 618.259 151.695 614.148 141.213C612.789 137.749 610.117 134.232 605.368 131.062C587.273 118.991 571.478 124.679 572.809 141.081C573.631 151.206 588.144 156.14 599.133 158.433Z" fill="#CFDAEF"/>
<path d="M329.611 39.3657C338.391 46.5241 349.692 42.1855 350.867 30.9877C351.256 27.2866 350.501 22.9335 347.742 17.9342C337.233 -1.11167 320.591 -3.32888 314.226 11.846C310.297 21.2143 320.911 32.2727 329.611 39.3657Z" fill="#CFDAEF"/>
<path d="M75.1277 432.953C59.2117 421.116 52.8484 407.65 52.4185 387.82C51.9887 367.99 65.6626 347.556 85.1955 344.109C83.6359 320.689 82.4415 296.97 86.8457 273.916C91.2499 250.862 101.831 228.22 120.145 213.54C138.46 198.861 165.276 193.684 186.075 204.559C189.102 206.142 192.81 208.038 195.676 206.179C197.245 205.163 197.999 203.298 198.674 201.555C206.794 180.597 216.883 160.143 231.255 142.863C245.626 125.583 264.599 111.569 286.352 105.915C307.121 100.516 329.188 102.947 350.032 108.051C365.119 111.746 380.358 117.104 391.707 127.709C404.917 140.053 411.291 158.037 414.995 175.733C419.266 196.141 416.489 216.19 419.074 236.336C421.366 254.186 434.766 247.456 449 242.481C470.655 234.915 496.599 240.944 512.461 257.232C528.324 273.519 533.229 299.165 524.46 319.963C543.699 301.251 575.08 295.745 599.767 306.749C624.452 317.753 640.798 344.536 638.99 371.019C658.529 356.26 687.619 354.993 708.421 367.995C729.223 380.996 740.278 407.353 734.806 430.902" fill="#CFDAEF"/>
<path d="M358.419 207.707C359.813 207.707 360.943 206.577 360.943 205.183C360.943 203.789 359.813 202.659 358.419 202.659C357.025 202.659 355.895 203.789 355.895 205.183C355.895 206.577 357.025 207.707 358.419 207.707Z" fill="white"/>
<path d="M324.601 258.182C324.601 255.395 322.342 253.134 319.553 253.134C316.766 253.134 314.505 255.394 314.505 258.182C314.505 260.97 316.765 263.23 319.553 263.23C322.342 263.23 324.601 260.971 324.601 258.182Z" fill="white"/>
<path d="M330.153 316.229C330.153 315.113 329.249 314.209 328.135 314.209C327.019 314.209 326.115 315.113 326.115 316.229C326.115 317.344 327.019 318.248 328.135 318.248C329.249 318.249 330.153 317.345 330.153 316.229Z" fill="white"/>
<path d="M399.305 296.544C399.305 292.92 396.367 289.982 392.743 289.982C389.118 289.982 386.181 292.919 386.181 296.544C386.181 300.168 389.118 303.106 392.743 303.106C396.367 303.106 399.305 300.168 399.305 296.544Z" fill="white"/>
<path d="M408.895 251.117C409.453 251.117 409.905 250.665 409.905 250.107C409.905 249.549 409.453 249.097 408.895 249.097C408.337 249.097 407.885 249.549 407.885 250.107C407.885 250.665 408.337 251.117 408.895 251.117Z" fill="white"/>
<path d="M320.563 144.614C323.629 144.614 326.115 142.128 326.115 139.061C326.115 135.995 323.629 133.509 320.563 133.509C317.497 133.509 315.011 135.995 315.011 139.061C315.011 142.128 317.497 144.614 320.563 144.614Z" fill="white"/>
<path d="M486.627 277.363C486.627 274.297 484.141 271.811 481.075 271.811C478.009 271.811 475.522 274.297 475.522 277.363C475.522 280.429 478.009 282.915 481.075 282.915C484.141 282.915 486.627 280.43 486.627 277.363Z" fill="white"/>
<path d="M271.098 48.4128C279.576 48.4128 286.448 41.5403 286.448 33.0627C286.448 24.5852 279.576 17.7127 271.098 17.7127C262.62 17.7127 255.748 24.5852 255.748 33.0627C255.748 41.5403 262.62 48.4128 271.098 48.4128Z" stroke="#ECF5E9" stroke-width="1.0541" stroke-miterlimit="10"/>
<path d="M471.485 220.579C473.366 220.579 474.892 219.053 474.892 217.171C474.892 215.29 473.366 213.764 471.485 213.764C469.603 213.764 468.077 215.29 468.077 217.171C468.077 219.053 469.603 220.579 471.485 220.579Z" fill="#ECF5E9"/>
<path d="M407.329 89.3059C407.329 86.4277 404.996 84.0949 402.118 84.0949C399.24 84.0949 396.907 86.4277 396.907 89.3059C396.907 92.1841 399.24 94.5169 402.118 94.5169C404.996 94.5169 407.329 92.1841 407.329 89.3059Z" fill="#ECF5E9"/>
<path d="M275.589 68.611C275.589 65.7328 273.256 63.4 270.378 63.4C267.5 63.4 265.167 65.7328 265.167 68.611C265.167 71.4892 267.5 73.822 270.378 73.822C273.256 73.822 275.589 71.4892 275.589 68.611Z" fill="#ECF5E9"/>
<path d="M151.219 179.694C156.237 179.694 160.305 175.626 160.305 170.608C160.305 165.59 156.237 161.522 151.219 161.522C146.201 161.522 142.133 165.59 142.133 170.608C142.133 175.626 146.201 179.694 151.219 179.694Z" stroke="#ECF5E9" stroke-width="1.0541" stroke-miterlimit="10"/>
<path d="M61.4994 311.434C61.4994 308.298 58.9571 305.755 55.8207 305.755C52.6844 305.755 50.1421 308.298 50.1421 311.434C50.1421 314.57 52.6844 317.112 55.8207 317.112C58.9571 317.112 61.4994 314.57 61.4994 311.434Z" fill="#ECF5E9"/>
<path d="M39.9209 412.511C39.9209 410.002 37.8873 407.969 35.3784 407.969C32.8696 407.969 30.8359 410.002 30.8359 412.511C30.8359 415.02 32.8696 417.053 35.3784 417.053C37.8873 417.053 39.9209 415.02 39.9209 412.511Z" fill="#ECF5E9"/>
<path d="M60.1891 281.643C65.0727 280.49 68.0969 275.596 66.9437 270.712C65.7905 265.829 60.8968 262.805 56.0132 263.958C51.1296 265.111 48.1055 270.005 49.2586 274.888C50.4118 279.772 55.3055 282.796 60.1891 281.643Z" stroke="#ECF5E9" stroke-width="1.0541" stroke-miterlimit="10"/>
<path d="M490.791 200.135C496.436 200.135 501.012 195.559 501.012 189.914C501.012 184.269 496.436 179.693 490.791 179.693C485.146 179.693 480.57 184.269 480.57 189.914C480.57 195.559 485.146 200.135 490.791 200.135Z" stroke="#ECF5E9" stroke-width="1.0541" stroke-miterlimit="10"/>
<path d="M675.909 342.097C679.672 342.097 682.723 339.047 682.723 335.283C682.723 331.52 679.672 328.47 675.909 328.47C672.146 328.47 669.095 331.52 669.095 335.283C669.095 339.047 672.146 342.097 675.909 342.097Z" fill="#ECF5E9"/>
<path d="M713.127 347.527C718.006 342.648 718.006 334.739 713.127 329.86C708.249 324.982 700.339 324.982 695.46 329.86C690.582 334.739 690.582 342.648 695.46 347.527C700.339 352.405 708.248 352.405 713.127 347.527Z" stroke="#ECF5E9" stroke-width="1.0541" stroke-miterlimit="10"/>
<path d="M504.419 228.158C508.815 228.158 508.821 221.328 504.419 221.328C500.025 221.327 500.017 228.158 504.419 228.158Z" fill="#20355D"/>
<path d="M669.094 301.978C673.489 301.978 673.496 295.148 669.094 295.148C664.7 295.147 664.692 301.978 669.094 301.978Z" fill="#20355D"/>
<path d="M76.2628 240.651C80.6574 240.651 80.6649 233.82 76.2628 233.82C71.8683 233.821 71.8608 240.651 76.2628 240.651Z" fill="#20355D"/>
<path d="M17.2073 360.47C19.8868 360.47 22.454 358.114 22.3298 355.348C22.2056 352.572 20.0791 350.225 17.2073 350.225C14.5279 350.225 11.9607 352.582 12.0849 355.348C12.2091 358.123 14.3356 360.47 17.2073 360.47Z" fill="#20355D"/>
<path d="M662.281 412.712C664.96 412.712 667.527 410.355 667.403 407.589C667.279 404.814 665.152 402.467 662.281 402.467C659.601 402.467 657.034 404.824 657.158 407.589C657.282 410.365 659.409 412.712 662.281 412.712Z" fill="#20355D"/>
<path d="M759.95 328.671C762.63 328.671 765.197 326.314 765.073 323.548C764.949 320.773 762.822 318.426 759.95 318.426C757.271 318.426 754.704 320.782 754.828 323.548C754.952 326.324 757.079 328.671 759.95 328.671Z" fill="#20355D"/>
<path d="M243.978 210.389C243.978 210.389 260.687 201.543 282.965 248.393C305.243 295.244 341.61 405.98 341.61 405.98L275.103 404.67C275.103 404.67 251.186 222.511 243.978 210.389Z" fill="#20355D"/>
<path d="M169.152 197.9C169.152 197.9 116.66 214.631 110.039 266.102C103.417 317.573 133.578 449.612 133.578 449.612L303.463 449.655L264.383 250.902C261.324 237.767 259.691 218.894 247.733 211.363L227.542 199.149L187.566 188.882L169.152 197.9Z" fill="#20355D"/>
<path d="M286.584 415.43C271.354 384.97 151.12 218.52 153.206 205.328C137.181 214.555 114.266 233.239 110.039 266.102C103.416 317.573 133.578 449.612 133.578 449.612L302.84 449.343C304.343 447.841 287.336 416.933 286.584 415.43Z" fill="#23427D"/>
<path d="M163.757 205.27C151.87 197.735 115.222 218.908 105.393 267.397C95.4187 319.385 113.051 422.691 130.048 428.916C147.044 435.141 239.82 417.122 239.82 417.122C239.82 417.122 239.256 397.402 241.51 383.315L178.256 368.633C178.256 368.633 172.208 298.236 163.757 205.27Z" fill="#20355D"/>
<path d="M273.303 418.625H177.728V429.833H273.303V418.625Z" fill="#20355D"/>
<path d="M178 419H240L235.121 432H178V419Z" fill="#436FC3"/>
<path d="M392.639 431H242L278.361 326H429L392.639 431Z" fill="#436FC3"/>
<path d="M344.497 380.81C344.497 375.587 340.262 371.352 335.039 371.352C329.815 371.352 325.582 375.587 325.582 380.81C325.582 386.033 329.815 390.267 335.039 390.267C340.262 390.267 344.497 386.033 344.497 380.81Z" fill="#20355D"/>
<path d="M198.706 161.286L184.319 191.216L200.654 213.293C214.187 221.84 224.971 218.821 225.735 205.832L223.999 190.864L205.879 158.047C205.879 158.047 200.802 159.425 199.927 160.273C199.051 161.119 198.706 161.286 198.706 161.286Z" fill="#DEA3A3"/>
<path d="M205.878 158.047L223.998 190.864C223.998 190.864 220.06 200.455 214.494 197.441C210.116 195.07 203.02 184.173 204.779 172.12" fill="#DE8986"/>
<path d="M199.601 145.092C199.601 145.092 203.773 146.937 205.359 152.137L226.535 124.209C226.535 124.209 229.355 132.418 233.068 138.086C236.781 143.754 249.691 146.667 253.456 146.559C257.22 146.451 261.827 131.333 261.827 131.333C261.827 131.333 270.882 129.36 270.443 124.361C270.005 119.361 265.67 119.633 265.67 119.633C265.67 119.633 278.846 110.714 279.174 103.98C280.108 84.839 214.818 107.387 214.818 107.387C214.818 107.387 199.297 94.8949 201.085 117.413C201.085 117.413 193.353 122.125 197.91 128.591C197.91 128.591 193.626 139.491 199.601 145.092Z" fill="#0E1D2E"/>
<path d="M263.216 129.833C256.315 140.983 252.482 137.081 250.604 132.755C249.322 131.862 248.047 130.596 246.789 129.254C246.401 129.337 245.963 129.412 245.428 129.527C243.578 129.926 241.546 129.493 240.079 128.296C239.153 127.54 238.474 126.522 237.924 125.46C237.449 124.545 237.054 123.559 237.031 122.529C237.023 122.136 237.151 121.648 237.362 121.122C237.3 121.09 237.238 121.059 237.175 121.029C233.447 124.359 229.544 123.236 227.194 121.976C225.621 123.044 223.943 124.604 222.157 126.823C218.043 131.936 209.995 144.29 206.395 148.464C205.784 149.172 204.659 149.043 204.243 148.21C202.825 145.378 199.547 141.018 195.079 148.696C189.011 159.123 201.626 161.45 202.04 163.293C202.883 167.029 205.417 179.477 213.22 186.738C217.975 191.163 232.473 199.494 240.659 195.922C248.844 192.35 243.872 192.287 263.216 129.833Z" fill="#DEA3A3"/>
<path d="M247.236 174.037C247.236 174.037 242.895 174.52 234.147 170.467C234.147 170.467 236.717 178.64 240.724 178.663C244.732 178.686 247.236 174.037 247.236 174.037Z" fill="white"/>
<path d="M197.164 148.501L201.812 155.386C201.812 155.386 203.461 143.324 197.164 148.501Z" fill="#DE8986"/>
<path d="M244.496 158.357C244.018 159.701 243.085 160.597 242.413 160.357C241.74 160.117 241.584 158.834 242.063 157.49C242.543 156.145 243.475 155.25 244.147 155.489C244.818 155.729 244.975 157.012 244.496 158.357Z" fill="#436FC3"/>
<path d="M252.842 159.986C252.363 161.331 251.43 162.226 250.757 161.987C250.085 161.748 249.929 160.464 250.407 159.119C250.886 157.776 251.819 156.879 252.491 157.119C253.163 157.359 253.32 158.643 252.842 159.986Z" fill="#436FC3"/>
<path d="M237.998 144.222C235.756 144.809 240.561 140.249 243.233 140.502C245.905 140.756 247.893 142.832 247.675 145.14C247.675 145.14 243.383 142.809 237.998 144.222Z" fill="#436FC3"/>
<path d="M256.739 150.231C254.273 148.981 252.255 148.767 252.255 148.767C253.306 146.883 255.711 146.158 257.975 146.901" fill="#436FC3"/>
<path d="M249.139 158.59L249.176 170.222C249.176 170.411 249.003 170.554 248.83 170.507L244.337 169.271C244.18 169.229 244.102 169.05 244.169 168.892L248.626 158.495C248.747 158.215 249.138 158.288 249.139 158.59Z" fill="#DE8986"/>
<path d="M367.805 218.013C354.426 220.523 343.064 231.593 340.206 244.901C344.079 241.631 348.902 239.498 353.927 238.833C339.003 257.922 332.061 283.06 335.072 307.103C356.06 300.911 373.69 284.291 381.107 263.703C380.77 269.355 380.433 275.006 380.096 280.658C388.396 275.971 394.844 268.1 397.808 259.04C398.899 255.706 399.532 252.122 398.83 248.686C398.164 245.426 396.038 237.724 394.181 234.963C387.977 225.737 380.009 221.238 368.956 220.048" fill="#436FC3"/>
<path d="M408.082 220.292L408.107 220.257L414.762 210.958L387.686 191.582L381.031 200.881L381.056 200.846C375.861 200.61 371.264 203.401 368.012 207.945L405.619 234.86C408.871 230.316 409.982 225.132 408.082 220.292Z" fill="#436FC3"/>
<path d="M394.917 200.131C399.11 206.796 408.107 220.257 408.107 220.257L414.762 210.958L391.036 193.978C392.285 196.056 393.628 198.085 394.917 200.131Z" fill="#121212"/>
<path d="M450.769 184.136L452.433 203.442C452.838 208.137 451.238 212.784 448.029 216.235L429.759 235.88C428.475 237.262 426.296 237.29 424.978 235.942C423.809 234.748 423.714 232.87 424.757 231.566L432.266 222.174C436.879 216.405 436.58 208.13 431.563 202.708L450.769 184.136Z" fill="#57A773"/>
<path d="M402.092 149.301L383.282 153.955C378.707 155.087 374.825 158.1 372.594 162.251L359.893 185.883C359 187.544 359.676 189.614 361.377 190.428C362.884 191.15 364.692 190.634 365.59 189.225L372.057 179.088C376.031 172.861 383.959 170.474 390.709 173.474L402.092 149.301Z" fill="#57A773"/>
<path d="M451.833 196.478L450.769 184.136L431.562 202.707C432.549 203.774 433.346 204.953 433.967 206.201C439.86 202.846 445.8 199.576 451.833 196.478Z" fill="#2EA156"/>
<path d="M386.806 159.08C386.977 163.544 387.227 168.004 387.46 172.466C388.559 172.678 389.65 173 390.711 173.471L402.092 149.301L386.902 153.058C386.911 155.215 386.742 157.387 386.806 159.08Z" fill="#2EA156"/>
<path d="M384.507 184.507C384.507 184.507 389.818 163.73 402.397 146.788C414.976 129.847 437.904 88.9052 467.607 72.8402C485.328 63.2563 494.16 60.4321 498.402 59.7139C500.321 59.3888 502.075 60.8479 502.114 62.7951C502.27 70.5722 502.488 90.873 500.758 98.3854C498.598 107.763 495.612 126.564 450.768 184.136C450.768 184.136 433.839 205.247 422.732 211.863L384.507 184.507Z" fill="#20355D"/>
<path d="M496.52 94.006C497.967 95.4306 499.376 96.8972 500.754 98.3984C500.756 98.3941 500.757 98.3898 500.758 98.3854C502.488 90.873 502.27 70.5722 502.114 62.7951C502.075 60.849 500.321 59.3888 498.402 59.7139C494.16 60.4321 485.328 63.2563 467.607 72.8402C467.227 73.0454 466.853 73.2722 466.476 73.485C477.817 77.9724 487.864 85.4848 496.52 94.006Z" fill="#57A773"/>
<path d="M485.6 69.3108C491.142 67.5849 496.59 65.5869 502.135 63.8665C502.128 63.4896 502.121 63.1267 502.114 62.7941C502.075 60.8479 500.321 59.3877 498.402 59.7128C494.16 60.431 485.328 63.2552 467.607 72.8391C467.227 73.0443 466.853 73.2711 466.476 73.4839C468.077 74.1179 469.649 74.8166 471.197 75.5651C475.568 72.6663 480.58 70.8735 485.6 69.3108Z" fill="#2EA156"/>
<path d="M417.865 215.868L382.584 190.62C380.998 189.485 380.633 187.279 381.768 185.693C382.903 184.107 385.108 183.741 386.695 184.876L421.975 210.124C423.562 211.259 423.927 213.465 422.792 215.051C421.656 216.638 419.451 217.003 417.865 215.868Z" fill="#436FC3"/>
<path d="M474.269 98.0485C465.886 92.0491 454.227 93.9812 448.228 102.364C442.228 110.747 444.16 122.406 452.543 128.405C460.926 134.405 472.585 132.472 478.584 124.089C484.584 115.706 482.652 104.047 474.269 98.0485ZM455.707 123.984C449.766 119.732 448.396 111.469 452.648 105.527C456.9 99.5864 465.163 98.217 471.104 102.469C477.045 106.721 478.415 114.984 474.163 120.925C469.911 126.866 461.649 128.236 455.707 123.984Z" fill="#436FC3"/>
<path opacity="0.37" d="M474.163 120.925C478.415 114.984 477.045 106.721 471.104 102.469C465.163 98.217 456.9 99.5864 452.648 105.528C448.396 111.469 449.766 119.732 455.707 123.984C461.649 128.236 469.911 126.866 474.163 120.925Z" fill="#436FC3"/>
<g opacity="0.6">
<path d="M452.149 106.305C448.535 112.172 450.018 119.913 455.707 123.985C456.596 124.621 457.539 125.115 458.51 125.503C456.303 119.133 454.185 112.733 452.149 106.305Z" fill="#FAF9F4"/>
<path d="M466.674 126.039C469.591 125.296 472.274 123.565 474.164 120.925C478.416 114.984 477.046 106.721 471.105 102.469C467.258 99.716 462.443 99.3326 458.369 101.009C460.988 109.401 463.747 117.75 466.674 126.039Z" fill="#FAF9F4"/>
</g>
<path d="M473.679 101.038C474.084 100.472 473.953 99.6836 473.387 99.2786C472.82 98.8736 472.033 99.0043 471.628 99.5702C471.223 100.136 471.354 100.925 471.92 101.33C472.485 101.736 473.274 101.605 473.679 101.038Z" fill="white"/>
<path d="M455.183 126.883C455.588 126.316 455.458 125.529 454.891 125.124C454.324 124.719 453.537 124.85 453.132 125.416C452.727 125.982 452.858 126.77 453.423 127.175C453.99 127.58 454.778 127.449 455.183 126.883Z" fill="white"/>
<path d="M479.289 111.872C479.975 111.759 480.44 111.109 480.326 110.422C480.213 109.735 479.563 109.271 478.876 109.384C478.189 109.498 477.724 110.148 477.838 110.835C477.953 111.521 478.602 111.987 479.289 111.872Z" fill="white"/>
<path d="M447.935 117.068C448.622 116.955 449.086 116.305 448.973 115.618C448.859 114.931 448.209 114.466 447.522 114.58C446.836 114.693 446.37 115.344 446.485 116.03C446.599 116.718 447.248 117.183 447.935 117.068Z" fill="white"/>
<path d="M475.594 123.5C476.161 123.905 476.948 123.774 477.353 123.208C477.758 122.641 477.628 121.854 477.062 121.449C476.496 121.044 475.707 121.173 475.302 121.74C474.897 122.307 475.028 123.095 475.594 123.5Z" fill="white"/>
<path d="M449.749 105.004C450.316 105.409 451.104 105.278 451.509 104.712C451.914 104.145 451.783 103.358 451.217 102.953C450.651 102.548 449.863 102.678 449.458 103.244C449.053 103.811 449.183 104.599 449.749 105.004Z" fill="white"/>
<path d="M464.759 129.109C464.873 129.796 465.523 130.261 466.21 130.147C466.897 130.034 467.361 129.384 467.248 128.697C467.134 128.01 466.484 127.545 465.797 127.659C465.11 127.773 464.646 128.422 464.759 129.109Z" fill="white"/>
<path d="M459.563 97.7558C459.677 98.4427 460.327 98.9082 461.014 98.7937C461.701 98.6803 462.165 98.0301 462.052 97.3433C461.938 96.6564 461.288 96.192 460.601 96.3054C459.914 96.4199 459.45 97.0689 459.563 97.7558Z" fill="white"/>
<path d="M423.232 117.353C423.232 117.353 454.832 126.941 472.753 152.174" stroke="#436FC3" stroke-width="0.3512" stroke-miterlimit="10" stroke-dasharray="2.81 2.81"/>
<path d="M452.822 82.5753C461.276 85.7937 482.174 95.1271 496.385 113.133" stroke="#436FC3" stroke-width="0.3512" stroke-miterlimit="10" stroke-dasharray="2.81 2.81"/>
<path d="M418.828 123.507C418.828 123.507 450.428 133.094 468.349 158.328" stroke="#436FC3" stroke-width="0.3512" stroke-miterlimit="10" stroke-dasharray="2.81 2.81"/>
<path d="M480.893 140.783C480.893 140.783 469.937 134.763 458.991 147.895C450.056 158.614 448.326 173.196 454.638 179.681" stroke="#436FC3" stroke-width="0.3512" stroke-miterlimit="10" stroke-dasharray="2.81 2.81"/>
<path d="M432.163 105.491C432.163 105.491 441.3 114.023 432.237 128.519C424.839 140.351 411.526 146.544 403.395 142.569" stroke="#436FC3" stroke-width="0.3512" stroke-miterlimit="10" stroke-dasharray="2.81 2.81"/>
<path d="M458.244 172.719C458.997 171.679 458.764 170.224 457.724 169.471C456.684 168.717 455.229 168.95 454.477 169.991C453.723 171.031 453.956 172.485 454.996 173.238C456.036 173.992 457.49 173.76 458.244 172.719Z" fill="#436FC3"/>
<path d="M477.028 146.119C477.782 145.079 477.549 143.624 476.509 142.872C475.468 142.118 474.014 142.351 473.261 143.391C472.507 144.431 472.74 145.886 473.78 146.639C474.82 147.393 476.275 147.16 477.028 146.119Z" fill="#436FC3"/>
<path d="M413.976 140.66C414.729 139.62 414.496 138.165 413.456 137.412C412.416 136.658 410.961 136.892 410.208 137.932C409.455 138.972 409.688 140.427 410.728 141.179C411.768 141.933 413.223 141.7 413.976 140.66Z" fill="#436FC3"/>
<path d="M432.761 114.061C433.515 113.021 433.282 111.566 432.242 110.813C431.202 110.059 429.747 110.292 428.994 111.332C428.24 112.373 428.474 113.827 429.514 114.58C430.554 115.334 432.007 115.101 432.761 114.061Z" fill="#436FC3"/>
<path d="M373.244 219.574C365.634 221.002 359.171 227.3 357.546 234.869C359.749 233.009 362.492 231.796 365.351 231.418C356.861 242.276 352.912 256.575 354.624 270.251C366.564 266.729 376.591 257.275 380.811 245.565C380.619 248.78 380.428 251.994 380.236 255.209C384.957 252.543 388.626 248.066 390.311 242.912C390.931 241.016 391.291 238.977 390.892 237.022C390.513 235.168 389.304 230.787 388.248 229.217C384.718 223.969 380.187 221.408 373.899 220.733" fill="#57A773"/>
<path d="M545.305 216.035C553.458 216.035 560.068 209.425 560.068 201.272C560.068 193.118 553.458 186.508 545.305 186.508C537.151 186.508 530.541 193.118 530.541 201.272C530.541 209.425 537.151 216.035 545.305 216.035Z" fill="#20355D"/>
<path d="M645.877 221.839C644.54 204.711 626.206 199.113 635.503 189.47C644.799 179.828 633.792 172.751 626.049 169.308C618.306 165.865 624.087 165.851 623.849 152.799C623.61 139.747 613.083 137.957 613.083 137.957C601.662 133.307 570.29 125.686 557.167 142.594C554.264 146.334 558.703 158.581 560.292 162.986C560.292 162.986 565.523 165.442 558.191 170.44C550.858 175.438 555.128 194.746 553.03 197.971C541.569 215.59 567.663 215.263 584.827 219.276L645.877 221.839Z" fill="#20355D" stroke="#20355D" stroke-width="1.2374" stroke-miterlimit="10"/>
<path d="M622.601 156.772C621.374 158.739 621.569 161.119 622.625 163.123C623.775 165.304 625.941 166.688 628.096 167.734C633.035 170.131 638.611 172.276 641.228 177.504C642.47 179.984 642.901 183.061 641.702 185.642C640.737 187.719 638.999 189.31 637.794 191.235C636.628 193.098 636.074 195.28 636.824 197.412C637.612 199.654 639.444 201.299 641.192 202.811C645.775 206.772 649.74 211.741 650.096 218.033C650.172 219.366 652.254 219.375 652.178 218.033C651.891 212.958 649.517 208.389 646.154 204.655C643.384 201.581 636.617 198.056 639.14 193.076C640.199 190.987 641.992 189.381 643.152 187.354C644.315 185.32 644.69 182.99 644.369 180.681C643.649 175.51 639.894 171.66 635.569 169.093C633.002 167.57 630.145 166.624 627.582 165.109C625.179 163.688 622.609 160.696 624.401 157.824C625.11 156.684 623.31 155.637 622.601 156.772Z" fill="#20355D"/>
<path d="M618.09 144.007C616.35 141.103 617.381 137.384 618.618 134.234C619.475 132.057 620.471 129.826 622.273 128.334C624.867 126.184 628.723 126.033 631.838 127.313C634.955 128.594 637.421 131.095 639.398 133.823C642.38 137.937 644.478 142.859 644.416 147.939C644.356 153.019 641.863 158.215 637.442 160.715C633.019 163.216 626.733 162.377 623.714 158.291" fill="#20355D"/>
<path d="M558.996 246.834L544.704 167.605C544.039 162.264 553.702 149.477 558.384 146.794C571.208 139.447 578.241 133.095 592.712 136.1C592.712 136.1 627.081 127.741 627.435 160.393C627.71 185.66 612.237 211.518 581.147 210.826" fill="#20355D"/>
<path d="M558.996 246.834L544.704 167.605C544.039 162.264 553.702 149.477 558.384 146.794C571.208 139.447 578.241 133.095 592.712 136.1C592.712 136.1 627.081 127.741 627.435 160.393C627.71 185.66 612.237 211.518 581.147 210.826" stroke="#20355D" stroke-width="1.2374" stroke-miterlimit="10"/>
<path d="M587.481 181.129C589.149 184.542 592.797 186.397 596.562 185.886C596.621 185.877 596.67 185.873 596.705 185.873C599.681 185.86 606.545 185.226 607.515 193.008C608.495 200.874 600.999 205.301 596.489 205.547C595.187 205.619 592.183 205.884 591.301 206.844C588.588 209.795 591.457 232.716 589.37 240.752C584.759 258.504 594.56 250.139 594.56 250.139C594.56 250.139 548.062 273 548.494 250.083C548.494 250.083 552.169 207.924 551.953 207.708C548.323 204.079 534.225 202.52 543.09 172.468C551.301 144.63 566.36 144.45 571.552 145.369C562.698 161.488 579.634 165.078 587.481 181.129Z" fill="#DEA3A3"/>
<path d="M604.134 195.264C604.134 195.264 599.46 185.401 593.527 198.617Z" fill="#DE8986"/>
<path d="M569.603 184.613C565.745 184.526 562.547 187.583 562.461 191.44C562.374 195.298 565.431 198.496 569.287 198.582C573.145 198.67 576.343 195.612 576.429 191.755C576.517 187.897 573.46 184.699 569.603 184.613Z" fill="#DE8986"/>
<path d="M540.494 187.219C543.692 186.639 546.149 183.877 546.226 180.502C546.284 177.9 544.914 175.599 542.83 174.349C542.83 174.349 539.846 182.079 540.494 187.219Z" fill="#DE8986"/>
<path d="M546.373 183.619L557.023 188.924C557.023 188.924 551.813 192.715 548.997 190.64C546.183 188.567 546.373 183.619 546.373 183.619Z" fill="white"/>
<path d="M554.527 175.886L552.842 183.488L549.141 181.853C548.458 181.552 548.347 180.63 548.939 180.174L554.527 175.886Z" fill="#DE8986"/>
<path d="M568.193 173.035C569.117 174.326 568.582 169.821 567.063 168.784C565.545 167.748 563.589 167.971 562.694 169.283C562.694 169.283 565.974 169.933 568.193 173.035Z" fill="#20355D"/>
<path d="M548.106 165.433C546.578 165.862 549.814 162.682 551.646 162.824C553.479 162.965 554.866 164.364 554.743 165.946C554.743 165.946 551.778 164.403 548.106 165.433Z" fill="#20355D"/>
<path d="M562.05 178.627C561.536 179.901 560.619 180.73 560.001 180.482C559.385 180.232 559.3 178.999 559.814 177.725C560.329 176.452 561.245 175.622 561.863 175.871C562.481 176.121 562.564 177.354 562.05 178.627Z" fill="#20355D"/>
<path d="M552.185 173.929C551.694 175.145 550.818 175.938 550.229 175.7C549.64 175.462 549.56 174.283 550.05 173.067C550.542 171.851 551.416 171.059 552.006 171.297C552.596 171.535 552.676 172.714 552.185 173.929Z" fill="#20355D"/>
<path d="M551.952 207.71C551.952 207.71 565.226 210.245 571.929 209.813C578.631 209.381 550.329 227.976 551.952 207.71Z" fill="#DE8986"/>
<path d="M646.291 441.646C645.885 440.195 645.548 438.948 645.288 437.933C637.722 408.34 630.763 391.293 617.598 368.017C591.134 367.229 559.285 362.525 533.187 366.124C521.942 384.709 514.382 410.933 509.544 441.645H646.291V441.646Z" fill="#436FC3"/>
<path d="M539.681 368.877C530.339 390.747 526.924 413.514 521.025 436.496" stroke="white" stroke-width="0.942" stroke-miterlimit="10"/>
<path d="M618.253 436.361C614.58 414.653 608.889 391.884 603.921 370.296" stroke="white" stroke-width="0.942" stroke-miterlimit="10"/>
<path opacity="0.21" d="M640.638 441.646C639.583 422.199 635.9 390.14 623.44 366.747L531.163 370.296L619.755 441.646H640.638Z" fill="#20355D"/>
<path d="M430.157 303.756C430.157 303.756 500.393 401.156 516.853 389.544C516.853 389.544 535.733 376.215 526.239 321.801C526.221 316.516 526.194 312.852 526.382 312.024C526.382 312.024 530.463 258.3 539.293 247.174C540.262 245.952 543.189 243.682 542.8 243.584C515.83 236.841 505.511 304.645 498.075 336.011C497.767 337.311 446.285 287.174 446.285 287.174C446.285 287.174 419.317 251.519 417.437 253.556C414.711 256.508 425.16 272.409 425.16 272.409C425.16 272.409 424.479 274.226 422.434 275.135C420.39 276.043 419.253 277.406 418.572 280.132C417.891 282.858 415.165 284.448 414.711 286.038C414.257 287.628 424.403 299.592 430.157 303.756Z" fill="#DEA3A3"/>
<path d="M445.377 286.947C445.377 286.947 439.925 271.501 437.653 271.954C435.382 272.409 425.387 276.725 425.615 280.586C425.843 284.448 434.474 281.267 434.474 281.267C434.474 281.267 432.884 289.899 437.2 291.035C441.516 292.171 445.377 286.947 445.377 286.947Z" fill="#DEA3A3"/>
<path d="M431.975 280.587C431.975 280.587 432.203 284.449 429.022 285.129C429.022 285.129 428.341 289.218 424.252 288.31C424.252 288.31 425.387 290.127 422.889 290.581C422.889 290.581 433.564 302.166 431.975 280.587Z" fill="#DE8986"/>
<path d="M434.048 273.148C433.12 273.843 432.148 274.436 431.203 275.081L428.291 276.841C427.809 277.14 427.322 277.426 426.821 277.685C426.306 277.955 425.85 278.211 425.486 278.518C425.115 278.814 424.837 279.172 424.793 279.413C424.753 279.647 424.798 279.814 425.064 280.072C425.304 280.336 425.753 280.603 426.201 280.815C426.654 281.025 427.14 281.184 427.647 281.303C428.665 281.552 429.754 281.58 430.867 281.682L431.737 281.734C432.069 281.776 432.488 281.792 432.926 282.179C433.134 282.374 433.264 282.675 433.278 282.924C433.297 283.171 433.254 283.36 433.217 283.515L432.995 284.346C432.643 285.437 432.349 286.538 431.945 287.619L431.844 287.599L432.465 284.246L432.62 283.408C432.674 283.138 432.678 282.846 432.477 282.677C432.055 282.355 431.422 282.502 430.869 282.478C429.731 282.486 428.583 282.444 427.457 282.217C426.343 281.976 425.218 281.593 424.339 280.796C423.906 280.397 423.663 279.737 423.848 279.148C424.023 278.562 424.462 278.13 424.914 277.779C425.371 277.421 425.884 277.158 426.392 276.907L427.915 276.136L434.004 273.054L434.048 273.148Z" fill="#DE8986"/>
<path d="M424.971 271.92C426.064 272.046 426.765 272.53 427.368 273.105C427.931 273.714 428.4 274.411 428.479 275.463L428.403 275.532L426.613 273.795L424.896 271.988L424.971 271.92Z" fill="#DE8986"/>
<path d="M420.359 277.657C422.43 279.01 424.204 280.474 426.059 281.88C426.508 282.248 426.972 282.596 427.435 282.949L428.787 283.995C429.22 284.298 429.656 284.565 430.128 284.66C430.619 284.789 431.161 284.728 431.66 284.387L431.743 284.448C431.377 284.958 430.737 285.191 430.135 285.2C429.517 285.211 428.929 284.985 428.401 284.702C427.357 284.103 426.388 283.408 425.432 282.689C423.552 281.212 421.823 279.546 420.282 277.723L420.359 277.657Z" fill="#DE8986"/>
<path d="M429.257 285.138C429.321 285.852 429.254 286.557 429.099 287.301C428.893 288.013 428.489 288.793 427.731 289.311C426.993 289.863 425.956 289.906 425.148 289.717C424.319 289.515 423.634 289.112 423.01 288.685C421.792 287.757 420.876 286.695 420.044 285.569C419.636 284.999 419.232 284.431 418.849 283.847C418.507 283.229 418.128 282.642 417.852 281.981L417.932 281.917C418.797 282.986 419.702 284.022 420.632 285.034C421.57 286.034 422.507 287.056 423.609 287.855C424.158 288.253 424.752 288.605 425.401 288.785C426.043 288.973 426.756 288.951 427.34 288.614C427.93 288.293 428.335 287.709 428.6 287.088C428.868 286.462 429.023 285.79 429.156 285.117L429.257 285.138Z" fill="#DE8986"/>
<path d="M424.53 287.626C424.782 288.509 424.704 289.428 424.477 290.324C424.331 290.769 424.18 291.224 423.779 291.698C423.663 291.815 423.549 291.934 423.361 292.04C423.145 292.162 423.029 292.2 422.908 292.25C422.657 292.351 422.393 292.407 422.133 292.433C421.108 292.593 420.046 292.201 419.368 291.862C419.018 291.674 418.588 291.523 418.157 291.174C417.751 290.807 417.523 290.387 417.399 289.934L417.476 289.866C417.758 290.173 418.059 290.469 418.426 290.65C418.791 290.832 419.209 290.908 419.614 291.027C420.418 291.294 421.225 291.499 422.05 291.444C422.449 291.402 422.891 291.352 423.165 291.069C423.448 290.784 423.652 290.413 423.824 290.037C424.15 289.278 424.405 288.455 424.428 287.63L424.53 287.626Z" fill="#DE8986"/>
<path d="M549.264 242.528C549.264 242.528 525.333 241.139 518.368 255.373C511.402 269.608 495.956 333.21 495.956 333.21L482.872 321.553L466.214 351.84C466.214 351.84 497.469 399.537 515.037 394.085C532.603 388.634 549.467 261.933 549.264 242.528Z" fill="#57A773"/>
<path d="M492.954 347.597C488.76 355.26 484.431 362.829 480.044 370.355C490.624 383.09 505.042 397.188 515.036 394.086C530.888 389.167 546.162 285.543 548.846 251.093C530.755 283.526 510.803 314.985 492.954 347.597Z" fill="#2EA156"/>
<path d="M547.844 243.237C548.604 245.08 518.349 301.827 519.254 319.898C520.165 338.103 532.131 365.784 531.163 368.522C531.163 368.522 590.079 369.941 623.681 370.346C647.637 349.387 633.261 280.699 625.215 258.143C625.215 258.143 597.393 233.431 590.789 232.945C590.789 232.945 554.587 259.208 547.844 243.237Z" fill="#57A773"/>
<path d="M625.215 258.143C625.215 258.143 619.24 252.843 612.181 247.107C611.677 247.964 611.138 248.809 610.626 249.663C613.934 254.074 614.875 260.057 611 266.223C589.352 300.672 567.339 334.885 544.937 368.841C564.395 369.284 600.203 370.062 623.681 370.345C647.638 349.387 633.261 280.699 625.215 258.143Z" fill="#2EA156"/>
<path d="M608.032 211.868C610.752 204.181 606.726 195.745 599.04 193.025C591.353 190.305 582.917 194.331 580.197 202.017C577.477 209.704 581.503 218.14 589.19 220.86C596.876 223.58 605.312 219.554 608.032 211.868Z" fill="#20355D"/>
<path d="M505.902 289.067L493.563 408.007L561.658 413.704L567.876 350.398L571.82 348.88C575.267 347.552 577.55 347.638 577.969 343.968L580.086 307.593C581.014 298.651 575.682 296.307 566.741 295.38L505.902 289.067Z" fill="#436FC3"/>
<path d="M553.057 346.93C553.73 337.735 546.822 329.734 537.627 329.062C528.432 328.389 520.431 335.296 519.758 344.492C519.086 353.687 533.872 369.283 533.872 369.283C533.872 369.283 552.384 356.125 553.057 346.93Z" fill="white"/>
<path d="M533.872 369.284C533.872 369.284 552.384 356.125 553.057 346.93C553.73 337.735 546.822 329.734 537.627 329.062" fill="#436FC3"/>
<path d="M540.861 366.016L527.433 365.033C526.395 364.957 525.615 364.054 525.691 363.016C525.766 361.978 526.67 361.197 527.708 361.274L541.135 362.256C542.173 362.332 542.953 363.236 542.877 364.274C542.802 365.312 541.898 366.092 540.861 366.016Z" fill="#436FC3"/>
<path d="M533.787 374.138C529.486 373.822 526.255 370.081 526.569 365.779L526.667 364.437L542.243 365.577L542.145 366.92C541.829 371.22 538.087 374.452 533.787 374.138Z" fill="#436FC3"/>
<path d="M506.38 343.619L513.948 344.173" stroke="white" stroke-width="1.0564" stroke-miterlimit="10" stroke-linecap="round"/>
<path d="M559.355 347.497L566.924 348.051" stroke="white" stroke-width="1.0564" stroke-miterlimit="10" stroke-linecap="round"/>
<path d="M516.814 322.862L521.774 328.606" stroke="white" stroke-width="1.0564" stroke-miterlimit="10" stroke-linecap="round"/>
<path d="M551.531 363.064L556.49 368.808" stroke="white" stroke-width="1.0564" stroke-miterlimit="10" stroke-linecap="round"/>
<path d="M538.868 315.564L538.314 323.131" stroke="white" stroke-width="1.0564" stroke-miterlimit="10" stroke-linecap="round"/>
<path d="M559.624 325.997L553.881 330.957" stroke="white" stroke-width="1.0564" stroke-miterlimit="10" stroke-linecap="round"/>
<path d="M519.422 360.714L513.679 365.674" stroke="white" stroke-width="1.0564" stroke-miterlimit="10" stroke-linecap="round"/>
<path d="M471.551 303.011L500.727 418.976L566.65 400.987L550.792 339.385L553.977 336.606C556.76 334.178 558.934 333.476 558.07 329.883L547.591 294.986C545.397 286.269 539.585 285.894 530.867 288.086L471.551 303.011Z" fill="#20355D"/>
<path d="M531.532 336.109C528.212 327.507 518.548 323.225 509.947 326.545C501.346 329.865 497.063 339.529 500.383 348.13C503.703 356.731 523.736 364.516 523.736 364.516C523.736 364.516 534.851 344.71 531.532 336.109Z" fill="#436FC3"/>
<path d="M523.736 364.516C523.736 364.516 534.851 344.71 531.533 336.109C528.213 327.507 518.549 323.225 509.948 326.545" fill="#436FC3"/>
<path d="M528.658 358.576L516.097 363.424C515.126 363.799 514.035 363.315 513.66 362.344C513.285 361.373 513.769 360.282 514.74 359.906L527.3 355.059C528.271 354.685 529.362 355.168 529.738 356.139C530.113 357.109 529.63 358.201 528.658 358.576Z" fill="#436FC3"/>
<path d="M525.732 368.941C521.709 370.494 517.188 368.49 515.635 364.467L515.15 363.211L529.719 357.588L530.204 358.844C531.757 362.868 529.755 367.387 525.732 368.941Z" fill="#436FC3"/>
<path d="M487.915 353.057L494.994 350.325" stroke="white" stroke-width="1.0564" stroke-miterlimit="10" stroke-linecap="round"/>
<path d="M537.469 333.93L544.549 331.199" stroke="white" stroke-width="1.0564" stroke-miterlimit="10" stroke-linecap="round"/>
<path d="M488.48 329.833L495.417 332.906" stroke="white" stroke-width="1.0564" stroke-miterlimit="10" stroke-linecap="round"/>
<path d="M537.045 351.348L543.983 354.423" stroke="white" stroke-width="1.0564" stroke-miterlimit="10" stroke-linecap="round"/>
<path d="M505.302 313.811L508.034 320.89" stroke="white" stroke-width="1.0564" stroke-miterlimit="10" stroke-linecap="round"/>
<path d="M528.526 314.377L525.452 321.314" stroke="white" stroke-width="1.0564" stroke-miterlimit="10" stroke-linecap="round"/>
<path d="M507.01 362.941L503.936 369.879" stroke="white" stroke-width="1.0564" stroke-miterlimit="10" stroke-linecap="round"/>
<path d="M517.28 358.164C513.857 353.868 510.436 349.571 507.013 345.274C506.591 344.744 505.851 345.494 506.269 346.019C509.692 350.315 513.113 354.612 516.536 358.908C516.957 359.439 517.698 358.689 517.28 358.164Z" fill="white"/>
<path d="M507.197 346.019C508.07 346.615 508.942 347.211 509.814 347.807C510.055 347.971 510.391 347.845 510.534 347.618C511.37 346.294 511.087 344.463 509.838 343.498C509.525 343.257 509.088 343.32 508.957 343.73C508.664 344.658 509.02 345.607 509.724 346.25C510.327 346.801 511.402 347.456 512.235 347.488C514.478 347.576 513.595 343.799 513.06 342.685C512.896 342.342 512.314 342.339 512.151 342.685C511.215 344.671 513.138 346.841 515.227 346.106C517.515 345.302 517.642 342.357 515.913 340.912C515.55 340.609 515.056 340.816 515.014 341.285C514.882 342.742 515.758 344.014 517.089 344.548C517.317 344.639 517.557 344.482 517.683 344.306C518.466 343.208 518.656 341.816 518.203 340.547C518.046 340.107 517.506 340.041 517.241 340.422C516.063 342.121 518.367 344.608 520.199 344.157C521.195 343.91 521.545 342.773 521.726 341.887C521.915 340.962 521.912 339.917 521.112 339.279C520.821 339.048 520.332 339.09 520.231 339.512C519.85 341.124 520.724 342.711 522.261 343.297C522.895 343.539 523.169 342.522 522.541 342.282C521.551 341.905 521.006 340.811 521.247 339.792C520.953 339.87 520.66 339.947 520.366 340.025C520.868 340.423 520.828 341.029 520.71 341.608C520.627 342.018 520.519 342.705 520.193 342.986C519.292 343.762 517.486 341.912 518.15 340.955C517.83 340.912 517.509 340.87 517.188 340.829C517.556 341.862 517.409 342.886 516.773 343.775C516.972 343.694 517.17 343.615 517.367 343.534C516.45 343.166 515.979 342.241 516.065 341.286C515.766 341.41 515.465 341.534 515.166 341.659C516.197 342.519 516.501 344.221 515.175 344.979C514.025 345.635 512.436 344.54 513.059 343.216C512.756 343.216 512.453 343.216 512.15 343.216C512.45 343.841 513.256 346.666 511.805 346.278C510.865 346.026 509.629 345.087 509.971 344.01C509.678 344.088 509.385 344.164 509.091 344.242C509.986 344.932 510.235 346.119 509.624 347.086C509.863 347.023 510.104 346.959 510.344 346.897C509.471 346.3 508.599 345.704 507.727 345.108C507.168 344.726 506.641 345.637 507.197 346.019Z" fill="white"/>
<path d="M521.924 339.463C522.582 345.217 523.104 350.986 523.763 356.74C523.839 357.405 524.893 357.413 524.816 356.74C524.158 350.986 523.636 345.217 522.977 339.463C522.901 338.797 521.847 338.789 521.924 339.463Z" fill="white"/>
<path d="M602.253 389.185C643.353 388.5 639.395 345.965 638.654 329.796C637.85 312.256 642.216 265.375 625.812 256.09C623.132 254.573 624.56 255.003 620.507 253.437L620.567 253.242C615.566 251.534 599.706 242.996 599.706 242.996C607.5 255.208 610.053 269.187 607.469 286.664C607.529 307.713 593.817 348.056 590.654 351.219C578.088 363.785 538.088 360.873 516.739 361.222C516.739 361.222 506.374 343.439 504.447 344.402C502.521 345.365 505.094 361.869 505.094 361.869C505.094 361.869 473.049 357.531 470.16 361.384C467.271 365.236 491.005 367.463 488.598 369.39C486.191 371.317 490.85 379.245 490.85 379.245L492.965 389.525C492.965 389.525 561.154 389.87 602.253 389.185Z" fill="#DEA3A3"/>
<path d="M642.888 327.905C642.083 310.364 645.222 262.713 628.818 253.428C626.137 251.911 591.7 233.779 591.7 233.779C593.225 239.903 605.855 270.496 602.254 290.051C602.313 311.1 591.064 344.473 587.9 347.636C584.051 351.486 578.111 351.26 571.08 353.459C575.443 363.193 582.581 379.625 586.989 389.34C592.534 389.312 597.686 389.263 602.254 389.186C643.353 388.5 643.629 344.072 642.888 327.905Z" fill="#57A773"/>
<path d="M730.796 450.286H25.1896C19.7205 450.286 15.2871 445.853 15.2871 440.384V439.98C15.2871 434.511 19.7205 430.077 25.1896 430.077H730.796C736.265 430.077 740.698 434.511 740.698 439.98V440.384C740.698 445.853 736.265 450.286 730.796 450.286Z" fill="#436FC3"/>
<g opacity="0.58">
<path d="M695.731 376.362C689.455 354.153 686.194 330.697 689.986 307.931C693.778 285.166 705.214 263.097 723.955 249.629C728.328 246.486 733.534 243.734 738.855 244.561C744.234 245.398 748.516 249.864 750.515 254.927C752.515 259.991 752.593 265.594 752.319 271.032C750.238 312.349 728.356 352.108 694.911 376.454" fill="#436FC3"/>
<path d="M697.377 375.909C691.181 353.892 687.807 330.504 691.737 307.762C694.946 289.197 703.196 271.11 716.8 257.859C720.232 254.517 723.991 251.35 728.139 248.93C732.327 246.486 737.422 244.946 741.97 247.388C751.314 252.402 751.095 264.642 750.444 273.754C749.108 292.459 743.628 310.83 734.892 327.401C726.127 344.027 714.087 358.892 699.51 370.772C697.727 372.225 695.904 373.626 694.047 374.982C692.289 376.265 693.991 379.23 695.77 377.93C711.711 366.288 725.087 351.325 734.998 334.257C744.897 317.209 751.299 298.161 753.427 278.551C754.516 268.517 755.533 256.586 748.507 248.363C745.44 244.774 740.913 242.448 736.129 242.73C730.658 243.053 725.815 246.055 721.564 249.284C705.659 261.368 695.169 279.401 690.221 298.58C684.344 321.363 686.34 345.47 691.802 368.122C692.505 371.036 693.27 373.932 694.082 376.817C694.679 378.929 697.976 378.031 697.377 375.909Z" fill="#436FC3"/>
<path d="M678.405 392.15C684.197 376.638 684.652 359.188 679.675 343.395C678.112 338.436 675.882 333.437 671.827 330.18C667.772 326.924 661.486 325.973 657.423 329.219C655.035 331.128 653.778 334.105 652.908 337.036C646.871 357.386 656.976 381.316 675.77 391.18" fill="#436FC3"/>
<path d="M680.052 392.603C684.281 381.159 685.74 368.681 684.239 356.57C683.509 350.683 682.235 344.756 680.007 339.243C678.048 334.395 675.056 329.516 670.201 327.132C665.773 324.958 660.183 324.758 656.216 328.012C652.299 331.225 650.883 336.886 650.095 341.673C648.535 351.138 649.998 360.835 653.849 369.589C658.118 379.291 665.512 387.668 674.908 392.654C676.849 393.683 678.576 390.737 676.632 389.706C661.434 381.64 652.159 364.386 652.913 347.304C653.104 342.975 653.844 338.307 655.695 334.354C656.651 332.312 658.053 330.43 660.19 329.537C662.172 328.707 664.447 328.767 666.486 329.336C671.343 330.693 674.414 334.94 676.372 339.35C678.503 344.151 679.744 349.463 680.551 354.636C682.49 367.061 681.113 379.913 676.759 391.695C675.995 393.76 679.295 394.651 680.052 392.603Z" fill="#436FC3"/>
<path d="M714.522 403.425C720.602 388.338 724.81 366.157 737.457 355.929C741.507 352.653 746.443 349.557 751.571 350.466C759.145 351.808 762.567 361.03 762.061 368.705C761.373 379.136 755.926 389.159 747.549 395.411C739.171 401.665 728.014 404.034 717.817 401.727" fill="#436FC3"/>
<path d="M716.169 403.88C719.631 395.244 722.032 386.225 725.463 377.575C728.766 369.247 733.083 361.017 740.543 355.707C744.574 352.838 749.9 350.416 754.517 353.454C757.926 355.698 759.559 360.008 760.163 363.878C761.634 373.307 757.151 383.608 750.716 390.331C742.475 398.942 729.891 402.633 718.274 400.082C716.133 399.611 715.217 402.903 717.366 403.375C728.787 405.883 741.037 403.047 750.074 395.587C758.347 388.759 763.929 377.786 763.818 366.965C763.769 362.247 762.473 357.321 759.536 353.562C756.336 349.468 751.276 347.748 746.225 349.065C740.957 350.439 736.054 354.298 732.514 358.341C729.29 362.023 726.804 366.284 724.733 370.701C719.851 381.11 717.145 392.327 712.877 402.972C712.059 405.011 715.36 405.897 716.169 403.88Z" fill="#436FC3"/>
<path d="M78.5339 367.462C80.3872 349.015 77.3837 329.531 70.193 312.443C63.0013 295.354 48.9602 280.537 31.11 275.524C23.8124 273.475 15.3528 273.294 9.30372 277.861C1.5882 283.685 0.562207 295.134 3.18769 304.439C6.11233 314.807 12.5275 323.826 19.4428 332.085C32.8294 348.073 56.557 368.169 77.3977 367.462" fill="#436FC3"/>
<path d="M80.2415 367.462C82.1876 347.642 78.9163 326.672 70.3476 308.633C63.1181 293.414 50.3946 280.253 34.2497 274.715C26.1886 271.95 16.1154 270.891 8.78003 276.137C2.08511 280.926 -0.260651 289.369 0.249109 297.276C0.842029 306.464 5.02919 315.103 10.1009 322.633C15.0894 330.04 20.997 336.907 27.3722 343.15C33.7496 349.397 40.7286 355.137 48.3383 359.825C55.4738 364.222 63.3622 367.791 71.7354 368.877C73.6157 369.121 75.5024 369.224 77.3968 369.171C79.5902 369.109 79.5989 365.693 77.3968 365.756C69.7309 365.972 62.2767 363.45 55.5321 359.974C48.0218 356.105 41.1563 351.043 34.8447 345.451C28.7784 340.075 23.2132 334.166 18.1566 327.834C12.4704 320.712 7.31771 312.838 4.83263 303.985C2.87999 297.03 2.85731 288.707 7.11035 282.561C11.9844 275.517 21.3685 274.945 29.0149 276.749C44.6933 280.445 57.4481 292.259 65.1668 306.042C69.6305 314.012 72.5627 322.88 74.5704 331.765C76.6796 341.101 77.6138 350.695 77.3017 360.264C77.2229 362.669 77.0598 365.07 76.8244 367.465C76.6127 369.647 80.0287 369.633 80.2415 367.462Z" fill="#436FC3"/>
<path d="M55.4423 390.175C51.6569 379.575 35.4775 373.884 26.0609 372.322C19.2569 371.192 10.5068 372.262 8.17398 378.751C6.8823 382.345 8.24741 386.511 10.8427 389.314C13.4379 392.115 17.0699 393.741 20.7419 394.79C32.3962 398.124 44.1877 398.743 54.3062 392.069" fill="#436FC3"/>
<path d="M57.0884 389.722C54.6001 382.988 48.3987 378.553 42.1261 375.597C36.0187 372.718 29.0375 370.454 22.2379 370.237C15.1833 370.011 6.45905 372.83 5.98601 381.122C5.73545 385.52 8.20217 389.651 11.5837 392.28C15.2902 395.163 19.9159 396.485 24.4292 397.5C34.8922 399.852 45.9374 399.532 55.166 393.543C57.0031 392.351 55.2934 389.394 53.4423 390.595C46.3445 395.2 37.967 396.262 29.7028 395.03C25.5945 394.417 21.2453 393.526 17.4394 391.815C13.9532 390.248 10.7423 387.703 9.69473 383.876C8.83505 380.732 9.92585 377.503 12.6939 375.728C15.2881 374.065 18.4967 373.62 21.524 373.639C27.3279 373.674 33.3521 375.517 38.6549 377.763C44.6068 380.285 51.427 384.227 53.7933 390.63C54.5504 392.674 57.853 391.79 57.0884 389.722Z" fill="#436FC3"/>
<path d="M664.118 356.055C674.339 375.02 681.105 395.846 683.931 417.208C684.73 423.244 685.203 429.32 685.382 435.406C685.444 437.526 688.746 437.535 688.683 435.406C688.037 413.426 683.4 391.585 674.979 371.267C672.592 365.508 669.926 359.876 666.969 354.389C665.96 352.517 663.109 354.182 664.118 356.055Z" fill="#436FC3"/>
<path d="M691.237 433.194C693.516 399.582 698.892 366.204 707.29 333.577C709.656 324.383 712.265 315.254 715.101 306.194C715.737 304.161 712.551 303.292 711.917 305.316C701.763 337.749 694.629 371.097 690.587 404.841C689.459 414.267 688.579 423.721 687.936 433.193C687.791 435.315 691.093 435.307 691.237 433.194Z" fill="#436FC3"/>
<path d="M693.275 443.461C701.259 421.884 714.144 402.187 730.621 386.141C735.313 381.57 740.292 377.292 745.533 373.362C747.213 372.103 745.569 369.234 743.867 370.511C724.887 384.746 709.167 403.193 698.205 424.244C695.115 430.178 692.414 436.31 690.093 442.583C689.354 444.578 692.543 445.439 693.275 443.461Z" fill="#436FC3"/>
<path d="M52.1811 326.713C70.0691 351.34 84.9018 378.198 96.1133 406.502C99.2388 414.392 102.082 422.393 104.653 430.481C105.293 432.499 108.483 431.637 107.837 429.603C98.5811 400.471 85.6956 372.495 69.527 346.552C64.9532 339.214 60.1137 332.042 55.0323 325.046C53.7946 323.344 50.9294 324.99 52.1811 326.713Z" fill="#436FC3"/>
<path d="M47.0488 389.476C65.0373 395.171 81.5332 405.274 94.8388 418.648C98.594 422.421 102.098 426.448 105.294 430.706C106.555 432.384 109.422 430.74 108.144 429.039C96.4318 413.441 80.9965 400.746 63.3666 392.371C58.3651 389.996 53.2048 387.963 47.9269 386.292C45.8965 385.649 45.0282 388.835 47.0488 389.476Z" fill="#436FC3"/>
</g>
<path d="M290.835 83.3119C290.835 104.094 307.682 120.941 328.464 120.941C333.164 120.941 337.661 120.072 341.809 118.498H385.642L363.694 96.5484C365.243 92.4303 366.096 87.971 366.096 83.3108C366.096 62.5284 349.248 45.6815 328.466 45.6815C307.683 45.6825 290.835 62.5295 290.835 83.3119Z" fill="#20355D"/>
<path d="M320.878 75.9668H311.793V97.1662H320.878V75.9668Z" fill="white"/>
<path d="M332.488 68.342H323.402V97.1672H332.488V68.342Z" fill="white"/>
<path d="M344.096 59.0972H335.011V97.1662H344.096V59.0972Z" fill="white"/>
</svg>
