<svg width="641" height="423" viewBox="0 0 641 423" fill="none" xmlns="http://www.w3.org/2000/svg">
<g clip-path="url(#clip0_2108_2)">
<path d="M631.492 98.9482H627.9C628.795 96.6755 629.304 94.2079 629.304 91.6184C629.304 80.5422 620.323 71.5636 609.245 71.5636C605.601 71.5636 602.194 72.55 599.249 74.2491C597.515 57.0318 582.98 43.5925 565.304 43.5925C546.462 43.5925 531.187 58.8656 531.187 77.7061C531.187 77.7089 531.187 77.7132 531.187 77.7161C531.119 77.7161 531.053 77.7061 530.984 77.7061C520.492 77.7061 511.982 86.2129 511.982 96.7057C511.982 97.4656 512.038 98.2112 512.127 98.9482H507.189C501.722 98.9482 497.297 103.866 497.297 109.931C497.297 115.998 501.724 120.916 507.189 120.916H631.493C636.958 120.916 641.385 115.998 641.385 109.931C641.385 103.866 636.957 98.9482 631.492 98.9482Z" fill="#C6D8ED"/>
<path d="M538.609 306.346H543.715C542.853 303.85 542.363 301.18 542.363 298.392C542.363 284.925 553.28 274.008 566.749 274.008C575.379 274.008 582.945 278.496 587.277 285.258C588.766 284.32 590.522 283.769 592.412 283.769C596.228 283.769 599.519 285.989 601.089 289.202C602.485 288.847 603.942 288.659 605.447 288.659C615.219 288.659 623.139 296.578 623.139 306.346H626.891C633.07 306.346 638.078 311.355 638.078 317.533C638.078 323.711 633.07 328.72 626.891 328.72H538.609C532.429 328.72 527.422 323.711 527.422 317.533C527.422 311.355 532.429 306.346 538.609 306.346Z" fill="#C6D8ED"/>
<path d="M117.006 76.6307H111.006C112.018 73.6985 112.596 70.5613 112.596 67.2836C112.596 51.4614 99.7676 38.6329 83.9434 38.6329C73.8051 38.6329 64.9143 43.9065 59.8236 51.8514C58.0741 50.7502 56.0105 50.1035 53.7907 50.1035C49.3052 50.1035 45.4391 52.7102 43.595 56.4855C41.9573 56.0682 40.2423 55.846 38.4742 55.846C26.995 55.846 17.6883 65.1515 17.6883 76.6293H13.2788C6.01843 76.6293 0.133301 82.5137 0.133301 89.7731C0.133301 97.0311 6.01843 102.917 13.2788 102.917H117.004C124.265 102.917 130.15 97.0326 130.15 89.7731C130.151 82.5151 124.266 76.6307 117.006 76.6307Z" fill="#C6D8ED"/>
<path d="M545.555 112.197V95.1987C545.555 92.8329 543.619 90.8972 541.253 90.8972H329.946C327.58 90.8972 325.644 92.8329 325.644 95.1987V112.197H545.555Z" fill="#436FC3"/>
<path d="M325.644 113.631V238.821C325.644 241.186 327.58 243.122 329.946 243.122H541.252C543.618 243.122 545.554 241.186 545.554 238.821V113.631H325.644Z" fill="#C6D8ED"/>
<path d="M385.562 124.439V232.801" stroke="#20355D" stroke-miterlimit="10"/>
<path d="M504.907 139.92H529.421" stroke="#20355D" stroke-miterlimit="10"/>
<path d="M395.952 139.92H498.455" stroke="#20355D" stroke-miterlimit="10"/>
<path d="M486.199 165.72H529.421" stroke="#20355D" stroke-miterlimit="10"/>
<path d="M450.719 165.72H477.811" stroke="#20355D" stroke-miterlimit="10"/>
<path d="M395.952 165.72H442.977" stroke="#20355D" stroke-miterlimit="10"/>
<path d="M492.005 191.52H529.421" stroke="#20355D" stroke-miterlimit="10"/>
<path d="M395.952 191.52H482.329" stroke="#20355D" stroke-miterlimit="10"/>
<path d="M464.265 217.32H529.421" stroke="#20355D" stroke-miterlimit="10"/>
<path d="M395.952 217.32H452.008" stroke="#20355D" stroke-miterlimit="10"/>
<path d="M372.662 128.309H341.696V148.432H372.662V128.309Z" fill="#2A4F9A"/>
<path d="M372.662 155.141H341.696V175.268H372.662V155.141Z" fill="#2A4F9A"/>
<path d="M372.662 181.974H341.696V202.099H372.662V181.974Z" fill="#2A4F9A"/>
<path d="M372.662 208.808H341.696V228.931H372.662V208.808Z" fill="#2A4F9A"/>
<path d="M532.963 101.863C532.963 102.841 532.168 103.634 531.192 103.634C530.212 103.634 529.421 102.841 529.421 101.863C529.421 100.885 530.214 100.094 531.192 100.094C532.17 100.092 532.963 100.885 532.963 101.863Z" fill="#20355D" stroke="#20355D" stroke-miterlimit="10"/>
<path d="M520.06 101.863C520.06 102.841 519.267 103.634 518.289 103.634C517.311 103.634 516.518 102.841 516.518 101.863C516.518 100.885 517.312 100.094 518.289 100.094C519.268 100.092 520.06 100.885 520.06 101.863Z" fill="#20355D" stroke="#20355D" stroke-miterlimit="10"/>
<path d="M507.158 101.863C507.158 102.841 506.365 103.634 505.387 103.634C504.409 103.634 503.616 102.841 503.616 101.863C503.616 100.885 504.411 100.094 505.387 100.094C506.367 100.092 507.158 100.885 507.158 101.863Z" fill="#20355D" stroke="#20355D" stroke-miterlimit="10"/>
<path d="M543.194 262.907L555.772 292.608L563.359 289.394L550.781 259.696L567.374 258.107L529.422 226.609V273.05L543.194 262.907Z" fill="#436FC3"/>
<path d="M200.537 368.422H169.954V401.988H200.537V368.422Z" fill="#C6D8ED"/>
<path d="M169.954 395.744C164.133 395.744 159.415 391.025 159.415 385.207C159.415 379.387 164.133 374.67 169.954 374.67" stroke="#C6D8ED" stroke-width="1.5" stroke-miterlimit="10"/>
<path d="M189.665 388.515C187.509 392.132 183.482 393.708 180.674 392.033C177.865 390.358 177.336 386.07 179.494 382.449C181.651 378.833 185.677 377.256 188.485 378.931C191.294 380.606 191.824 384.896 189.665 388.515Z" fill="#436FC3"/>
<path d="M188.485 378.931L180.674 392.033" stroke="#C6D8ED" stroke-width="1.5" stroke-miterlimit="10"/>
<path d="M397.247 398.226C397.247 396.154 396.124 394.469 394.74 394.469H235.963C234.578 394.469 233.457 396.154 233.457 398.226C233.457 400.303 234.578 401.988 235.963 401.988H394.74C396.124 401.988 397.247 400.303 397.247 398.226Z" fill="#23427D"/>
<path d="M395.995 316.984C395.995 314.618 394.059 312.682 391.693 312.682H239.01C236.644 312.682 234.708 314.618 234.708 316.984V390.168C234.708 392.534 236.644 394.469 239.01 394.469H391.693C394.059 394.469 395.995 392.534 395.995 390.168V316.984Z" fill="#20355D"/>
<path d="M388.208 323.614C388.208 321.248 386.272 319.312 383.906 319.312H246.797C244.431 319.312 242.495 321.248 242.495 323.614V383.538C242.495 385.904 244.431 387.839 246.797 387.839H383.906C386.272 387.839 388.208 385.904 388.208 383.538V323.614Z" fill="#436FC3"/>
<path d="M333.816 348.757C333.816 351.417 331.66 353.575 329 353.575H301.705C299.042 353.575 296.884 351.417 296.884 348.757C296.884 346.095 299.042 343.937 301.705 343.937H329C331.661 343.937 333.816 346.095 333.816 348.757Z" fill="#C6D8ED"/>
<path d="M498.411 367.918C498.411 367.129 497.765 366.484 496.977 366.484H438.824C438.035 366.484 437.39 367.129 437.39 367.918V380.507C437.39 381.295 438.035 381.941 438.824 381.941H496.977C497.765 381.941 498.411 381.295 498.411 380.507V367.918Z" fill="#2A4F9A"/>
<path d="M503.228 351.862C503.228 351.073 502.583 350.428 501.794 350.428H443.641C442.852 350.428 442.207 351.073 442.207 351.862V364.451C442.207 365.239 442.852 365.885 443.641 365.885H501.794C502.583 365.885 503.228 365.239 503.228 364.451V351.862Z" fill="#C6D8ED"/>
<path d="M500.418 336.405C500.418 335.617 499.773 334.971 498.984 334.971H440.831C440.043 334.971 439.397 335.617 439.397 336.405V348.994C439.397 349.783 440.043 350.428 440.831 350.428H498.984C499.773 350.428 500.418 349.783 500.418 348.994V336.405Z" fill="#436FC3"/>
<path d="M534.14 401.988H96.5625V410.971H534.14V401.988Z" fill="#436FC3"/>
<path d="M132.668 410.971H109.553V617.02H132.668V410.971Z" fill="#2A4F9A"/>
<path d="M521.532 410.971H498.417V617.02H521.532V410.971Z" fill="#2A4F9A"/>
<path d="M498.405 410.971H132.595V504.616H498.405V410.971Z" fill="#C6D8ED"/>
<path d="M505.905 381.875H428.827V401.909H505.905V381.875Z" fill="#20355D"/>
<path d="M480.887 386.656H439.397V397.128H480.887V386.656Z" fill="#436FC3"/>
<path d="M434.999 381.875V401.988" stroke="#C6D8ED" stroke-miterlimit="10"/>
<path d="M485.189 382.441V401.922" stroke="#C6D8ED" stroke-miterlimit="10"/>
<path d="M499.743 391.891C499.743 393.423 498.501 394.666 496.968 394.666C495.437 394.666 494.193 393.424 494.193 391.891C494.193 390.36 495.435 389.117 496.968 389.117C498.501 389.118 499.743 390.36 499.743 391.891Z" fill="#436FC3"/>
<path d="M168.706 131.654H47.5327V301.364H168.706V131.654Z" fill="#C6D8ED"/>
<path d="M71.6497 148.199C71.6497 151.303 69.1331 153.821 66.027 153.821C62.9224 153.821 60.4058 151.304 60.4058 148.199V129.447C60.4058 126.341 62.9224 123.825 66.027 123.825C69.1316 123.825 71.6497 126.341 71.6497 129.447V148.199Z" stroke="#20355D" stroke-miterlimit="10"/>
<path d="M98.3823 152.101L98.5241 152.057C98.4782 152.071 98.4296 152.086 98.3823 152.101Z" fill="#436FC3"/>
<path d="M108.611 182.299L139.762 175.623C136.369 161.288 123.495 150.617 108.121 150.617C105.031 150.617 102.044 151.058 99.2114 151.863L108.611 182.299Z" fill="#20355D"/>
<path d="M109.885 183.492L135.215 201.124C138.644 195.972 140.644 189.789 140.644 183.137C140.644 181.046 140.439 179.004 140.062 177.024L109.885 183.492Z" fill="#436FC3"/>
<path d="M107.507 183.584L97.8389 152.284C84.9157 156.586 75.5947 168.77 75.5947 183.137C75.5947 201.097 90.1556 215.657 108.119 215.657C118.914 215.657 128.476 210.394 134.393 202.298L107.507 183.584Z" fill="#436FC3"/>
<path d="M155.506 233.302H60.7339V242.996H155.506V233.302Z" fill="#436FC3"/>
<path d="M155.506 279.035H60.7339V288.729H155.506V279.035Z" fill="#436FC3"/>
<path d="M121.649 256.828H60.7339V266.522H121.649V256.828Z" fill="#436FC3"/>
<path d="M155.506 256.828H129.599V266.522H155.506V256.828Z" fill="#436FC3"/>
<path d="M491.902 250.919V255.221" stroke="#20355D" stroke-miterlimit="10"/>
<path d="M491.902 262.814V304.583" stroke="#20355D" stroke-miterlimit="10" stroke-dasharray="5.3 5.3"/>
<path d="M491.902 308.38V312.681H487.6" stroke="#20355D" stroke-miterlimit="10"/>
<path d="M477.486 312.681H442.088" stroke="#20355D" stroke-miterlimit="10" stroke-dasharray="7.05 7.05"/>
<path d="M437.031 312.681H432.729V316.983" stroke="#20355D" stroke-miterlimit="10"/>
<path d="M432.73 327.629V331.93H428.428" stroke="#20355D" stroke-miterlimit="10"/>
<path d="M421.018 331.93H409.904" stroke="#20355D" stroke-miterlimit="10" stroke-dasharray="5.17 5.17"/>
<path d="M406.2 331.93H401.898" stroke="#20355D" stroke-miterlimit="10"/>
<path d="M115.697 309.706V314.007" stroke="#20355D" stroke-miterlimit="10"/>
<path d="M115.697 319.562V327.892" stroke="#20355D" stroke-miterlimit="10" stroke-dasharray="3.87 3.87"/>
<path d="M115.697 330.67V334.971H119.999" stroke="#20355D" stroke-miterlimit="10"/>
<path d="M128.171 334.971H222.148" stroke="#20355D" stroke-miterlimit="10" stroke-dasharray="5.7 5.7"/>
<path d="M226.234 334.971H230.536" stroke="#20355D" stroke-miterlimit="10"/>
<path d="M375.621 43.5911H281.618V104.093H375.621V43.5911Z" fill="#C6D8ED"/>
<path d="M375.621 43.5911L328.618 73.8419L281.618 43.5911" stroke="#436FC3" stroke-miterlimit="10"/>
<path d="M324.156 70.9685L281.618 104.093" stroke="#436FC3" stroke-miterlimit="10"/>
<path d="M334.224 70.9685L375.621 104.093" stroke="#436FC3" stroke-miterlimit="10"/>
<path d="M238.27 91.8966H167.535V190.743H238.27V91.8966Z" fill="#436FC3"/>
<path d="M223.072 102.217H152.337V201.062H223.072V102.217Z" fill="#C6D8ED"/>
<path d="M162.564 117.555H212.562" stroke="#20355D" stroke-miterlimit="10"/>
<path d="M162.564 134.597H212.562" stroke="#20355D" stroke-miterlimit="10"/>
<path d="M162.564 151.64H212.562" stroke="#20355D" stroke-miterlimit="10"/>
<path d="M162.564 168.682H212.562" stroke="#20355D" stroke-miterlimit="10"/>
<path d="M162.564 185.725H212.562" stroke="#20355D" stroke-miterlimit="10"/>
<path d="M39.2541 412.523C39.2541 412.523 -5.54832 371.755 27.9829 356.364C48.4174 346.984 51.6439 400.812 51.6439 400.812C51.6439 400.812 45.0862 289.691 77.9994 289.691C115.696 289.691 73.1539 412.523 73.1539 412.523H39.2541Z" fill="#57A773"/>
<path d="M78.4108 308.81L64.7046 412.523" stroke="#20355D" stroke-miterlimit="10"/>
<path d="M28.6997 369.03L49.4927 412.523" stroke="#20355D" stroke-miterlimit="10"/>
<path d="M75.4941 330.882L69.5688 317.651" stroke="#20355D" stroke-miterlimit="10"/>
<path d="M70.6743 367.346L80.0842 356.364" stroke="#20355D" stroke-miterlimit="10"/>
<path d="M58.335 371.898L66.6636 397.707" stroke="#20355D" stroke-miterlimit="10"/>
<path d="M40.9246 394.6L28.6997 388.625" stroke="#20355D" stroke-miterlimit="10"/>
<path d="M551.039 412.523C551.039 412.523 507.656 292.559 538.487 282.522C569.318 272.485 569.674 337.007 565.552 402.246C565.552 402.246 574.337 330.555 596.564 324.103C618.791 317.651 616.64 343.222 584.375 412.523H551.039Z" fill="#57A773"/>
<path d="M545.657 298.294L558.636 412.522" stroke="#20355D" stroke-miterlimit="10"/>
<path d="M600.149 341.994L573.62 412.522" stroke="#20355D" stroke-miterlimit="10"/>
<path d="M559.997 314.306L549.558 332.614" stroke="#20355D" stroke-miterlimit="10"/>
<path d="M540.638 356.364L554.211 373.577" stroke="#20355D" stroke-miterlimit="10"/>
<path d="M582.701 357.32L587.627 375.286" stroke="#20355D" stroke-miterlimit="10"/>
<path d="M29 417L588 417" stroke="#20355D" stroke-width="12" stroke-miterlimit="10" stroke-linecap="round"/>
</g>
<defs>
<clipPath id="clip0_2108_2">
<rect width="641" height="423" fill="white"/>
</clipPath>
</defs>
</svg>
