<svg width="62" height="68" viewBox="0 0 62 68" fill="none" xmlns="http://www.w3.org/2000/svg">
<path d="M58.1759 4.14038L15.8157 0.749279C13.007 0.524435 10.224 1.42454 8.07904 3.25157C5.93403 5.07861 4.60266 7.68291 4.37781 10.4916L0.986713 52.8518C0.761869 55.6605 1.66197 58.4435 3.489 60.5885C5.31604 62.7335 7.92034 64.0648 10.729 64.2897L53.0893 67.6808C54.0255 67.7557 54.9531 67.4557 55.6681 66.8467C56.3831 66.2377 56.8269 65.3696 56.9019 64.4334L61.4233 7.95299C61.4983 7.01677 61.1983 6.08912 60.5893 5.37412C59.9802 4.65912 59.1121 4.21533 58.1759 4.14038ZM11.2942 57.2296C10.358 57.1547 9.48987 56.7109 8.88085 55.9959C8.27184 55.2809 7.97181 54.3532 8.04676 53.417C8.12171 52.4808 8.5655 51.6127 9.2805 51.0037C9.9955 50.3947 10.9232 50.0946 11.8594 50.1696L50.6896 53.2781L50.1244 60.3381L11.2942 57.2296Z" fill="url(#paint0_linear_2048_17517)"/>
<defs>
<linearGradient id="paint0_linear_2048_17517" x1="33.4658" y1="2.16224" x2="28.3791" y2="65.7026" gradientUnits="userSpaceOnUse">
<stop stop-color="#20355D"/>
<stop offset="1" stop-color="#436FC3"/>
</linearGradient>
</defs>
</svg>
